<?xml version="1.0" encoding="UTF-8"?>
<svg version="1.1" xmlns="http://www.w3.org/2000/svg" width="512" height="512">
<path d="M0 0 C34.34942894 -1.38629982 70.29503603 10.07225039 96.02734375 33.12890625 C105.57353469 42.09506001 111.88453012 53.65359036 116 66 C116.28609131 65.42668945 116.57218262 64.85337891 116.86694336 64.26269531 C122.46048714 53.12697589 127.94070938 42.57228012 136 33 C136.63164062 32.20722656 137.26328125 31.41445313 137.9140625 30.59765625 C143.76523148 23.55458248 153.26784289 13.81659452 162.76953125 12.6640625 C169.46706077 12.57808651 173.63709475 12.86609387 179 17 C184.17211486 22.45168863 185.21290437 27.10328139 185.36328125 34.40234375 C184.5558334 40.17603002 181.62991085 43.74363985 177.3125 47.4375 C176.42304688 48.20964844 175.53359375 48.98179688 174.6171875 49.77734375 C173.75351562 50.51082031 172.88984375 51.24429688 172 52 C149.51533077 71.29035275 135.21018702 94.91631477 126 123 C126.71953857 122.7733667 127.43907715 122.5467334 128.18041992 122.31323242 C131.5145484 121.26626324 134.85099188 120.22685959 138.1875 119.1875 C139.31865234 118.83107422 140.44980469 118.47464844 141.61523438 118.10742188 C173.71947536 108.13772881 204.59369238 108.24598001 234.9375 123.875 C260.65048685 138.89742509 279.45426652 162.02604531 287.0625 190.875 C287.38600771 192.24745182 287.69769745 193.6227221 288 195 C288.18256348 195.82765869 288.36512695 196.65531738 288.55322266 197.50805664 C297.28984305 240.75938439 281.43149428 294.40780606 266 335 C267.01199463 334.71801758 268.02398926 334.43603516 269.06665039 334.14550781 C272.89649769 333.07859699 276.7266496 332.0127831 280.55688477 330.94726562 C282.20052004 330.48987282 283.84407745 330.0322001 285.48754883 329.57421875 C290.98941963 328.04115851 296.49367653 326.51698642 302 325 C302.73047546 324.79793945 303.46095093 324.59587891 304.21356201 324.38769531 C306.26488888 323.82173139 308.31768489 323.26148127 310.37109375 322.703125 C311.53439209 322.38504883 312.69769043 322.06697266 313.89624023 321.73925781 C320.35285089 320.20141332 325.35672874 319.96544628 331.21582031 323.48339844 C334.90846868 326.62225061 336.7482297 331.10283494 338.875 335.375 C339.91228942 337.37467253 340.95396536 339.3720757 342 341.3671875 C342.50660156 342.33624023 343.01320313 343.30529297 343.53515625 344.30371094 C345.45774377 347.84255369 347.6147251 351.17081461 349.875 354.5 C358.57538433 367.74723979 364.38444045 384.02110009 365 400 C365.0515625 401.14339844 365.103125 402.28679687 365.15625 403.46484375 C365.81736415 431.47955579 356.29246603 457.35419895 337.265625 478.01171875 C321.13210349 494.71492675 301.02662421 503.90622941 278.4375 508.1875 C277.63111084 508.34250977 276.82472168 508.49751953 275.99389648 508.65722656 C255.85533406 512.18296325 235.5088546 512.36965817 215.125 512.3125 C213.7643332 512.31057685 212.40366629 512.30873632 211.04299927 512.30697632 C191.22055495 512.26970649 171.64183055 511.90979568 152 509 C150.80906738 508.82839355 149.61813477 508.65678711 148.39111328 508.47998047 C127.49570761 505.36778042 105.74463119 501.16525769 87 491 C85.95714844 490.44441406 84.91429687 489.88882812 83.83984375 489.31640625 C73.12326249 483.35389698 63.50044557 476.35475123 59.7421875 464.18359375 C57.77085209 457.1232493 56.47416052 450.36175276 57 443 C56.14019531 443.144375 55.28039062 443.28875 54.39453125 443.4375 C37.60526998 446.0739816 24.18665108 446.14279259 10 436 C6.48950955 433.16706622 3.21549228 430.16225566 0 427 C-0.65484375 426.35804688 -1.3096875 425.71609375 -1.984375 425.0546875 C-47.80105238 376.77678365 -74.15742159 281.3233964 -73.28320312 216.06298828 C-72.3530557 185.6711258 -59.48204726 158.97409005 -37.56640625 138.19140625 C-20.79733218 122.87145551 -0.09407014 114.85769479 22 111 C21.5153125 110.46375 21.030625 109.9275 20.53125 109.375 C-0.34300297 84.96818114 -4.92604131 50.33522677 -2.81542969 19.28466797 C-1.57570273 4.72710818 -1.57570273 4.72710818 0 0 Z " fill="#CB2727" transform="translate(110,0)"/>
<path d="M0 0 C3.46825824 3.30821718 5.37198138 7.66785556 7.48339844 11.90917969 C8.52068785 13.90885222 9.56236379 15.90625539 10.60839844 17.90136719 C11.36830078 19.35494629 11.36830078 19.35494629 12.14355469 20.83789062 C14.0661422 24.37673338 16.22312354 27.7049943 18.48339844 31.03417969 C27.18378277 44.28141948 32.99283889 60.55527978 33.60839844 76.53417969 C33.68574219 78.24927734 33.68574219 78.24927734 33.76464844 79.99902344 C34.42576259 108.01373548 24.90086447 133.88837864 5.87402344 154.54589844 C-10.25949807 171.24910644 -30.36497735 180.4404091 -52.95410156 184.72167969 C-53.76049072 184.87668945 -54.56687988 185.03169922 -55.39770508 185.19140625 C-75.53626751 188.71714294 -95.88274697 188.90383785 -116.26660156 188.84667969 C-117.62726836 188.84475654 -118.98793528 188.84291601 -120.34860229 188.84115601 C-140.17104661 188.80388618 -159.74977101 188.44397537 -179.39160156 185.53417969 C-181.17800049 185.27677002 -181.17800049 185.27677002 -183.00048828 185.01416016 C-203.89589396 181.90196011 -225.64697038 177.69943738 -244.39160156 167.53417969 C-245.43445313 166.97859375 -246.47730469 166.42300781 -247.55175781 165.85058594 C-259.81788518 159.02593763 -268.63295706 151.4485401 -272.70410156 137.65917969 C-275.11320377 127.97539423 -274.95128397 117.99981584 -275.17675781 108.08105469 C-275.34907368 101.33250335 -276.03929778 94.7624172 -276.98925781 88.08496094 C-278.25781651 76.88962253 -278.25781651 76.88962253 -275.82910156 72.78417969 C-275.39404297 71.98753906 -275.39404297 71.98753906 -274.95019531 71.17480469 C-269.61004794 65.55359693 -262.2754737 64.25663655 -255.01660156 62.59667969 C-252.85186565 62.07996153 -250.68780236 61.56041753 -248.52441406 61.03808594 C-247.47157227 60.78430176 -246.41873047 60.53051758 -245.33398438 60.26904297 C-241.48155773 59.30689526 -237.68691346 58.19852733 -233.89160156 57.03417969 C-226.38524806 54.74756694 -218.80357815 52.83888302 -211.16894531 51.02832031 C-204.19919978 49.33972326 -197.33822822 47.3596847 -190.46191406 45.32788086 C-178.11279985 41.70455019 -165.70586047 38.32770271 -153.27050781 35.01464844 C-151.06187612 34.42428148 -148.85329463 33.83372667 -146.64476013 33.24299622 C-142.07149245 32.0203832 -137.49773701 30.79961865 -132.92358398 29.58032227 C-127.07938954 28.02237679 -121.23632144 26.46025354 -115.39358616 24.89684582 C-110.85656351 23.68320308 -106.3190398 22.47144277 -101.7813549 21.2602787 C-99.6255634 20.68469289 -97.4699073 20.10859966 -95.314394 19.53197289 C-92.31140883 18.72900191 -89.30777546 17.92850217 -86.30395508 17.12866211 C-85.42959305 16.89438004 -84.55523102 16.66009796 -83.65437317 16.41871643 C-78.9226691 15.16182335 -74.18841142 14.01705379 -69.39450836 13.02134895 C-66.6588175 12.3559438 -64.10919805 11.34164057 -61.49362183 10.31283569 C-57.43906976 8.81089902 -53.25431706 7.74249405 -49.08300781 6.61621094 C-48.11685043 6.35410324 -47.15069305 6.09199554 -46.15525818 5.82194519 C-44.1229029 5.27271293 -42.08993686 4.72573624 -40.05639648 4.1809082 C-36.96387916 3.34930895 -33.87608223 2.50153057 -30.78808594 1.65332031 C-28.80332997 1.11911275 -26.81831212 0.58587706 -24.83300781 0.05371094 C-23.92023575 -0.19936325 -23.00746368 -0.45243744 -22.06703186 -0.71318054 C-14.75887171 -2.64015927 -6.74813309 -4.43271149 0 0 Z " fill="#FEE7B2" transform="translate(441.3916015625,323.4658203125)"/>
<path d="M0 0 C-0.40089844 0.36609375 -0.80179687 0.7321875 -1.21484375 1.109375 C-19.86034737 18.8669975 -32.03254679 44.18422838 -33.12597656 69.97094727 C-33.45075827 83.87386547 -33.25214552 97.24882055 -30.41455078 110.87695312 C-29.82793804 113.88118422 -29.40541811 116.9030149 -28.97094727 119.93237305 C-26.18344962 139.11043556 -20.90531298 157.57757369 -15 176 C-14.56313657 177.37575754 -14.12646017 178.75157447 -13.68994141 180.12744141 C-7.50159425 199.57622384 -0.94137909 218.60807995 8 237 C8.4846875 237.99837891 8.969375 238.99675781 9.46875 240.02539062 C16.07070789 253.4614065 23.09224174 267.4939574 33.375 278.5546875 C35 281 35 281 34.7265625 283.7890625 C34.48679688 284.84867187 34.24703125 285.90828125 34 287 C33.97039007 289.801663 34.17615803 292.58127028 34.375 295.375 C34.41882813 296.09171875 34.46265625 296.8084375 34.5078125 297.546875 C34.73502209 301.04337818 35.0637345 304.46986748 35.53515625 307.9453125 C36.12880821 312.4680031 36.11071755 316.94529618 36.0625 321.5 C36.05573242 322.73363281 36.05573242 322.73363281 36.04882812 323.9921875 C36.03718489 325.99482396 36.01925556 327.99742227 36 330 C19.73200586 332.73165719 5.86081016 333.90419767 -8.4921875 324.79296875 C-13.01584011 321.55876852 -17.03954282 317.8948867 -21 314 C-21.65484375 313.35804688 -22.3096875 312.71609375 -22.984375 312.0546875 C-68.80105238 263.77678365 -95.15742159 168.3233964 -94.28320312 103.06298828 C-93.3530557 72.6711258 -80.48204726 45.97409005 -58.56640625 25.19140625 C-44.3862525 12.23665061 -27.44265639 4.60572234 -9 0 C-8.09636719 -0.22816406 -7.19273438 -0.45632812 -6.26171875 -0.69140625 C-3.86145599 -1.01890324 -2.28243554 -0.76081185 0 0 Z " fill="#991D1D" transform="translate(131,113)"/>
<path d="M0 0 C34.34942894 -1.38629982 70.29503603 10.07225039 96.02734375 33.12890625 C105.57353469 42.09506001 111.88453012 53.65359036 116 66 C116.28609131 65.42668945 116.57218262 64.85337891 116.86694336 64.26269531 C122.46048714 53.12697589 127.94070938 42.57228012 136 33 C136.63164062 32.20722656 137.26328125 31.41445313 137.9140625 30.59765625 C143.76523148 23.55458248 153.26784289 13.81659452 162.76953125 12.6640625 C169.46706077 12.57808651 173.63709475 12.86609387 179 17 C184.17211486 22.45168863 185.21290437 27.10328139 185.36328125 34.40234375 C184.5558334 40.17603002 181.62991085 43.74363985 177.3125 47.4375 C176.42304688 48.20964844 175.53359375 48.98179688 174.6171875 49.77734375 C173.75351562 50.51082031 172.88984375 51.24429688 172 52 C151.40639835 69.66794237 138.80202242 89.98889686 128.80761719 115.00732422 C128.16541209 116.59187017 127.48386985 118.16046036 126.7890625 119.72265625 C125.03687008 123.69662865 123.7476939 127.72964968 122.6875 131.9375 C122.45957764 132.83863525 122.23165527 133.73977051 121.99682617 134.66821289 C121.14836751 138.10170079 120.32037493 141.53973414 119.5090332 144.98217773 C119.08180378 146.67572748 118.5523256 148.34302319 118 150 C112.06 150 106.12 150 100 150 C99.92580766 142.8775349 99.89609314 136.0374062 101 129 C100.1646875 129.30744141 100.1646875 129.30744141 99.3125 129.62109375 C98.549375 129.89050781 97.78625 130.15992188 97 130.4375 C96.2575 130.70433594 95.515 130.97117188 94.75 131.24609375 C75.59639695 136.4970105 55.442934 132.97331974 38.1875 123.875 C33.83960376 121.31741398 29.57731183 118.58677562 26 115 C26 114.34 26 113.68 26 113 C25.12601563 112.63261719 25.12601563 112.63261719 24.234375 112.2578125 C12.31587648 105.54844795 5.90276439 86.22026221 2.02734375 73.86328125 C-3.83830452 51.80576743 -7.36946216 22.10838649 0 0 Z " fill="#407A26" transform="translate(110,0)"/>
<path d="M0 0 C33.88983522 -1.49270074 69.70730095 10.44164791 95.02734375 33.12890625 C104.64939497 42.16631093 114.2873392 56.38198167 115 70 C114.1796875 73.0078125 114.1796875 73.0078125 112.875 76.125 C107.0059885 91.45596356 104.28196152 107.956892 101 124 C97.2550384 120.34355567 93.77180196 116.54300465 90.375 112.5625 C89.85212402 111.95124268 89.32924805 111.33998535 88.79052734 110.71020508 C84.83279587 106.05106569 81.03171492 101.28603606 77.28222656 96.45874023 C73.06559557 91.04280841 68.70849633 85.74929367 64.3347168 80.45996094 C58.71851469 73.66756281 53.1591646 66.8301857 47.60888672 59.98388672 C44.90837253 56.65393553 42.20398205 53.3271353 39.5 50 C38.41664829 48.6666816 37.33331495 47.33334827 36.25 46 C35.71375 45.34 35.1775 44.68 34.625 44 C33 42 31.375 40 29.75 38 C29.2132666 37.33943604 28.6765332 36.67887207 28.12353516 35.99829102 C27.04496197 34.67075395 25.96651058 33.34311792 24.88818359 32.01538086 C22.10803268 28.59252497 19.3255065 25.17164175 16.5390625 21.75390625 C0 1.45820429 0 1.45820429 0 0 Z " fill="#56A532" transform="translate(111,0)"/>
<path d="M0 0 C4.66934647 2.50179735 7.47141301 5.95094934 10.05078125 10.46484375 C11.49129432 15.86676775 11.67979886 21.09939565 9.57421875 26.31640625 C7.71010121 29.42874347 5.86105222 31.36392511 3.11328125 33.71484375 C1.77910156 34.87306641 1.77910156 34.87306641 0.41796875 36.0546875 C-0.44570313 36.78816406 -1.309375 37.52164063 -2.19921875 38.27734375 C-22.7928204 55.94528612 -35.39719633 76.26624061 -45.39160156 101.28466797 C-46.03380666 102.86921392 -46.7153489 104.43780411 -47.41015625 106 C-49.16234867 109.9739724 -50.45152485 114.00699343 -51.51171875 118.21484375 C-51.73964111 119.115979 -51.96756348 120.01711426 -52.20239258 120.94555664 C-53.05085124 124.37904454 -53.87884382 127.81707789 -54.69018555 131.25952148 C-55.11741497 132.95307123 -55.64689315 134.62036694 -56.19921875 136.27734375 C-62.13921875 136.27734375 -68.07921875 136.27734375 -74.19921875 136.27734375 C-75.68449841 96.66988616 -63.80511596 50.03250731 -38.19921875 19.27734375 C-37.56628906 18.48199219 -36.93335938 17.68664062 -36.28125 16.8671875 C-27.37363404 6.15968213 -14.80146596 -4.86371439 0 0 Z " fill="#623A14" transform="translate(284.19921875,13.72265625)"/>
<path d="M0 0 C0.90447259 14.0193251 -6.15422634 23.10202963 -15.05859375 33.375 C-29.9303652 49.11827412 -51.12327828 62.5187289 -73.125 63.25 C-86.75412857 63.06329961 -99.11520891 58.34347154 -109.14453125 49.05859375 C-113.93601318 43.74257064 -117.73937632 38.07814655 -119 31 C-116.24100844 30.25522156 -113.4820107 29.51046602 -110.7230072 28.76573181 C-108.22606268 28.09173433 -105.72912484 27.41771206 -103.23219299 26.7436676 C-96.21523988 24.84954661 -89.19803228 22.9563744 -82.18041992 21.06469727 C-79.27521074 20.28147626 -76.37002124 19.49818229 -73.46484375 18.71484375 C-72.37117272 18.41996787 -72.37117272 18.41996787 -71.25540733 18.1191349 C-62.21012516 15.67999087 -53.167095 13.23280022 -44.12728882 10.7734375 C-39.32069195 9.46608009 -34.51312934 8.16229714 -29.70544434 6.85894775 C-27.4477119 6.24579815 -25.19046578 5.63085497 -22.93371582 5.01409912 C-19.80727669 4.15983347 -16.67924552 3.31165761 -13.55078125 2.46484375 C-12.6339003 2.21255508 -11.71701935 1.96026642 -10.77235413 1.70033264 C-9.93264572 1.47429855 -9.09293732 1.24826447 -8.2277832 1.01538086 C-7.50291214 0.81794785 -6.77804108 0.62051483 -6.03120422 0.417099 C-4 0 -4 0 0 0 Z " fill="#E0C37F" transform="translate(365,339)"/>
<path d="M0 0 C9.56543546 14.3481532 7.09818267 38.52706464 3.97265625 54.6796875 C-1.2435532 79.09392119 -16.21446854 102.47688923 -37.22265625 116.31640625 C-51.03290209 124.68801801 -64.65374419 130.172346 -80.5625 133.1875 C-81.36888916 133.34250977 -82.17527832 133.49751953 -83.00610352 133.65722656 C-103.14466594 137.18296325 -123.4911454 137.36965817 -143.875 137.3125 C-145.2356668 137.31057685 -146.59633371 137.30873632 -147.95700073 137.30697632 C-167.77944505 137.26970649 -187.35816945 136.90979568 -207 134 C-208.78639893 133.74259033 -208.78639893 133.74259033 -210.60888672 133.47998047 C-231.50429239 130.36778042 -253.25536881 126.16525769 -272 116 C-273.04285156 115.44441406 -274.08570313 114.88882813 -275.16015625 114.31640625 C-285.60985628 108.50238479 -295.2506671 101.61111815 -299.03515625 89.7578125 C-299.77110303 86.84825546 -300.43164938 83.94644925 -301 81 C-300.34 81 -299.68 81 -299 81 C-298.505 81.99 -298.01 82.98 -297.5 84 C-286.92655511 102.12069694 -262.62536031 109.50512271 -243.546875 114.62109375 C-230.27340929 118.01408261 -216.77108294 120.00975963 -203.1875 121.6875 C-201.74068848 121.86671997 -201.74068848 121.86671997 -200.26464844 122.04956055 C-183.22598399 124.02424967 -166.22352785 124.18639678 -149.09082031 124.18530273 C-145.27137067 124.18748777 -141.45221132 124.20570389 -137.6328125 124.22460938 C-119.50482838 124.26676218 -101.54939521 123.57669366 -83.6875 120.25 C-82.7814502 120.08226074 -81.87540039 119.91452148 -80.94189453 119.74169922 C-72.53995723 118.08207559 -64.82383557 115.44559646 -57 112 C-55.93523437 111.53722656 -54.87046875 111.07445312 -53.7734375 110.59765625 C-30.00863745 99.513557 -12.92636301 78.62980301 -3.81347656 54.38427734 C2.19604027 36.77054943 2.08394074 18.30890797 0 0 Z " fill="#CE2F2D" transform="translate(469,375)"/>
<path d="M0 0 C2.578125 1.171875 2.578125 1.171875 5.25 2.75 C13.078889 6.92145348 21.36273156 8.36851596 30 10 C30 8.02 30 6.04 30 4 C30.33 4 30.66 4 31 4 C31 5.98 31 7.96 31 10 C36.94 10 42.88 10 49 10 C49.33 9.01 49.66 8.02 50 7 C50.495 7.99 50.495 7.99 51 9 C59.15739279 8.36020449 68.71931693 6.77754555 75.375 1.75 C78.88469381 -0.58979587 80.85903463 -0.66551229 85 0 C88.22083055 1.87393777 90.495267 3.21180307 91.546875 6.9375 C91.81487939 10.86823104 91.32554351 12.5787084 88.875 15.75 C82.9495182 20.38733358 77.64766678 23.04764642 70.5 25.1875 C69.67113281 25.44724609 68.84226562 25.70699219 67.98828125 25.97460938 C46.32820982 32.63792229 17.64177819 31.22675822 -2.546875 20.66796875 C-5.70930727 18.75781349 -8.5952818 16.83562146 -11 14 C-11.72238405 11.01414591 -12.20927223 8.9821293 -12 6 C-8.69470634 0.64314476 -6.17455751 -0.45179689 0 0 Z " fill="#A31B1B" transform="translate(179,140)"/>
<path d="M0 0 C0.99 0.66 1.98 1.32 3 2 C2.2893983 9.99135683 -3.05240339 14.32717809 -8.68359375 19.56640625 C-11.44321016 21.71277457 -13.11422765 22 -16.625 22 C-20.36672494 20.89134076 -21.80520205 20.20778162 -24 17 C-25.0625 13.625 -25.0625 13.625 -25 10 C-22.36208017 5.26993686 -20.08333599 3.76322197 -14.9375 2.1875 C-13.29692599 1.77040491 -11.65111736 1.37317937 -10 1 C-8.95199219 0.7215625 -8.95199219 0.7215625 -7.8828125 0.4375 C-5.1910487 -0.18797209 -2.75121622 -0.17560955 0 0 Z " fill="#673F18" transform="translate(310,364)"/>
<path d="M0 0 C4.53180302 6.79770453 5.47277312 15.96285696 5 24 C4.67 24 4.34 24 4 24 C4 21.69 4 19.38 4 17 C3.34 17 2.68 17 2 17 C-0.29612756 5.47835991 -0.29612756 5.47835991 0 0 Z " fill="#DD6A56" transform="translate(469,375)"/>
</svg>
