<?xml version="1.0" encoding="UTF-8"?>
<svg version="1.1" xmlns="http://www.w3.org/2000/svg" width="512" height="512">
<path d="M0 0 C0.90325516 -0.00671722 1.80651031 -0.01343445 2.73713684 -0.02035522 C5.71307936 -0.03929981 8.68879591 -0.0432577 11.66479492 -0.04541016 C13.742163 -0.05184073 15.81953017 -0.05856928 17.89689636 -0.06558228 C22.2486684 -0.07754633 26.60036111 -0.08126401 30.95214844 -0.08007812 C36.51371651 -0.07987503 42.07477304 -0.10717132 47.63621998 -0.14162254 C51.92663383 -0.16391938 56.21692513 -0.1679148 60.50739098 -0.16685867 C62.55700123 -0.16921065 64.60661508 -0.17801136 66.65616798 -0.19352341 C69.53025195 -0.21323877 72.40324009 -0.20732344 75.27734375 -0.1953125 C76.53312225 -0.21217102 76.53312225 -0.21217102 77.81427002 -0.22937012 C84.49589605 -0.15883175 90.7432691 1.38253213 95.72317219 6.06987953 C100.71168115 11.61801105 101.83276367 14.49202419 101.83276367 22.29052734 C140.44276367 22.29052734 179.05276367 22.29052734 218.83276367 22.29052734 C219.16276367 20.31052734 219.49276367 18.33052734 219.83276367 16.29052734 C222.65573249 12.57259559 224.3150881 11.51165667 228.94604492 10.83691406 C232.75471308 10.65174182 236.52041351 10.65840397 240.33276367 10.72802734 C241.63858398 10.71707031 242.9444043 10.70611328 244.28979492 10.69482422 C251.19256132 10.74770547 255.2511007 10.87686757 260.83276367 15.29052734 C262.07918254 17.78336508 261.98672602 19.51393547 262.02563477 22.3034668 C262.04972916 23.8706823 262.04972916 23.8706823 262.0743103 25.46955872 C262.11870173 30.2499634 262.15982247 35.03022851 262.18286133 39.81079102 C262.19942824 42.33367126 262.22672751 44.85650443 262.26489258 47.37915039 C262.31959557 51.01261804 262.34152617 54.64498488 262.35620117 58.27880859 C262.37887054 59.40603836 262.40153992 60.53326813 262.42489624 61.69465637 C262.40375717 69.51428291 262.40375717 69.51428291 259.48754883 73.47875977 C253.69689315 77.43061334 247.28798791 76.55007176 240.52026367 76.60302734 C239.29629883 76.63203125 238.07233398 76.66103516 236.8112793 76.69091797 C225.52283572 76.77071665 225.52283572 76.77071665 220.83276367 72.29052734 C218.83276367 69.29052734 218.83276367 69.29052734 218.83276367 65.29052734 C180.22276367 65.29052734 141.61276367 65.29052734 101.83276367 65.29052734 C101.83276367 72.22052734 101.83276367 79.15052734 101.83276367 86.29052734 C106.87456752 86.09376902 106.87456752 86.09376902 111.91357422 85.84008789 C116.00620908 85.75988073 117.44369854 85.98369526 120.78979492 88.62255859 C124.12626776 92.9797497 123.96769322 96.76197014 123.93041992 102.02099609 C123.9282975 103.14662712 123.9282975 103.14662712 123.9261322 104.29499817 C123.92053927 106.68938195 123.90798811 109.08367187 123.89526367 111.47802734 C123.89024776 113.10237495 123.88568501 114.72672402 123.8815918 116.35107422 C123.87057216 120.33092803 123.85331241 124.31071178 123.83276367 128.29052734 C124.79045654 128.27602539 125.74814941 128.26152344 126.73486328 128.24658203 C127.99306885 128.23530273 129.25127441 128.22402344 130.54760742 128.21240234 C131.79405029 128.19790039 133.04049316 128.18339844 134.32470703 128.16845703 C140.90113134 128.39729774 146.12446477 130.58222844 150.83276367 135.29052734 C154.47183439 140.5524269 155.9553543 145.04984134 155.96419144 151.38311386 C155.96803258 152.41722955 155.97187373 153.45134525 155.97583127 154.51679778 C155.97496479 155.65141015 155.97409831 156.78602252 155.97320557 157.95501709 C155.97617669 159.16152176 155.97914781 160.36802643 155.98220897 161.61109185 C155.98938945 164.96149113 155.9920683 168.31183912 155.99280643 171.66224241 C155.99465773 175.27517998 156.00220546 178.88810645 156.00894165 182.5010376 C156.02252246 190.40191082 156.02854929 198.30277897 156.03295231 206.20366192 C156.03571515 211.13724309 156.03995258 216.07082231 156.04445648 221.00440216 C156.05664881 234.66472628 156.0669482 248.32504883 156.07033157 261.98537827 C156.07066092 263.29676819 156.07066092 263.29676819 156.07099693 264.63465084 C156.0712152 265.51099937 156.07143348 266.3873479 156.07165837 267.29025245 C156.07210184 269.06606023 156.0725484 270.841868 156.07299805 272.61767578 C156.07333019 273.93896801 156.07333019 273.93896801 156.07366905 275.286953 C156.07761689 289.55940819 156.09507065 303.83181232 156.11835757 318.10424778 C156.14207428 332.75841589 156.15453357 347.41255838 156.15569949 362.066746 C156.15661607 370.29417721 156.16236409 378.52154189 156.1805191 386.74895477 C156.1959244 393.75493675 156.20103803 400.76083162 156.192781 407.76682732 C156.188876 411.34048207 156.1897966 414.91396146 156.20383835 418.4875946 C156.21893226 422.3645063 156.21070626 426.2411716 156.20025635 430.11810303 C156.21234095 431.80663725 156.21234095 431.80663725 156.22466969 433.52928329 C156.17169938 441.9255315 155.03463315 449.08865787 148.83276367 455.29052734 C142.49807975 459.6715237 137.35850967 460.43955994 129.81280518 460.43096924 C128.99832153 460.43394036 128.18383789 460.43691148 127.34467292 460.43997264 C124.61185164 460.44865337 121.87907421 460.45016736 119.14624023 460.45166016 C117.18821113 460.45628878 115.23018292 460.4613135 113.27215576 460.46670532 C107.94971151 460.47982724 102.62727987 460.48627391 97.30482197 460.49071598 C93.97933342 460.4936471 90.65384832 460.497752 87.32836151 460.50222015 C76.92301456 460.51589468 66.51767549 460.5255615 56.11232018 460.52942204 C44.10216303 460.53390251 32.0921197 460.55145009 20.08199716 460.58042264 C10.79778951 460.60204164 1.51361388 460.61212645 -7.77061868 460.61346316 C-13.31528107 460.61451105 -18.85983646 460.6204155 -24.40447235 460.63828278 C-29.62145835 460.6547671 -34.83825694 460.65691714 -40.0552597 460.64814377 C-41.96762596 460.64737359 -43.8800023 460.65171363 -45.79234314 460.66160202 C-48.4082321 460.67433261 -51.02345843 460.66843876 -53.63934326 460.65802002 C-54.76758093 460.67010463 -54.76758093 460.67010463 -55.91861129 460.68243337 C-63.24076426 460.61448648 -69.86813913 458.58962455 -75.16723633 453.29052734 C-78.80630705 448.02862778 -80.28982696 443.53121335 -80.29866409 437.19794083 C-80.30250524 436.16382513 -80.30634638 435.12970944 -80.31030393 434.06425691 C-80.30943744 432.92964453 -80.30857096 431.79503216 -80.30767822 430.6260376 C-80.31064934 429.41953293 -80.31362047 428.21302825 -80.31668162 426.96996284 C-80.32386211 423.61956356 -80.32654096 420.26921556 -80.32727909 416.91881227 C-80.32913039 413.30587471 -80.33667811 409.69294824 -80.34341431 406.08001709 C-80.35699511 398.17914387 -80.36302195 390.27827572 -80.36742496 382.37739277 C-80.37018781 377.44381159 -80.37442524 372.51023238 -80.37892914 367.57665253 C-80.39112146 353.91632841 -80.40142086 340.25600586 -80.40480423 326.59567642 C-80.4050238 325.72141647 -80.40524336 324.84715652 -80.40546958 323.94640385 C-80.405797 322.63188105 -80.405797 322.63188105 -80.40613103 321.29080224 C-80.40657449 319.51499446 -80.40702106 317.73918668 -80.4074707 315.96337891 C-80.40769213 315.08251742 -80.40791356 314.20165594 -80.4081417 313.29410169 C-80.41208955 299.0216465 -80.42954331 284.74924237 -80.45283023 270.47680691 C-80.47654693 255.8226388 -80.48900623 241.16849631 -80.49017215 226.51430869 C-80.49108873 218.28687748 -80.49683675 210.0595128 -80.51499176 201.83209991 C-80.53039705 194.82611794 -80.53551069 187.82022306 -80.52725366 180.81422737 C-80.52334866 177.24057262 -80.52426926 173.66709323 -80.538311 170.09346008 C-80.55340491 166.21654839 -80.54517891 162.33988309 -80.534729 158.46295166 C-80.54278541 157.33726218 -80.55084181 156.21157269 -80.55914235 155.0517714 C-80.50617204 146.65552319 -79.3691058 139.49239682 -73.16723633 133.29052734 C-67.02296193 129.04121608 -62.28926566 128.15976781 -54.91723633 128.22802734 C-53.02231445 128.2415625 -53.02231445 128.2415625 -51.08911133 128.25537109 C-49.6427832 128.27277344 -49.6427832 128.27277344 -48.16723633 128.29052734 C-48.18294678 127.28675049 -48.19865723 126.28297363 -48.21484375 125.2487793 C-48.26928746 121.5122078 -48.30363859 117.77567113 -48.33203125 114.03881836 C-48.34708508 112.42384946 -48.36753281 110.80892121 -48.39355469 109.1940918 C-48.43008919 106.86806179 -48.44699647 104.54257393 -48.46020508 102.21630859 C-48.47568893 101.49840652 -48.49117279 100.78050446 -48.50712585 100.04084778 C-48.50861372 95.57365259 -47.87868007 92.85145367 -45.16723633 89.29052734 C-44.80667648 88.75418167 -44.44611664 88.217836 -44.07463074 87.66523743 C-41.00290008 85.45135912 -37.61278006 85.97928175 -33.97973633 86.10302734 C-32.85535156 86.12333008 -32.85535156 86.12333008 -31.70825195 86.14404297 C-29.86093866 86.17934195 -28.01399567 86.23314817 -26.16723633 86.29052734 C-26.18389091 84.98293457 -26.18389091 84.98293457 -26.20088196 83.64892578 C-26.30130767 75.41046345 -26.3773145 67.1722084 -26.42629719 58.93327332 C-26.45232704 54.6980872 -26.48760244 50.4634093 -26.54443359 46.22851562 C-26.59899187 42.13711595 -26.62870655 38.04620331 -26.64162254 33.95446777 C-26.65082 32.39799336 -26.6687806 30.84154387 -26.69588661 29.28527832 C-26.8555589 19.732923 -26.55106263 12.89459306 -19.72407532 5.78833008 C-13.81684224 0.36153885 -7.59395112 -0.00816232 0 0 Z " fill="#86CEFD" transform="translate(122.167236328125,41.70947265625)"/>
<path d="M0 0 C77.22 0 154.44 0 234 0 C234 70.29 234 140.58 234 213 C156.78 213 79.56 213 0 213 C0 142.71 0 72.42 0 0 Z " fill="#E1EEF8" transform="translate(43,235)"/>
<path d="M0 0 C1.35488274 -0.01007584 1.35488274 -0.01007584 2.73713684 -0.02035522 C5.71307936 -0.03929981 8.68879591 -0.0432577 11.66479492 -0.04541016 C13.742163 -0.05184073 15.81953017 -0.05856928 17.89689636 -0.06558228 C22.2486684 -0.07754633 26.60036111 -0.08126401 30.95214844 -0.08007812 C36.51371651 -0.07987503 42.07477304 -0.10717132 47.63621998 -0.14162254 C51.92663383 -0.16391938 56.21692513 -0.1679148 60.50739098 -0.16685867 C62.55700123 -0.16921065 64.60661508 -0.17801136 66.65616798 -0.19352341 C69.53025195 -0.21323877 72.40324009 -0.20732344 75.27734375 -0.1953125 C76.53312225 -0.21217102 76.53312225 -0.21217102 77.81427002 -0.22937012 C84.49589605 -0.15883175 90.7432691 1.38253213 95.72317219 6.06987953 C100.71168115 11.61801105 101.83276367 14.49202419 101.83276367 22.29052734 C140.44276367 22.29052734 179.05276367 22.29052734 218.83276367 22.29052734 C219.16276367 20.31052734 219.49276367 18.33052734 219.83276367 16.29052734 C222.65573249 12.57259559 224.3150881 11.51165667 228.94604492 10.83691406 C232.75471308 10.65174182 236.52041351 10.65840397 240.33276367 10.72802734 C241.63858398 10.71707031 242.9444043 10.70611328 244.28979492 10.69482422 C251.19256132 10.74770547 255.2511007 10.87686757 260.83276367 15.29052734 C262.07918254 17.78336508 261.98672602 19.51393547 262.02563477 22.3034668 C262.04972916 23.8706823 262.04972916 23.8706823 262.0743103 25.46955872 C262.11870173 30.2499634 262.15982247 35.03022851 262.18286133 39.81079102 C262.19942824 42.33367126 262.22672751 44.85650443 262.26489258 47.37915039 C262.31959557 51.01261804 262.34152617 54.64498488 262.35620117 58.27880859 C262.37887054 59.40603836 262.40153992 60.53326813 262.42489624 61.69465637 C262.40375717 69.51428291 262.40375717 69.51428291 259.48754883 73.47875977 C253.69689315 77.43061334 247.28798791 76.55007176 240.52026367 76.60302734 C239.29629883 76.63203125 238.07233398 76.66103516 236.8112793 76.69091797 C225.52283572 76.77071665 225.52283572 76.77071665 220.83276367 72.29052734 C218.83276367 69.29052734 218.83276367 69.29052734 218.83276367 65.29052734 C180.22276367 65.29052734 141.61276367 65.29052734 101.83276367 65.29052734 C101.83276367 72.22052734 101.83276367 79.15052734 101.83276367 86.29052734 C59.59276367 86.29052734 17.35276367 86.29052734 -26.16723633 86.29052734 C-26.27036133 74.74052734 -26.37348633 63.19052734 -26.47973633 51.29052734 C-26.54801636 45.83972656 -26.54801636 45.83972656 -26.61767578 40.27880859 C-26.64025879 35.80810547 -26.64025879 35.80810547 -26.64445496 33.70874023 C-26.65208441 32.25651366 -26.66956909 30.80431685 -26.69511414 29.35229492 C-26.85501447 19.77654897 -26.5693339 12.91361177 -19.72407532 5.78833008 C-13.81684224 0.36153885 -7.59395112 -0.00816232 0 0 Z " fill="#FEA464" transform="translate(122.167236328125,41.70947265625)"/>
<path d="M0 0 C77.88 0 155.76 0 236 0 C236 39.28571429 236 39.28571429 231.25 46.75 C225.73899516 52.26100484 219.95575201 54.10096544 212.28634858 54.1430676 C211.52526725 54.14220112 210.76418591 54.14133463 209.9800415 54.14044189 C209.16555786 54.14341302 208.35107421 54.14638414 207.51190925 54.1494453 C204.77908797 54.15812602 202.04631054 54.15964002 199.31347656 54.16113281 C197.35544745 54.16576144 195.39741925 54.17078616 193.43939209 54.17617798 C188.11694784 54.1892999 182.7945162 54.19574656 177.4720583 54.20018864 C174.14656975 54.20311976 170.82108465 54.20722465 167.49559784 54.21169281 C157.09025089 54.22536733 146.68491182 54.23503415 136.27955651 54.2388947 C124.26939936 54.24337516 112.25935603 54.26092275 100.24923348 54.2898953 C90.96502583 54.3115143 81.6808502 54.3215991 72.39661765 54.32293582 C66.85195526 54.32398371 61.30739987 54.32988816 55.76276398 54.34775543 C50.54577798 54.36423976 45.32897939 54.36638979 40.11197662 54.35761642 C38.19961037 54.35684624 36.28723403 54.36118628 34.37489319 54.37107468 C31.75900423 54.38380526 29.1437779 54.37791142 26.52789307 54.36749268 C25.77573462 54.37554908 25.02357617 54.38360548 24.24862504 54.39190602 C16.92647207 54.32395914 10.2990972 52.2990972 5 47 C-4.81243069 32.81175562 0 18.34572823 0 0 Z " fill="#58A8FF" transform="translate(42,448)"/>
<path d="M0 0 C1.30582031 -0.01095703 2.61164063 -0.02191406 3.95703125 -0.03320312 C10.85979764 0.01967813 14.91833703 0.14884023 20.5 4.5625 C21.74641887 7.05533774 21.65396235 8.78590813 21.69287109 11.57543945 C21.70893402 12.62024979 21.72499695 13.66506012 21.74154663 14.74153137 C21.78593806 19.52193606 21.8270588 24.30220116 21.85009766 29.08276367 C21.86666456 31.60564392 21.89396384 34.12847709 21.93212891 36.65112305 C21.98683189 40.2845907 22.00876249 43.91695753 22.0234375 47.55078125 C22.04610687 48.67801102 22.06877625 49.80524078 22.09213257 50.96662903 C22.0709935 58.78625556 22.0709935 58.78625556 19.15478516 62.75073242 C13.36412948 66.702586 6.95522424 65.82204441 0.1875 65.875 C-1.03646484 65.90400391 -2.26042969 65.93300781 -3.52148438 65.96289062 C-14.80992796 66.0426893 -14.80992796 66.0426893 -19.5 61.5625 C-21.5 58.5625 -21.5 58.5625 -21.5 54.5625 C-60.11 54.5625 -98.72 54.5625 -138.5 54.5625 C-138.5 40.3725 -138.5 26.1825 -138.5 11.5625 C-99.89 11.5625 -61.28 11.5625 -21.5 11.5625 C-21.17 9.5825 -20.84 7.6025 -20.5 5.5625 C-15.28203468 -1.30971157 -8.0131929 -0.14634163 0 0 Z " fill="#E1EEF8" transform="translate(362.5,52.4375)"/>
<path d="M0 0 C0.97860573 -0.00913666 0.97860573 -0.00913666 1.97698128 -0.01845789 C4.16729476 -0.03513256 6.35702973 -0.03030598 8.5473938 -0.0255127 C10.11606452 -0.03285054 11.68472982 -0.04143593 13.25338745 -0.05117798 C17.51791996 -0.07343449 21.78225948 -0.07632256 26.0468421 -0.07443047 C29.60552891 -0.07431094 33.16417457 -0.08286793 36.72284997 -0.09120798 C45.11849394 -0.11045748 53.51403849 -0.11332048 61.90969849 -0.10656738 C70.57296816 -0.09992724 79.23581199 -0.12278616 87.89899528 -0.15988111 C95.33434154 -0.19056426 102.76955072 -0.2019396 110.20495903 -0.1980443 C114.64689011 -0.1959751 119.08848998 -0.20148181 123.53036118 -0.22593689 C127.70839536 -0.24817841 131.88573694 -0.24634835 136.06377411 -0.22600937 C137.59683646 -0.2225945 139.12994519 -0.22770906 140.66294479 -0.24199295 C142.75722553 -0.26015936 144.84915004 -0.24746122 146.94335938 -0.22705078 C148.70044377 -0.22811954 148.70044377 -0.22811954 150.49302483 -0.2292099 C154.54684267 0.58480569 156.02984053 2.22469238 158.59866333 5.39440918 C159.80454137 9.0120433 159.74198718 12.32451468 159.73147583 16.08972168 C159.73243256 16.83777069 159.73338928 17.5858197 159.734375 18.35653687 C159.73505476 19.9350798 159.7332147 21.51362554 159.72903442 23.09216309 C159.72366823 25.51719373 159.72899397 27.94204043 159.73538208 30.36706543 C159.73472156 31.89961792 159.73344093 33.4321703 159.73147583 34.96472168 C159.73350006 35.69385773 159.73552429 36.42299377 159.73760986 37.17422485 C159.71362513 42.27944738 159.71362513 42.27944738 158.59866333 43.39440918 C156.41137409 43.4935913 154.2208172 43.52073316 152.03128052 43.52139282 C151.33692776 43.52295281 150.642575 43.5245128 149.92718124 43.52612007 C147.58327915 43.53013229 145.23944099 43.52693958 142.89553833 43.52380371 C141.22215741 43.52515765 139.54877678 43.52693755 137.87539673 43.52911377 C133.31767553 43.53368894 128.75997686 43.5318982 124.20225525 43.52873468 C119.44344012 43.52621151 114.68462697 43.5285485 109.92581177 43.53012085 C101.93264416 43.53194267 93.93948578 43.52953591 85.94631958 43.52478027 C76.69128047 43.51933763 67.43626339 43.52110028 58.18122482 43.52660668 C50.25004258 43.53113745 42.31886699 43.53178853 34.38768387 43.52916801 C29.64416391 43.52760504 24.90065431 43.52741202 20.15713501 43.5307045 C15.6986538 43.5335827 11.24020113 43.53160847 6.78172302 43.52581024 C5.14055936 43.52448237 3.49939332 43.52487722 1.85823059 43.52707291 C-0.37253053 43.52978335 -2.60319874 43.52640462 -4.83395386 43.52139282 C-6.71108063 43.52082728 -6.71108063 43.52082728 -8.62612915 43.52025032 C-11.40133667 43.39440918 -11.40133667 43.39440918 -12.40133667 42.39440918 C-12.52709105 39.93190986 -12.58997552 37.49898417 -12.60446167 35.03503418 C-12.61016174 34.29364197 -12.61586182 33.55224976 -12.62173462 32.78839111 C-12.63120052 31.21469557 -12.63772489 29.64098006 -12.64157104 28.06726074 C-12.65124102 25.66814031 -12.68223298 23.2698895 -12.71383667 20.87097168 C-12.72037018 19.34233094 -12.72561928 17.81368406 -12.72946167 16.28503418 C-12.74180847 15.57026917 -12.75415527 14.85550415 -12.76687622 14.11907959 C-12.74714906 9.66828773 -12.09817766 6.94438088 -9.40133667 3.39440918 C-9.00398252 2.86228569 -8.60662838 2.3301622 -8.1972332 1.78191376 C-5.51632412 -0.28934901 -3.3569844 0.01069268 0 0 Z " fill="#4795EA" transform="translate(86.40133666992188,127.6055908203125)"/>
<path d="M0 0 C0.71788952 -0.00453111 1.43577904 -0.00906223 2.17542279 -0.01373065 C4.58129819 -0.02639237 6.98694774 -0.02475316 9.39285278 -0.02310181 C11.11767875 -0.02908595 12.84250203 -0.03589123 14.56732178 -0.04345703 C19.25330305 -0.06113567 23.93921129 -0.06581319 28.62522268 -0.0670886 C32.53677236 -0.06898737 36.44830501 -0.07634464 40.35984814 -0.08343279 C49.58830637 -0.09972135 58.81672558 -0.10460131 68.04519653 -0.10317993 C77.56555928 -0.10197828 87.08569539 -0.12308368 96.60600078 -0.15466726 C104.77936682 -0.18081635 112.95265878 -0.19154781 121.12606633 -0.19026911 C126.00783001 -0.18975909 130.88939232 -0.19546473 135.77111435 -0.21662521 C140.36273275 -0.23598463 144.95395718 -0.23614786 149.54558945 -0.22159195 C151.22981338 -0.21949991 152.91406183 -0.22422828 154.59824371 -0.23631287 C156.89978047 -0.25175624 159.19995725 -0.24246471 161.50146484 -0.22705078 C162.78862333 -0.22814032 164.07578182 -0.22922985 165.40194511 -0.2303524 C170.06822744 0.43792305 173.31572371 2.36586962 176.31521606 6.01742554 C177.20266429 9.56721845 176.95993067 12.81529793 175.87771606 16.26742554 C173.68513798 18.90976323 171.94431988 20.73412363 168.87771606 22.26742554 C166.58559352 22.37073376 164.290378 22.40698526 161.99594116 22.41459656 C161.27976049 22.41827325 160.56357982 22.42194993 159.82569671 22.42573804 C157.41366736 22.43679582 155.00168106 22.44062225 152.58963013 22.44442749 C150.86510073 22.45069058 149.14057269 22.45733724 147.41604614 22.46434021 C142.72170125 22.48176472 138.02736655 22.49230601 133.33299732 22.50054574 C130.40118291 22.50569302 127.46937168 22.51176889 124.53755951 22.51805687 C115.36774017 22.53711334 106.19792891 22.55134328 97.02809358 22.55966884 C86.43734438 22.56944274 75.84680411 22.59576434 65.25612855 22.63616973 C57.07431937 22.6663153 48.89257012 22.68113625 40.71070647 22.68444985 C35.82219289 22.6868022 30.93390239 22.69578651 26.0454483 22.72091103 C21.44566643 22.74416939 16.84625485 22.74843402 12.24642944 22.73814964 C10.55897542 22.73765362 8.87150331 22.74399366 7.18410492 22.75770569 C4.87810103 22.77539465 2.57343037 22.76833441 0.26742554 22.75517273 C-1.02233059 22.75756108 -2.31208672 22.75994944 -3.64092636 22.76241016 C-7.76805755 22.17560848 -9.90425173 20.87387435 -13.12228394 18.26742554 C-15.5836964 14.57530684 -15.80878601 11.55387749 -15.12228394 7.26742554 C-11.20774594 0.83639884 -7.23994338 0.01886346 0 0 Z " fill="#B5CEE1" transform="translate(79.12228393554688,340.7325744628906)"/>
<path d="M0 0 C2.01746506 -0.01715449 4.03326515 -0.06103269 6.05029297 -0.10522461 C7.97035156 -0.11779297 7.97035156 -0.11779297 9.92919922 -0.13061523 C11.68538574 -0.15248901 11.68538574 -0.15248901 13.47705078 -0.17480469 C17.48591948 0.39413311 19.64597654 1.79140007 22.78857422 4.29516602 C24.03499309 6.78800375 23.94253657 8.51857414 23.98144531 11.30810547 C23.99750824 12.3529158 24.01357117 13.39772614 24.03012085 14.47419739 C24.07451228 19.25460207 24.11563302 24.03486718 24.13867188 28.81542969 C24.15523878 31.33830993 24.18253805 33.86114311 24.22070312 36.38378906 C24.27540611 40.01725671 24.29733671 43.64962355 24.31201172 47.28344727 C24.33468109 48.41067703 24.35735046 49.5379068 24.38070679 50.69929504 C24.35956772 58.51892158 24.35956772 58.51892158 21.44335938 62.48339844 C15.6527037 66.43525201 9.24379845 65.55471043 2.47607422 65.60766602 C1.25210937 65.63666992 0.02814453 65.66567383 -1.23291016 65.69555664 C-12.52135374 65.77535532 -12.52135374 65.77535532 -17.21142578 61.29516602 C-19.37034006 58.0567946 -19.47260114 57.11364177 -19.51782227 53.36816406 C-19.53380966 52.36669846 -19.54979706 51.36523285 -19.56626892 50.3334198 C-19.57163162 49.25216324 -19.57699432 48.17090668 -19.58251953 47.05688477 C-19.59606224 45.38659966 -19.59606224 45.38659966 -19.60987854 43.68257141 C-19.62439564 41.32470392 -19.63327138 38.96679601 -19.63696289 36.60888672 C-19.64884592 33.00687424 -19.69800903 29.40658178 -19.74853516 25.80493164 C-19.75800076 23.51392438 -19.76523514 21.22290659 -19.77001953 18.93188477 C-19.78955185 17.8567009 -19.80908417 16.78151703 -19.82920837 15.67375183 C-19.77896893 7.31731387 -19.77896893 7.31731387 -16.80151367 3.63037109 C-11.74433586 -0.92914496 -6.56835145 0.03889887 0 0 Z " fill="#B4CDE1" transform="translate(360.21142578125,52.704833984375)"/>
<path d="M0 0 C7.26 0 14.52 0 22 0 C22 6.93 22 13.86 22 21 C28.93 21 35.86 21 43 21 C43 28.26 43 35.52 43 43 C36.07 43 29.14 43 22 43 C22 49.93 22 56.86 22 64 C14.74 64 7.48 64 0 64 C0 57.07 0 50.14 0 43 C-6.93 43 -13.86 43 -21 43 C-21 35.74 -21 28.48 -21 21 C-14.07 21 -7.14 21 0 21 C0 14.07 0 7.14 0 0 Z " fill="#FEB46C" transform="translate(85,256)"/>
<path d="M0 0 C0.70412521 -0.0065712 1.40825043 -0.0131424 2.13371277 -0.01991272 C4.47423397 -0.03969361 6.81469079 -0.05132034 9.15527344 -0.0612793 C10.35260227 -0.06739259 10.35260227 -0.06739259 11.57411957 -0.07362938 C15.80087528 -0.09451298 20.02759833 -0.10880335 24.25439453 -0.11816406 C28.62041001 -0.12921881 32.98591443 -0.16360087 37.35174942 -0.20333576 C40.70781396 -0.22949099 44.06375674 -0.23785502 47.41991425 -0.24144554 C49.02906486 -0.24631628 50.63820986 -0.25794423 52.24726105 -0.27648354 C54.50249026 -0.30084754 56.75639806 -0.29991547 59.01171875 -0.29296875 C60.29443665 -0.29883499 61.57715454 -0.30470123 62.89874268 -0.31074524 C66.83791515 0.26007297 68.47000135 1.40032836 71.26464844 4.17700195 C72.88005716 7.40781941 72.85427593 10.68459293 72.26464844 14.17700195 C70.30807647 17.70487496 68.15609781 19.87985216 64.26464844 21.17700195 C62.04297013 21.29182155 59.81802538 21.34640026 57.59350586 21.36987305 C56.58318047 21.38213928 56.58318047 21.38213928 55.55244446 21.39465332 C53.32501097 21.41945079 51.09764097 21.43600853 48.87011719 21.45043945 C47.72705832 21.45842497 47.72705832 21.45842497 46.56090736 21.46657181 C42.52751294 21.49327862 38.4941492 21.51266152 34.46069336 21.52709961 C31.12675545 21.54043959 27.7934295 21.56829555 24.4597168 21.60913086 C20.42966824 21.65849166 16.40017474 21.68322445 12.36983681 21.69032669 C10.83684541 21.69703141 9.30386602 21.71223343 7.77104759 21.7362175 C5.62137058 21.76793518 3.47382537 21.76789774 1.32397461 21.76049805 C-0.50778069 21.77262833 -0.50778069 21.77262833 -2.37654114 21.78500366 C-6.86925091 20.97174692 -8.50976925 19.36227129 -11.73535156 16.17700195 C-13.34265149 12.96240209 -13.35466011 9.65312092 -12.73535156 6.17700195 C-10.29785156 3.23950195 -10.29785156 3.23950195 -7.73535156 1.17700195 C-5.84060549 -0.71774412 -2.51701447 0.01936485 0 0 Z " fill="#B4CDE1" transform="translate(76.7353515625,394.822998046875)"/>
<path d="M0 0 C0.67501053 -0.0049649 1.35002106 -0.00992981 2.04548645 -0.01504517 C4.28318292 -0.02967416 6.52080845 -0.03647056 8.75854492 -0.04199219 C10.31312563 -0.04774377 11.86770632 -0.0535015 13.42228699 -0.05926514 C16.68484834 -0.06977772 19.94738503 -0.07561845 23.20996094 -0.07910156 C27.38641071 -0.0845818 31.56253372 -0.10859842 35.73888111 -0.13707352 C38.95168502 -0.15571839 42.16441059 -0.16090651 45.37726402 -0.16243744 C46.91662059 -0.16546118 48.45597587 -0.17348034 49.99527931 -0.18662262 C52.15205166 -0.20371968 54.30803072 -0.20179426 56.46484375 -0.1953125 C57.69125076 -0.19895813 58.91765778 -0.20260376 60.18122864 -0.20635986 C64.74755215 0.31072582 67.33743308 1.89053879 70.30151367 5.34863281 C71.59325612 8.57798892 71.60459076 10.69122931 71.33666992 14.09863281 C69.90274262 17.34804748 67.38499539 19.3285295 64.42651367 21.16113281 C61.00523376 21.7893219 61.00523376 21.7893219 57.21533203 21.79223633 C56.52023026 21.79939163 55.82512848 21.80654694 55.10896301 21.81391907 C52.82741149 21.83073153 50.54784573 21.81145277 48.26635742 21.79003906 C46.67265155 21.79086837 45.07894577 21.79333009 43.48524475 21.79734802 C40.15217207 21.80020076 36.81977335 21.78555548 33.48681641 21.75805664 C29.22056291 21.72394616 24.95551176 21.73000579 20.6892004 21.74871922 C17.40082321 21.75930052 14.11272455 21.75034175 10.82437325 21.7353344 C9.25155019 21.73016224 7.67869794 21.73062266 6.10587883 21.73687935 C3.90605225 21.74234673 1.70793265 21.72191273 -0.49169922 21.69458008 C-1.7415712 21.6883815 -2.99144318 21.68218292 -4.27919006 21.67579651 C-8.1546283 21.07034174 -9.80881595 19.88898842 -12.57348633 17.16113281 C-14.30980269 13.68850008 -14.17539035 9.94920268 -13.57348633 6.16113281 C-9.31123762 0.77723971 -6.64170068 0.03704967 0 0 Z " fill="#B4CDE1" transform="translate(184.573486328125,255.8388671875)"/>
<path d="M0 0 C0.69291138 -0.00817749 1.38582275 -0.01635498 2.09973145 -0.02478027 C4.39753353 -0.04963287 6.69527376 -0.06615143 8.99316406 -0.08056641 C9.7781855 -0.08589008 10.56320694 -0.09121376 11.37201691 -0.09669876 C15.5286003 -0.1234321 19.68515366 -0.14280478 23.84179688 -0.15722656 C28.1304593 -0.17385872 32.4183509 -0.21862295 36.70672226 -0.26959801 C40.00792294 -0.30329653 43.30894142 -0.31480686 46.61029816 -0.32045364 C48.19073617 -0.32716094 49.77116241 -0.34236967 51.3514328 -0.36634445 C53.56825515 -0.39805261 55.78300937 -0.3980256 58 -0.390625 C59.25971619 -0.39871185 60.51943237 -0.40679871 61.81732178 -0.41513062 C66.38001571 0.39095745 68.0020081 1.94956746 71.25878906 5.19287109 C72.44109514 7.8720883 72.51229851 10.28635576 72.25878906 13.19287109 C70.55015495 17.46445637 68.32516394 19.18847098 64.25878906 21.19287109 C61.03369141 21.57382202 61.03369141 21.57382202 57.34472656 21.58105469 C56.66927795 21.58631165 55.99382935 21.5915686 55.2979126 21.59698486 C53.07629936 21.6101348 50.85540895 21.60146518 48.63378906 21.59130859 C47.0834947 21.59333078 45.53320127 21.59624343 43.98291016 21.6000061 C40.73818887 21.60442265 37.49371581 21.59802016 34.24902344 21.58398438 C30.09614299 21.56689266 25.94384423 21.57673746 21.79098511 21.59470177 C18.59102011 21.60555783 15.39119234 21.60208495 12.19122314 21.59431839 C10.66025727 21.59232141 9.12927882 21.59475799 7.59832764 21.60175705 C5.456168 21.60940186 3.31494192 21.59772639 1.17285156 21.58105469 C-0.65318604 21.57747452 -0.65318604 21.57747452 -2.51611328 21.57382202 C-6.03347125 21.15834909 -7.90945739 20.27556537 -10.74121094 18.19287109 C-13.08234103 15.18284669 -13.15337701 11.91545567 -13.06933594 8.16162109 C-12.55068326 5.04970505 -10.95566319 3.3421924 -8.74121094 1.19287109 C-5.82916411 -0.26315232 -3.25266667 0.0332905 0 0 Z " fill="#B4CDE1" transform="translate(183.7412109375,298.80712890625)"/>
<path d="M0 0 C6.24152883 2.80207364 11.17972555 7.96971183 13.71484375 14.34765625 C14.61936734 21.54575979 14.5921135 27.83521099 10.12890625 33.76953125 C5.16522621 39.30910787 -0.39683572 41.77160876 -7.66015625 42.84765625 C-14.0355535 41.96829111 -20.03319971 39.2289992 -24.28515625 34.28515625 C-28.76503168 27.70533922 -29.20594657 22.28353985 -28.28515625 14.34765625 C-25.93931253 8.024953 -21.13245659 3.64793688 -15.4296875 0.23828125 C-10.65290268 -1.74552009 -4.91524817 -1.40315632 0 0 Z " fill="#FEB36A" transform="translate(231.28515625,384.65234375)"/>
<path d="M0 0 C0.82497482 -0.00807175 1.64994965 -0.01614349 2.49992371 -0.02445984 C4.24577747 -0.03828448 5.99165807 -0.04901388 7.73754883 -0.05688477 C10.39782342 -0.07408847 13.05685183 -0.11798648 15.71679688 -0.16210938 C17.41535547 -0.17223779 19.1139246 -0.18075343 20.8125 -0.1875 C21.60332474 -0.20500809 22.39414948 -0.22251617 23.2089386 -0.24055481 C28.46999608 -0.22005054 31.41723743 0.77644 35.60546875 4.23828125 C37.61089841 7.10723869 37.8718714 9.22529343 37.54296875 12.67578125 C37.49011719 13.41699219 37.43726563 14.15820312 37.3828125 14.921875 C36.19571343 18.45931093 34.53926655 19.93132312 31.60546875 22.23828125 C28.4357566 22.96135279 25.34547872 22.91615739 22.10546875 22.8671875 C20.73551758 22.87080544 20.73551758 22.87080544 19.33789062 22.87449646 C17.41141406 22.87351915 15.48490902 22.86015318 13.55859375 22.83520508 C10.61491201 22.80089133 7.67423286 22.81455278 4.73046875 22.83398438 C2.85545601 22.82708564 0.980451 22.81741302 -0.89453125 22.8046875 C-1.77173828 22.80964737 -2.64894531 22.81460724 -3.55273438 22.81971741 C-7.68403892 22.74035271 -9.85650912 22.57736172 -13.42578125 20.32788086 C-16.88466781 16.65667426 -16.78530636 13.60905674 -16.75 8.72265625 C-16.39453125 6.23828125 -16.39453125 6.23828125 -14.08203125 3.17578125 C-9.53607325 -0.10153731 -5.39987288 0.05005474 0 0 Z " fill="#FFB368" transform="translate(432.39453125,73.76171875)"/>
<path d="M0 0 C6.59447376 3.71107775 12.00510197 9.63889633 17.3125 14.9375 C18.50842773 16.09668945 18.50842773 16.09668945 19.72851562 17.27929688 C24.06745676 21.59634259 27.20311277 25.10120218 29 31 C28.90201481 35.89925942 27.32801643 38.4702856 24 42 C20.43650999 43.78174501 16.88091797 43.58638496 13 43 C6.55402682 39.45385244 1.31295582 33.61724132 -3.8125 28.4375 C-4.56208984 27.69564453 -5.31167969 26.95378906 -6.08398438 26.18945312 C-6.80521484 25.46564453 -7.52644531 24.74183594 -8.26953125 23.99609375 C-8.91510986 23.34825928 -9.56068848 22.7004248 -10.22583008 22.03295898 C-13.81459499 17.92071934 -15.62059691 14.60000924 -15.4296875 9 C-14.65395507 5.38931815 -12.60947818 3.54734775 -10 1 C-6.71947975 -0.64026013 -3.53339385 -0.64551252 0 0 Z " fill="#FFB368" transform="translate(420,117)"/>
<path d="M0 0 C3.30381513 2.40903187 4.6612769 4.02617109 6 7.875 C6 13.18256478 3.91879591 16.89430806 0.61157227 20.87426758 C-0.31083252 21.78845459 -1.2332373 22.7026416 -2.18359375 23.64453125 C-2.92875999 24.38832283 -2.92875999 24.38832283 -3.6889801 25.1471405 C-4.73233824 26.18449968 -5.78050981 27.21703831 -6.83325195 28.24487305 C-8.44029834 29.81523446 -10.03058648 31.40119016 -11.61914062 32.99023438 C-21.51036887 42.7862213 -21.51036887 42.7862213 -26.18359375 43.1875 C-30.55114354 42.8241683 -32.5736543 42.3480373 -36.0625 39.5 C-38.25881015 36.27874511 -38.88078923 33.27381381 -38.57373047 29.40283203 C-37.90351397 26.5959083 -36.97448046 25.40507846 -35.02734375 23.296875 C-34.39393066 22.6073877 -33.76051758 21.91790039 -33.10791016 21.20751953 C-29.38214078 17.30568878 -25.62581653 13.44146024 -21.8125 9.625 C-21.01908203 8.81933594 -20.22566406 8.01367188 -19.40820312 7.18359375 C-18.64056641 6.41402344 -17.87292969 5.64445312 -17.08203125 4.8515625 C-16.39343018 4.15885254 -15.7048291 3.46614258 -14.99536133 2.75244141 C-10.19272182 -1.46551361 -6.03229651 -1.65592453 0 0 Z " fill="#FFB368" transform="translate(443,11)"/>
</svg>
