<?xml version="1.0" encoding="UTF-8"?>
<svg version="1.1" xmlns="http://www.w3.org/2000/svg" width="512" height="512">
<path d="M0 0 C0.69419676 -0.00205263 1.38839352 -0.00410527 2.10362655 -0.0062201 C4.44710347 -0.01190801 6.79052195 -0.01043066 9.13400459 -0.00901413 C10.82419914 -0.01159673 12.51439307 -0.0146096 14.20458615 -0.01801753 C18.86280335 -0.02610297 23.52100516 -0.02787796 28.17922854 -0.028615 C33.19772745 -0.03046285 38.21621832 -0.03800876 43.2347126 -0.04475021 C54.21385828 -0.05834447 65.1930003 -0.0643598 76.172153 -0.06876087 C83.0235238 -0.07152114 89.8748932 -0.07575807 96.72626305 -0.08026505 C115.6845478 -0.09245856 134.64283141 -0.10275809 153.60112 -0.10614014 C155.42190616 -0.10646949 155.42190616 -0.10646949 157.27947588 -0.10680549 C159.10468649 -0.10713291 159.10468649 -0.10713291 160.96677005 -0.10746694 C163.43259994 -0.10791041 165.89842983 -0.10835697 168.36425972 -0.10880661 C169.58740372 -0.10902804 170.81054772 -0.10924947 172.07075669 -0.10947761 C191.90004174 -0.11342752 211.72929009 -0.13088706 231.55856095 -0.15416613 C251.90229479 -0.17785703 272.24601018 -0.19034094 292.58975804 -0.19150805 C304.01799844 -0.19242603 315.446191 -0.19820914 326.87441826 -0.21632767 C336.60374585 -0.23169808 346.33301082 -0.23686721 356.06234823 -0.22858956 C361.02898922 -0.22467234 365.99550399 -0.22566477 370.96212959 -0.23964691 C375.50575071 -0.2523216 380.04914994 -0.2512453 384.59277047 -0.2390562 C386.23946352 -0.237088 387.88617194 -0.24022903 389.53284334 -0.24890056 C391.76607424 -0.25991957 393.99851182 -0.25255801 396.23171997 -0.24050903 C397.47367783 -0.24110612 398.7156357 -0.24170321 399.99522865 -0.24231839 C404.83515754 0.31487248 407.32143495 2.08334685 410.49170113 5.69392776 C416.65309301 14.27586647 412.76915892 28.06602893 411.6318531 38.03187943 C411.45621383 39.61445451 411.28115534 41.19709414 411.10662216 42.77979159 C410.62824556 47.10252735 410.14169529 51.42430876 409.653741 55.74597239 C409.12729086 60.42164725 408.60852221 65.09817519 408.0887928 69.77460098 C407.18624607 77.8860076 406.27885966 85.996861 405.36816788 94.10735703 C404.04170409 105.92071165 402.72258906 117.73487806 401.40515637 129.54924282 C399.25438899 148.83487042 397.09767153 168.1198278 394.93725777 187.40437698 C392.86146926 205.93364298 390.78850362 224.46322103 388.71948433 242.99324417 C388.59314515 244.12472249 388.46680598 245.25620081 388.33663834 246.42196634 C387.82812661 250.97624885 387.31963747 255.53053388 386.8111777 260.08482219 C383.64699648 288.42638156 380.48110506 316.7677504 377.31031009 345.10857067 C377.08375352 347.13356426 376.85721536 349.15855992 376.6306958 351.18355766 C375.42698498 361.9439298 374.22166019 372.70411669 373.01206493 383.46382904 C372.58874213 387.23082248 372.16555845 390.99783152 371.74246407 394.76485062 C371.58708594 396.1479375 371.58708594 396.1479375 371.42856886 397.55896553 C370.04067284 409.91988981 368.67380437 422.28296154 367.3248027 434.64818978 C366.60631398 441.23295038 365.88149308 447.8170094 365.15506295 454.4008982 C364.57539316 459.65991387 364.00415632 464.91975138 363.4395605 470.1804055 C363.09311314 473.38906236 362.73844907 476.59677167 362.38148268 479.80427366 C362.21949876 481.27504841 362.06090642 482.74620159 361.90609495 484.21774858 C359.71530535 504.99923969 359.71530535 504.99923969 352.24170113 511.13142776 C349.74206137 512.38124764 348.06000628 512.25906444 345.26189137 512.26285553 C344.20204051 512.26669667 343.14218965 512.27053782 342.0502221 512.27449536 C340.8766101 512.27362888 339.7029981 512.2727624 338.4938221 512.27186966 C337.25424116 512.27484078 336.01466022 512.2778119 334.73751622 512.28087306 C331.2855943 512.28806941 327.83372212 512.29073362 324.38179624 512.29147053 C320.66322225 512.29331799 316.94465912 512.30086378 313.22609138 512.30760574 C305.08977144 512.32120235 296.95345641 512.32721587 288.81712699 512.3316164 C283.73918665 512.33437663 278.66124822 512.33861358 273.58330917 512.34312057 C259.53102901 512.35531507 245.47875038 512.36561397 231.42646503 512.36899567 C230.07672638 512.36932502 230.07672638 512.36932502 228.69972028 512.36966102 C227.79770959 512.3698793 226.8956989 512.37009757 225.96635455 512.37032247 C224.13845901 512.37076594 222.31056346 512.3712125 220.48266792 512.37166214 C219.57596359 512.37188357 218.66925925 512.372105 217.73507903 512.37233314 C203.04014646 512.37628193 188.34526347 512.3937376 173.65035006 512.41702166 C158.57250515 512.44072013 143.49468514 512.45319683 128.4168213 512.45436358 C119.94744724 512.4552812 111.47813774 512.4610553 103.00878143 512.4791832 C95.79735224 512.49456392 88.58600756 512.49971669 81.37456509 512.49144509 C77.69395876 512.48753133 74.01352274 512.48850333 70.33293724 512.50250244 C66.34539444 512.51753059 62.35809292 512.5093963 58.37053108 512.49892044 C57.20361125 512.50697685 56.03669141 512.51503325 54.83441037 512.52333379 C53.23289922 512.51344902 53.23289922 512.51344902 51.59903431 512.50336456 C50.21828867 512.5042602 50.21828867 512.5042602 48.80964917 512.50517392 C45.65824772 512.04651037 43.80954416 510.99232661 41.24170113 509.13142776 C37.36657684 503.74381597 36.43139854 499.01409824 35.75175667 492.50130081 C35.63580829 491.51347201 35.51985992 490.52564322 35.40039796 489.50788021 C34.99895583 486.05063474 34.62092343 482.59117726 34.24170113 479.13142776 C33.93460404 476.44520281 33.62618998 473.75915317 33.31647873 471.07323074 C32.31409604 462.34096212 31.34365448 453.60522766 30.37542808 444.86911678 C29.86771664 440.29261874 29.3574461 435.71640589 28.84750557 431.14015579 C27.96547042 423.2216407 27.08499767 415.30295318 26.20560837 407.38414383 C24.92561088 395.85801211 23.64306267 384.33216527 22.35992273 372.80638301 C20.26604142 353.99759785 18.17401968 335.18860636 16.08325386 316.37947464 C14.07358507 298.29996432 12.06331212 280.2205214 10.05200386 262.14119339 C9.92887445 261.03439936 9.80574503 259.92760534 9.67888442 258.7872721 C8.32391601 246.6077998 6.96877485 234.42834673 5.61353016 222.24890518 C5.24957172 218.97802788 4.88561342 215.70715057 4.52165542 212.43627322 C4.28102102 210.27371583 4.04038356 208.11115878 3.79974302 205.94860208 C2.40698367 193.43224844 1.01469227 180.91584298 -0.37659435 168.39932555 C-1.25032897 160.53894828 -2.12450415 152.67862007 -2.99885667 144.81831151 C-3.62658133 139.17450372 -4.25353409 133.53061083 -4.87992969 127.88665539 C-6.84810142 110.15684743 -8.83049938 92.42895697 -10.86857568 74.70703375 C-11.15965291 72.17384653 -11.44987626 69.64056313 -11.73974901 67.10723782 C-11.83320827 66.29052713 -11.92666752 65.47381644 -12.02295887 64.63235694 C-12.208332 63.01222841 -12.39366551 61.39209534 -12.57895789 59.77195758 C-13.10536587 55.1744746 -13.63785744 50.57775179 -14.17536119 45.98155355 C-14.42230201 43.86121003 -14.66617217 41.74053977 -14.90870655 39.61968803 C-15.19915327 37.0807521 -15.49441735 34.54235969 -15.79588902 32.00470924 C-17.99502125 12.56222691 -17.99502125 12.56222691 -14.94579887 6.56892776 C-14.22392387 5.76455276 -13.50204887 4.96017776 -12.75829887 4.13142776 C-12.24267387 3.53330276 -11.72704887 2.93517776 -11.19579887 2.31892776 C-7.85720127 -0.43904417 -4.11275319 0.00412887 0 0 Z M16.24170113 30.13142776 C16.95794757 43.28731187 16.95794757 43.28731187 18.16552925 56.37337112 C18.25185112 57.15292664 18.33817299 57.93248215 18.42711067 58.73566055 C18.70464791 61.23138155 18.98852501 63.72632709 19.27295113 66.22127151 C19.47119102 67.98577125 19.66914267 69.75030339 19.8668232 71.51486588 C20.2774756 75.17148351 20.69125158 78.82772929 21.10742378 82.48372269 C21.64109 87.1737941 22.16715251 91.86468274 22.69101906 96.55585766 C23.09654154 100.18058434 23.50574976 103.80488734 23.91612434 107.42906761 C24.11177925 109.16055495 24.30633527 110.89216684 24.49977303 112.62390327 C24.76875149 115.0265097 25.04262524 117.42850724 25.317873 119.83040237 C25.39686333 120.54456314 25.47585365 121.25872391 25.55723763 121.99452591 C25.96129059 125.6820598 25.96129059 125.6820598 27.24170113 129.13142776 C30.31919742 129.7550339 33.31938355 130.23418237 36.42920113 130.63142776 C37.41114449 130.75815872 38.39308784 130.88488968 39.40478706 131.01546097 C92.58283001 137.53270172 145.99459577 134.23008266 198.74585152 125.85945511 C253.46157187 117.1819482 310.08044179 113.96343947 363.94238472 129.56306839 C366.33233865 130.25140972 366.33233865 130.25140972 369.24170113 130.13142776 C371.08368607 120.04818161 372.26497161 109.92077023 373.40576363 99.74080276 C373.60453756 97.98348194 373.80346412 96.22617837 374.00253487 94.46889114 C374.41644258 90.80813972 374.82793848 87.14712709 375.23779488 83.48591995 C375.76156734 78.80962064 376.292313 74.13414246 376.82496262 69.45884705 C377.23644912 65.83883264 377.64378766 62.21836037 378.04994011 58.59774399 C378.24392047 56.87372468 378.43927393 55.14985926 378.63606834 53.42615891 C378.91074928 51.01554783 379.17970305 48.60436117 379.44726753 46.1929512 C379.52828209 45.49250687 379.60929665 44.79206253 379.69276619 44.07039261 C380.2093399 39.34141297 380.24170113 34.94961528 380.24170113 30.13142776 C260.12170113 30.13142776 140.00170113 30.13142776 16.24170113 30.13142776 Z " fill="#B6B9F7" transform="translate(57.75829887390137,-0.13142776489257813)"/>
<path d="M0 0 C0.69419676 -0.00205263 1.38839352 -0.00410527 2.10362655 -0.0062201 C4.44710347 -0.01190801 6.79052195 -0.01043066 9.13400459 -0.00901413 C10.82419914 -0.01159673 12.51439307 -0.0146096 14.20458615 -0.01801753 C18.86280335 -0.02610297 23.52100516 -0.02787796 28.17922854 -0.028615 C33.19772745 -0.03046285 38.21621832 -0.03800876 43.2347126 -0.04475021 C54.21385828 -0.05834447 65.1930003 -0.0643598 76.172153 -0.06876087 C83.0235238 -0.07152114 89.8748932 -0.07575807 96.72626305 -0.08026505 C115.6845478 -0.09245856 134.64283141 -0.10275809 153.60112 -0.10614014 C155.42190616 -0.10646949 155.42190616 -0.10646949 157.27947588 -0.10680549 C159.10468649 -0.10713291 159.10468649 -0.10713291 160.96677005 -0.10746694 C163.43259994 -0.10791041 165.89842983 -0.10835697 168.36425972 -0.10880661 C169.58740372 -0.10902804 170.81054772 -0.10924947 172.07075669 -0.10947761 C191.90004174 -0.11342752 211.72929009 -0.13088706 231.55856095 -0.15416613 C251.90229479 -0.17785703 272.24601018 -0.19034094 292.58975804 -0.19150805 C304.01799844 -0.19242603 315.446191 -0.19820914 326.87441826 -0.21632767 C336.60374585 -0.23169808 346.33301082 -0.23686721 356.06234823 -0.22858956 C361.02898922 -0.22467234 365.99550399 -0.22566477 370.96212959 -0.23964691 C375.50575071 -0.2523216 380.04914994 -0.2512453 384.59277047 -0.2390562 C386.23946352 -0.237088 387.88617194 -0.24022903 389.53284334 -0.24890056 C391.76607424 -0.25991957 393.99851182 -0.25255801 396.23171997 -0.24050903 C397.47367783 -0.24110612 398.7156357 -0.24170321 399.99522865 -0.24231839 C404.83515754 0.31487248 407.32143495 2.08334685 410.49170113 5.69392776 C416.65309301 14.27586647 412.76915892 28.06602893 411.6318531 38.03187943 C411.45621383 39.61445451 411.28115534 41.19709414 411.10662216 42.77979159 C410.62824556 47.10252735 410.14169529 51.42430876 409.653741 55.74597239 C409.12729086 60.42164725 408.60852221 65.09817519 408.0887928 69.77460098 C407.18624607 77.8860076 406.27885966 85.996861 405.36816788 94.10735703 C404.04170409 105.92071165 402.72258906 117.73487806 401.40515637 129.54924282 C399.25438899 148.83487042 397.09767153 168.1198278 394.93725777 187.40437698 C392.86146926 205.93364298 390.78850362 224.46322103 388.71948433 242.99324417 C388.59314515 244.12472249 388.46680598 245.25620081 388.33663834 246.42196634 C387.82812661 250.97624885 387.31963747 255.53053388 386.8111777 260.08482219 C383.64699648 288.42638156 380.48110506 316.7677504 377.31031009 345.10857067 C377.08375352 347.13356426 376.85721536 349.15855992 376.6306958 351.18355766 C375.42698498 361.9439298 374.22166019 372.70411669 373.01206493 383.46382904 C372.58874213 387.23082248 372.16555845 390.99783152 371.74246407 394.76485062 C371.58708594 396.1479375 371.58708594 396.1479375 371.42856886 397.55896553 C370.04067284 409.91988981 368.67380437 422.28296154 367.3248027 434.64818978 C366.60631398 441.23295038 365.88149308 447.8170094 365.15506295 454.4008982 C364.57539316 459.65991387 364.00415632 464.91975138 363.4395605 470.1804055 C363.09311314 473.38906236 362.73844907 476.59677167 362.38148268 479.80427366 C362.21949876 481.27504841 362.06090642 482.74620159 361.90609495 484.21774858 C359.71530535 504.99923969 359.71530535 504.99923969 352.24170113 511.13142776 C349.74206137 512.38124764 348.06000628 512.25906444 345.26189137 512.26285553 C344.20204051 512.26669667 343.14218965 512.27053782 342.0502221 512.27449536 C340.8766101 512.27362888 339.7029981 512.2727624 338.4938221 512.27186966 C337.25424116 512.27484078 336.01466022 512.2778119 334.73751622 512.28087306 C331.2855943 512.28806941 327.83372212 512.29073362 324.38179624 512.29147053 C320.66322225 512.29331799 316.94465912 512.30086378 313.22609138 512.30760574 C305.08977144 512.32120235 296.95345641 512.32721587 288.81712699 512.3316164 C283.73918665 512.33437663 278.66124822 512.33861358 273.58330917 512.34312057 C259.53102901 512.35531507 245.47875038 512.36561397 231.42646503 512.36899567 C230.07672638 512.36932502 230.07672638 512.36932502 228.69972028 512.36966102 C227.79770959 512.3698793 226.8956989 512.37009757 225.96635455 512.37032247 C224.13845901 512.37076594 222.31056346 512.3712125 220.48266792 512.37166214 C219.57596359 512.37188357 218.66925925 512.372105 217.73507903 512.37233314 C203.04014646 512.37628193 188.34526347 512.3937376 173.65035006 512.41702166 C158.57250515 512.44072013 143.49468514 512.45319683 128.4168213 512.45436358 C119.94744724 512.4552812 111.47813774 512.4610553 103.00878143 512.4791832 C95.79735224 512.49456392 88.58600756 512.49971669 81.37456509 512.49144509 C77.69395876 512.48753133 74.01352274 512.48850333 70.33293724 512.50250244 C66.34539444 512.51753059 62.35809292 512.5093963 58.37053108 512.49892044 C57.20361125 512.50697685 56.03669141 512.51503325 54.83441037 512.52333379 C53.23289922 512.51344902 53.23289922 512.51344902 51.59903431 512.50336456 C50.21828867 512.5042602 50.21828867 512.5042602 48.80964917 512.50517392 C45.65824772 512.04651037 43.80954416 510.99232661 41.24170113 509.13142776 C37.36657684 503.74381597 36.43139854 499.01409824 35.75175667 492.50130081 C35.63580829 491.51347201 35.51985992 490.52564322 35.40039796 489.50788021 C34.99895583 486.05063474 34.62092343 482.59117726 34.24170113 479.13142776 C33.93460404 476.44520281 33.62618998 473.75915317 33.31647873 471.07323074 C32.31409604 462.34096212 31.34365448 453.60522766 30.37542808 444.86911678 C29.86771664 440.29261874 29.3574461 435.71640589 28.84750557 431.14015579 C27.96547042 423.2216407 27.08499767 415.30295318 26.20560837 407.38414383 C24.92561088 395.85801211 23.64306267 384.33216527 22.35992273 372.80638301 C20.26604142 353.99759785 18.17401968 335.18860636 16.08325386 316.37947464 C14.07358507 298.29996432 12.06331212 280.2205214 10.05200386 262.14119339 C9.92887445 261.03439936 9.80574503 259.92760534 9.67888442 258.7872721 C8.32391601 246.6077998 6.96877485 234.42834673 5.61353016 222.24890518 C5.24957172 218.97802788 4.88561342 215.70715057 4.52165542 212.43627322 C4.28102102 210.27371583 4.04038356 208.11115878 3.79974302 205.94860208 C2.40698367 193.43224844 1.01469227 180.91584298 -0.37659435 168.39932555 C-1.25032897 160.53894828 -2.12450415 152.67862007 -2.99885667 144.81831151 C-3.62658133 139.17450372 -4.25353409 133.53061083 -4.87992969 127.88665539 C-6.84810142 110.15684743 -8.83049938 92.42895697 -10.86857568 74.70703375 C-11.15965291 72.17384653 -11.44987626 69.64056313 -11.73974901 67.10723782 C-11.83320827 66.29052713 -11.92666752 65.47381644 -12.02295887 64.63235694 C-12.208332 63.01222841 -12.39366551 61.39209534 -12.57895789 59.77195758 C-13.10536587 55.1744746 -13.63785744 50.57775179 -14.17536119 45.98155355 C-14.42230201 43.86121003 -14.66617217 41.74053977 -14.90870655 39.61968803 C-15.19915327 37.0807521 -15.49441735 34.54235969 -15.79588902 32.00470924 C-17.99502125 12.56222691 -17.99502125 12.56222691 -14.94579887 6.56892776 C-14.22392387 5.76455276 -13.50204887 4.96017776 -12.75829887 4.13142776 C-12.24267387 3.53330276 -11.72704887 2.93517776 -11.19579887 2.31892776 C-7.85720127 -0.43904417 -4.11275319 0.00412887 0 0 Z M16.24170113 30.13142776 C16.95393976 43.23540725 16.95393976 43.23540725 18.14966011 56.27132034 C18.23437569 57.04146973 18.31909126 57.81161911 18.40637398 58.60510635 C18.67948042 61.07919125 18.95859031 63.55255564 19.23779488 66.02595901 C19.43376743 67.79216409 19.62931973 69.55841584 19.82448006 71.32471085 C20.33451023 75.93191124 20.8495102 80.53854123 21.36584663 85.1450386 C22.18948049 92.5017542 23.00483285 99.8593937 23.8212471 107.21691322 C24.10235036 109.74454381 24.38525418 112.27196685 24.66856575 114.79935074 C25.77253349 124.6793779 26.79901472 134.5649628 27.77736092 144.45819473 C28.40988613 150.84956063 29.08126048 157.23672606 29.75732613 163.62361526 C29.89364449 164.91455597 30.02996284 166.20549667 30.17041206 167.53555679 C30.60967901 171.6926373 31.05052173 175.84954984 31.49170113 180.00642776 C31.56736809 180.71969349 31.64303505 181.43295921 31.72099495 182.16783905 C33.81708692 201.9227081 35.93342493 221.67527554 38.11609077 241.42079544 C38.3616676 243.64251952 38.60656892 245.8643184 38.85070992 248.08620071 C39.19210585 251.18879603 39.53672551 254.29101704 39.88232613 257.39314651 C39.97586372 258.24608795 40.06940132 259.09902939 40.16577339 259.97781754 C40.8019391 265.64299528 41.52352327 271.29423624 42.27374172 276.94521427 C43.85641564 288.88438932 45.25243651 300.83461164 46.53491592 312.80952835 C46.88199177 316.05022545 47.23227684 319.29056338 47.5832386 322.53084183 C48.20101164 328.23905327 48.81612979 333.94754687 49.43029976 339.656147 C50.41574898 348.81554848 51.4034526 357.97470312 52.39476013 367.13347244 C52.73642675 370.29643849 53.07577061 373.45964757 53.41493416 376.62288284 C53.62735232 378.58928375 53.83986675 380.55567426 54.05249214 382.52205276 C54.14344658 383.37641418 54.23440102 384.2307756 54.32811165 385.11102676 C55.16456606 392.80908347 56.21716417 400.44740059 57.24170113 408.13142776 C150.30170113 408.13142776 243.36170113 408.13142776 339.24170113 408.13142776 C345.70763863 349.72142776 345.70763863 349.72142776 352.30420113 290.13142776 C353.65006294 277.97556839 354.99592476 265.81970901 356.38257027 253.29549026 C357.33669999 244.67556356 358.29082152 236.05563601 359.24470711 227.4356823 C359.52381807 224.91346788 359.80294271 222.39125497 360.08207893 219.86904335 C363.66923177 187.45619923 367.24697806 155.04240666 370.77959251 122.62356949 C372.30667943 108.61203891 373.85055022 94.60290077 375.45654488 80.60017776 C375.53333536 79.93013718 375.61012585 79.26009659 375.68924332 78.56975174 C376.33386547 72.94887949 376.98181228 67.3284015 377.63549995 61.7085762 C378.07982223 57.88122239 378.51861801 54.05326783 378.95654488 50.22517776 C379.08770195 49.11106522 379.21885902 47.99695267 379.35399055 46.84907913 C379.47154198 45.81496902 379.5890934 44.78085892 379.71020699 43.71541214 C379.8134478 42.8247908 379.91668861 41.93416946 380.02305794 41.0165596 C380.29729542 37.39782679 380.24170113 33.76053693 380.24170113 30.13142776 C260.12170113 30.13142776 140.00170113 30.13142776 16.24170113 30.13142776 Z " fill="#DFEAF1" transform="translate(57.75829887390137,-0.13142776489257813)"/>
<path d="M0 0 C0 93.39 0 186.78 0 283 C-46.86 283 -93.72 283 -142 283 C-147.70315583 232.81222871 -147.70315583 232.81222871 -149.28891373 218.38324547 C-149.59163694 215.6302953 -149.89565177 212.87748983 -150.19992065 210.12471008 C-151.06030602 202.34008511 -151.91975406 194.55535847 -152.77587891 186.77026367 C-155.6052853 160.70744371 -155.6052853 160.70744371 -158.87309265 134.69734192 C-160.90473353 119.50954367 -162.46776223 104.25894795 -164.14489746 89.02886963 C-164.53089386 85.52792894 -164.9188884 82.02721112 -165.30696678 78.5265007 C-166.44989014 68.21644575 -167.58466625 57.90551091 -168.71529388 47.59410095 C-169.00601455 44.94519841 -169.29751402 42.29638246 -169.58917236 39.64758301 C-170.06689652 35.30738622 -170.54229807 30.96694079 -171.01597786 26.62630081 C-171.1938497 24.99926506 -171.37243949 23.37230762 -171.55178642 21.74543381 C-171.7983642 19.50710152 -172.0422304 17.26848986 -172.28540039 15.02978516 C-172.42393936 13.76397614 -172.56247833 12.49816711 -172.70521545 11.19400024 C-173 8 -173 8 -173 4 C-164.09222584 4.56889986 -155.2183008 5.32478465 -146.34106445 6.25146484 C-130.85506034 7.80235045 -115.36551851 8.2068183 -99.8125 8.1875 C-98.90236145 8.18689575 -97.9922229 8.1862915 -97.05450439 8.18566895 C-65.91672954 8.13005245 -35.25828755 5.27762541 -4.51611328 0.3671875 C-2 0 -2 0 0 0 Z " fill="#CCD0FE" transform="translate(257,125)"/>
<path d="M0 0 C1.26566259 -0.00128164 1.26566259 -0.00128164 2.55689412 -0.00258917 C5.39442151 -0.00424101 8.23189026 0.00127261 11.06941223 0.00672913 C13.09938557 0.00701109 15.129359 0.00685309 17.15933228 0.00628662 C22.67964862 0.005999 28.19994335 0.01189012 33.72025466 0.01886058 C39.48583476 0.0250999 45.25141533 0.02569838 51.01699829 0.02688599 C61.93918749 0.02999759 72.86136671 0.03820869 83.78355151 0.04823548 C96.21627317 0.0594019 108.64899529 0.0649084 121.08172071 0.06993091 C146.6607128 0.08039143 172.23969533 0.09818835 197.81867981 0.12025452 C197.81867981 10.02025452 197.81867981 19.92025452 197.81867981 30.12025452 C137.42867981 30.12025452 77.03867981 30.12025452 14.81867981 30.12025452 C18.38990787 61.36788721 18.38990787 61.36788721 21.96882629 92.61463928 C22.66255188 98.70411682 22.66255188 98.70411682 22.98800659 101.56884766 C23.2125107 103.53916868 23.43837423 105.50933514 23.66537476 107.47937012 C24.86534974 117.90188422 25.97851114 128.28482332 26.59902954 138.75952148 C26.96212351 144.314998 27.58188342 149.83846475 28.20149231 155.37025452 C28.33649139 156.59917923 28.47149048 157.82810394 28.61058044 159.0942688 C28.97592398 162.4139193 29.34410116 165.73322984 29.71374512 169.0524025 C30.10403183 172.56233462 30.49091824 176.0726418 30.87825012 179.582901 C31.52662189 185.45478937 32.17737334 191.32641013 32.829422 197.19789124 C33.6449141 204.54260192 34.45394153 211.88801008 35.26066589 219.23368835 C35.80403585 224.18111888 36.34928598 229.1283415 36.89517403 234.07549477 C37.26429772 237.42080394 37.63271301 240.76618621 37.99989319 244.11170959 C38.41119245 247.85569612 38.82552728 251.59933592 39.24055481 255.34291077 C39.35597626 256.39914139 39.47139771 257.45537201 39.59031677 258.54360962 C40.38767154 265.70044068 41.30384809 272.83730635 42.25080872 279.97547913 C43.84370771 292.03635987 45.18480135 304.11835822 46.48274231 316.21400452 C46.72242852 318.42883499 46.96237332 320.64363749 47.20256042 322.8584137 C47.82568519 328.6091421 48.44605173 334.36016411 49.06556702 340.11128235 C50.06306287 349.36826928 51.06417291 358.62486481 52.06661606 367.88131714 C52.4139644 371.09344906 52.75968093 374.30575353 53.10520935 377.51808167 C53.31775218 379.4850877 53.53034508 381.45208832 53.74299622 383.41908264 C53.83754593 384.30220627 53.93209564 385.1853299 54.0295105 386.09521484 C54.41570924 389.65660839 54.82912329 393.18665181 55.38591003 396.72657776 C55.81867981 400.12025452 55.81867981 400.12025452 55.81867981 408.12025452 C102.67867981 408.12025452 149.53867981 408.12025452 197.81867981 408.12025452 C197.81867981 418.02025452 197.81867981 427.92025452 197.81867981 438.12025452 C152.27867981 438.12025452 106.73867981 438.12025452 59.81867981 438.12025452 C61.13867981 450.00025452 62.45867981 461.88025452 63.81867981 474.12025452 C63.81867981 476.76025452 63.81867981 479.40025452 63.81867981 482.12025452 C108.03867981 482.12025452 152.25867981 482.12025452 197.81867981 482.12025452 C197.81867981 492.02025452 197.81867981 501.92025452 197.81867981 512.12025452 C177.95630816 512.1879636 158.09402988 512.24323169 138.23157215 512.27569103 C129.00918256 512.29116276 119.78686974 512.31225812 110.56452942 512.34657288 C102.52674057 512.37646587 94.48900732 512.3958273 86.45116442 512.40252 C82.19480837 512.40643243 77.93861138 512.41563352 73.68230629 512.43744469 C69.67602463 512.45780828 65.66996756 512.4640886 61.66363907 512.45957756 C60.19346204 512.46040282 58.72327749 512.46636935 57.25314522 512.47787094 C55.24496014 512.49281122 53.23665453 512.48741714 51.22842407 512.48101807 C50.10475842 512.48378345 48.98109278 512.48654882 47.82337666 512.489398 C44.27446448 512.05339468 42.59277017 511.38137269 39.81867981 509.12025452 C35.94355552 503.73264272 35.00837723 499.002925 34.32873535 492.49012756 C34.21278698 491.50229877 34.0968386 490.51446997 33.97737664 489.49670696 C33.57593452 486.03946149 33.19790211 482.58000401 32.81867981 479.12025452 C32.51158272 476.43402956 32.20316866 473.74797992 31.89345741 471.0620575 C30.89107473 462.32978887 29.92063316 453.59405441 28.95240676 444.85794353 C28.44469532 440.28144549 27.93442479 435.70523264 27.42448425 431.12898254 C26.54244911 423.21046745 25.66197635 415.29177993 24.78258705 407.37297058 C23.50258957 395.84683886 22.22004136 384.32099202 20.93690141 372.79520977 C18.8430201 353.9864246 16.75099837 335.17743311 14.66023254 316.36830139 C12.65056376 298.28879107 10.6402908 280.20934815 8.62898254 262.13002014 C8.50585313 261.02322611 8.38272372 259.91643209 8.25586311 258.77609885 C6.9008947 246.59662655 5.54575354 234.41717349 4.19050884 222.23773193 C3.8265504 218.96685463 3.4625921 215.69597732 3.0986341 212.42509997 C2.8579997 210.26254258 2.61736225 208.09998554 2.3767217 205.93742883 C0.98396235 193.42107519 -0.40832905 180.90466974 -1.79961567 168.3881523 C-2.67335029 160.52777503 -3.54752547 152.66744682 -4.42187799 144.80713826 C-5.04960264 139.16333047 -5.6765554 133.51943759 -6.302951 127.87548214 C-8.27112273 110.14567418 -10.2535207 92.41778372 -12.291597 74.69586051 C-12.58267423 72.16267328 -12.87289758 69.62938988 -13.16277033 67.09606457 C-13.25622958 66.27935388 -13.34968884 65.46264319 -13.44598019 64.62118369 C-13.63135332 63.00105516 -13.81668682 61.3809221 -14.00197921 59.76078433 C-14.52838719 55.16330136 -15.06087875 50.56657855 -15.5983825 45.97038031 C-15.84532332 43.85003678 -16.08919349 41.72936652 -16.33172786 39.60851479 C-16.62217459 37.06957885 -16.91743867 34.53118644 -17.21891034 31.993536 C-19.41804256 12.55105366 -19.41804256 12.55105366 -16.36882019 6.55775452 C-15.64694519 5.75337952 -14.92507019 4.94900452 -14.18132019 4.12025452 C-13.66569519 3.52212952 -13.15007019 2.92400452 -12.61882019 2.30775452 C-8.99162073 -0.68862764 -4.42990356 -0.01627606 0 0 Z " fill="#FEF4F5" transform="translate(59.18132019042969,-0.1202545166015625)"/>
<path d="M0 0 C90.42 0 180.84 0 274 0 C273.34519958 9.82200632 272.60305537 19.54336108 271.5 29.3125 C271.30470703 31.11750977 271.30470703 31.11750977 271.10546875 32.95898438 C270.97785156 34.10302734 270.85023438 35.24707031 270.71875 36.42578125 C270.54762695 37.96359253 270.54762695 37.96359253 270.37304688 39.5324707 C270 42 270 42 269 44 C181.55 44 94.1 44 4 44 C0 9 0 9 0 0 Z " fill="#CCD0FE" transform="translate(119,438)"/>
<path d="M0 0 C44.88 0 89.76 0 136 0 C135.34519958 9.82200632 134.60305537 19.54336108 133.5 29.3125 C133.30470703 31.11750977 133.30470703 31.11750977 133.10546875 32.95898438 C132.97785156 34.10302734 132.85023438 35.24707031 132.71875 36.42578125 C132.54762695 37.96359253 132.54762695 37.96359253 132.37304688 39.5324707 C132 42 132 42 131 44 C87.77 44 44.54 44 0 44 C0 29.48 0 14.96 0 0 Z " fill="#B6B9F7" transform="translate(257,438)"/>
<path d="M0 0 C5.10311895 2.85396653 7.68856638 5.72002499 9.921875 11.1171875 C10.81801804 16.59361718 9.46940328 19.96321928 6.39453125 24.3828125 C3.56401859 27.71636057 0.82074263 28.8122369 -3.4375 29.49609375 C-8.20200158 29.83538401 -11.30646753 29.48480879 -15.078125 26.4296875 C-18.98134828 22.48054395 -20.14978834 19.17651548 -20.453125 13.6796875 C-20.32409957 9.11066917 -19.20535971 6.56516423 -16.078125 3.1171875 C-11.17217647 -0.78085576 -6.09627358 -2.58977035 0 0 Z " fill="#7D83EF" transform="translate(354.078125,328.8828125)"/>
<path d="M0 0 C4.03312714 1.42011519 6.57706271 3.53368453 9.4375 6.6875 C11.99863726 12.117111 11.82292861 16.70446229 9.8125 22.3125 C7.47446473 25.77924195 5.04804407 28.18078237 1.125 29.75 C-4.38954749 30.39877029 -8.56330166 30.49132462 -13.421875 27.39453125 C-17.39228742 23.88602324 -18.79374246 19.4953672 -19.5 14.375 C-18.71639852 9.08569002 -16.32571885 6.16789518 -12.375 2.6875 C-8.30712062 -0.20283535 -4.91923388 -0.63158337 0 0 Z " fill="#7D83EF" transform="translate(329,269)"/>
<path d="M0 0 C4.06187873 2.34653323 7.3022844 4.49162625 8.88671875 9.046875 C9.40084222 13.90901413 9.49860071 18.35520133 7.82421875 22.984375 C3.73559583 27.33678004 -0.16147171 29.28135119 -6.05078125 29.734375 C-11.25671239 29.54333166 -13.94728143 27.39331748 -17.6171875 23.87109375 C-20.6505674 20.17242949 -20.45322349 16.11965676 -20.38671875 11.55078125 C-19.97330686 7.76510948 -18.68481392 5.81621788 -16.11328125 3.046875 C-11.20541837 -0.84054114 -6.06517233 -2.73549362 0 0 Z " fill="#B6B9F7" transform="translate(174.11328125,328.953125)"/>
</svg>
