<?xml version="1.0" encoding="UTF-8"?>
<svg version="1.1" xmlns="http://www.w3.org/2000/svg" width="512" height="512">
<path d="M0 0 C0.7528125 0.69867188 1.505625 1.39734375 2.28125 2.1171875 C3.83647586 3.52455738 5.44547512 4.87367939 7.08984375 6.17578125 C10.71764533 9.10977313 13.52477312 12.54380948 16.5 16.125 C17.13252686 16.88103516 17.13252686 16.88103516 17.77783203 17.65234375 C26.39565047 28.00224933 34.09119792 38.88449354 41.5 50.125 C41.9129834 50.74681152 42.3259668 51.36862305 42.75146484 52.00927734 C58.00882984 75.14141137 60.13023654 97.29047403 60.03730202 124.1976521 C60.02703564 128.10988238 60.03660472 132.02207879 60.04284668 135.93431091 C60.05008317 142.49786218 60.04064057 149.06123223 60.02148438 155.62475586 C59.99971418 163.17017841 60.00678413 170.71516847 60.02879 178.2605806 C60.04704817 184.78684662 60.04945216 191.31298384 60.03903532 197.83926719 C60.0328583 201.71622057 60.03180229 205.59297188 60.04518127 209.46991158 C60.15408005 245.97764072 60.15408005 245.97764072 51.625 261.5625 C51.27477783 262.22805908 50.92455566 262.89361816 50.5637207 263.5793457 C30.0495654 301.9853346 -10.188302 323.66432098 -50.39453125 336.34765625 C-74.33555485 343.59691027 -98.61210128 347.85245569 -123.5 350.125 C-125.04929199 350.26856934 -125.04929199 350.26856934 -126.62988281 350.41503906 C-198.9191036 356.36977558 -274.77304789 343.92394468 -340.5 313.125 C-341.36947266 312.71781738 -342.23894531 312.31063477 -343.13476562 311.89111328 C-385.22291263 291.96169582 -430.46869207 260.1377263 -447.40429688 214.69873047 C-450.17850387 206.39815391 -452.61064689 197.99831246 -452.64717102 189.20256042 C-452.65432632 188.01558563 -452.66148163 186.82861084 -452.66885376 185.60566711 C-452.67288712 183.66460335 -452.67288712 183.66460335 -452.67700195 181.68432617 C-452.68327231 180.30069816 -452.68991961 178.91707181 -452.69691467 177.53344727 C-452.71790512 172.99496623 -452.7283185 168.45648509 -452.73828125 163.91796875 C-452.74233193 162.34918005 -452.74644894 160.78039152 -452.75063133 159.21160316 C-452.76967904 151.83259538 -452.78390593 144.45359751 -452.7922433 137.07456988 C-452.80198752 128.59279565 -452.82823468 120.11128435 -452.86874419 111.62960261 C-452.89906338 105.05265862 -452.91372739 98.47578926 -452.91702431 91.89877683 C-452.91935859 87.98135616 -452.92810316 84.06421643 -452.95348549 80.14687157 C-453.14634307 48.77299898 -453.14634307 48.77299898 -448.5 36.125 C-448.17479874 35.23492752 -447.84959747 34.34485504 -447.51454163 33.42781067 C-446.70768354 31.34786384 -445.80578695 29.37179027 -444.8125 27.375 C-444.4714624 26.67165527 -444.1304248 25.96831055 -443.77905273 25.24365234 C-440.43106502 18.57806483 -436.25561631 12.87578816 -431.5 7.125 C-430.77941406 6.22652344 -430.05882812 5.32804687 -429.31640625 4.40234375 C-427.0707919 1.62034379 -424.78767936 -1.12752347 -422.5 -3.875 C-421.63614372 -4.93833518 -420.77288214 -6.00215373 -419.91015625 -7.06640625 C-385.08660616 -49.64464796 -329.31281262 -66.44776011 -276.5 -72.875 C-275.72237305 -72.97796387 -274.94474609 -73.08092773 -274.14355469 -73.18701172 C-186.28140805 -84.495824 -82.68317898 -64.03157975 0 0 Z " fill="#D1CAEB" transform="translate(452.5,117.875)"/>
<path d="M0 0 C0.7528125 0.69867188 1.505625 1.39734375 2.28125 2.1171875 C3.83647586 3.52455738 5.44547512 4.87367939 7.08984375 6.17578125 C10.71764533 9.10977313 13.52477312 12.54380948 16.5 16.125 C17.13252686 16.88103516 17.13252686 16.88103516 17.77783203 17.65234375 C26.39565047 28.00224933 34.09119792 38.88449354 41.5 50.125 C41.9129834 50.74681152 42.3259668 51.36862305 42.75146484 52.00927734 C54.72033519 70.15562915 59.81142617 87.67313424 59.9375 109.1875 C59.94765137 110.43668213 59.95780273 111.68586426 59.96826172 112.97290039 C59.90302845 119.79345207 59.33920677 124.92482292 56.5 131.125 C56.07460938 132.30320313 55.64921875 133.48140625 55.2109375 134.6953125 C44.41861663 163.41172182 22.15768896 183.39729543 -3.75 198.75 C-4.85915771 199.40742187 -4.85915771 199.40742187 -5.99072266 200.078125 C-11.2428963 203.125 -11.2428963 203.125 -13.5 203.125 C-13.84667725 202.42938965 -14.19335449 201.7337793 -14.55053711 201.01708984 C-16.15534791 197.83187602 -17.79587324 194.66638577 -19.4375 191.5 C-19.98212891 190.40558594 -20.52675781 189.31117188 -21.08789062 188.18359375 C-24.8981959 180.91538138 -28.29497665 176.96254038 -35.5 173.125 C-37.53051949 171.93978077 -39.56042289 170.75350566 -41.58984375 169.56640625 C-43.27822891 168.60701784 -44.96668063 167.64773765 -46.65759277 166.69281006 C-49.12203073 165.30086994 -51.58207052 163.90123384 -54.04244995 162.50213623 C-55.31627118 161.77785568 -56.59029964 161.05393948 -57.86453247 160.3303833 C-64.17473771 156.74634107 -70.4650555 153.12814654 -76.75 149.5 C-78.35500366 148.57380859 -78.35500366 148.57380859 -79.99243164 147.62890625 C-88.11804583 142.93462743 -96.22086077 138.20191123 -104.32128906 133.46435547 C-112.02024834 128.96972573 -119.75468246 124.53900101 -127.5 120.125 C-137.22115617 114.5849827 -146.90894658 108.99125191 -156.56689453 103.34155273 C-167.09084625 97.18733258 -177.65380137 91.10130004 -188.21777344 85.01611328 C-193.64659942 81.88819852 -199.07319281 78.75641552 -204.5 75.625 C-206.66665583 74.37498121 -208.8333225 73.12498122 -211 71.875 C-215.33333333 69.375 -219.66666667 66.875 -224 64.375 C-225.07266113 63.75616943 -226.14532227 63.13733887 -227.25048828 62.49975586 C-229.41557071 61.25064482 -231.58060982 60.00145871 -233.74560547 58.75219727 C-239.18615706 55.61297691 -244.62747216 52.47509437 -250.0703125 49.33984375 C-260.52206199 43.31752671 -270.96299548 37.27830663 -281.375 31.1875 C-290.05262241 26.11224877 -298.76605568 21.10241233 -307.5 16.125 C-317.21602354 10.58790775 -326.89896207 4.99757166 -336.55151367 -0.6496582 C-347.15222829 -6.84934457 -357.79466844 -12.97617608 -368.43505859 -19.10742188 C-375.79618561 -23.35264727 -383.14783111 -27.61428526 -390.5 -31.875 C-389.08532742 -35.36027686 -387.61715886 -36.74500048 -384.37890625 -38.609375 C-383.53610107 -39.09696289 -382.6932959 -39.58455078 -381.82495117 -40.08691406 C-380.91334229 -40.59448242 -380.0017334 -41.10205078 -379.0625 -41.625 C-378.11673096 -42.15577148 -377.17096191 -42.68654297 -376.1965332 -43.23339844 C-367.2230416 -48.17695065 -358.0973576 -52.30689358 -348.5 -55.875 C-347.60506836 -56.20983398 -346.71013672 -56.54466797 -345.78808594 -56.88964844 C-323.43577701 -65.11251856 -300.11677969 -70.00087342 -276.5 -72.875 C-275.72237305 -72.97796387 -274.94474609 -73.08092773 -274.14355469 -73.18701172 C-186.28140805 -84.495824 -82.68317898 -64.03157975 0 0 Z " fill="#CCC3EB" transform="translate(452.5,117.875)"/>
<path d="M0 0 C1.28371547 0.78631178 2.55789833 1.58831414 3.82421875 2.40234375 C5.33087845 3.32870049 6.83877379 4.25304944 8.34765625 5.17578125 C9.16975586 5.68334961 9.99185547 6.19091797 10.83886719 6.71386719 C15.82126672 9.74481173 20.89110121 12.62520691 25.94921875 15.52734375 C28.19809886 16.82260038 30.44679441 18.11817751 32.6953125 19.4140625 C33.82437012 20.0642334 34.95342773 20.7144043 36.11669922 21.38427734 C41.58341855 24.53316429 47.04746762 27.68667639 52.51171875 30.83984375 C54.67837186 32.08986725 56.84503854 33.33986722 59.01171875 34.58984375 C141.34505208 82.08984375 223.67838542 129.58984375 306.01171875 177.08984375 C307.08437988 177.70867432 308.15704102 178.32750488 309.26220703 178.96508789 C311.42728946 180.21419893 313.59232857 181.46338504 315.75732422 182.71264648 C321.19787581 185.85186684 326.63919091 188.98974938 332.08203125 192.125 C342.98596294 198.40731726 353.88295297 204.70153056 364.76171875 211.02734375 C365.75574707 211.60363525 366.74977539 212.17992676 367.77392578 212.77368164 C372.45319184 215.49953465 377.05304604 218.26515502 381.51171875 221.33984375 C377.59362525 233.09412426 353.15310904 244.86505692 342.51171875 250.33984375 C341.85171875 250.33984375 341.19171875 250.33984375 340.51171875 250.33984375 C340.1650415 249.6442334 339.81836426 248.94862305 339.46118164 248.23193359 C337.85637084 245.04671977 336.21584551 241.88122952 334.57421875 238.71484375 C334.02958984 237.62042969 333.48496094 236.52601563 332.92382812 235.3984375 C329.11352285 228.13022513 325.7167421 224.17738413 318.51171875 220.33984375 C316.48119926 219.15462452 314.45129586 217.96834941 312.421875 216.78125 C310.73348984 215.82186159 309.04503812 214.8625814 307.35412598 213.90765381 C304.88968802 212.51571369 302.42964823 211.11607759 299.9692688 209.71697998 C298.69544757 208.99269943 297.42141911 208.26878323 296.14718628 207.54522705 C289.83698104 203.96118482 283.54666325 200.34299029 277.26171875 196.71484375 C275.65671509 195.78865234 275.65671509 195.78865234 274.01928711 194.84375 C265.89367292 190.14947118 257.79085798 185.41675498 249.69042969 180.67919922 C241.99147041 176.18456948 234.25703629 171.75384476 226.51171875 167.33984375 C216.79056258 161.79982645 207.10277217 156.20609566 197.44482422 150.55639648 C186.9208725 144.40217633 176.35791738 138.31614379 165.79394531 132.23095703 C160.36511933 129.10304227 154.93852594 125.97125927 149.51171875 122.83984375 C147.34506292 121.58982496 145.17839625 120.33982497 143.01171875 119.08984375 C138.67838542 116.58984375 134.34505208 114.08984375 130.01171875 111.58984375 C128.93905762 110.97101318 127.86639648 110.35218262 126.76123047 109.71459961 C124.59614804 108.46548857 122.43110893 107.21630246 120.26611328 105.96704102 C114.82556169 102.82782066 109.38424659 99.68993812 103.94140625 96.5546875 C93.48965676 90.53237046 83.04872327 84.49315038 72.63671875 78.40234375 C63.95909634 73.32709252 55.24566307 68.31725608 46.51171875 63.33984375 C36.79569521 57.8027515 27.11275668 52.21241541 17.46020508 46.56518555 C6.85949046 40.36549918 -3.78294969 34.23866767 -14.42333984 28.10742188 C-21.78446686 23.86219648 -29.13611236 19.60055849 -36.48828125 15.33984375 C-35.02955869 11.59912926 -33.26987727 10.2970311 -29.8046875 8.359375 C-28.87720703 7.83537109 -27.94972656 7.31136719 -26.99414062 6.77148438 C-26.02283203 6.23716797 -25.05152344 5.70285156 -24.05078125 5.15234375 C-23.08333984 4.60642578 -22.11589844 4.06050781 -21.11914062 3.49804688 C-8.04019997 -3.82652294 -8.04019997 -3.82652294 0 0 Z " fill="#A996EB" transform="translate(98.48828125,70.66015625)"/>
</svg>
