<?xml version="1.0" encoding="UTF-8"?>
<svg version="1.1" xmlns="http://www.w3.org/2000/svg" width="512" height="512">
<path d="M0 0 C2.87274328 1.32359866 3.85418097 2.47866264 6 5 C7.93620462 10.58082508 6.31887538 15.1627526 4.8359375 20.65234375 C1.74695481 33.02270902 1.75485584 45.3478373 2 58 C2.66 58 3.32 58 4 58 C5.17995045 56.43580927 6.2923793 54.82056709 7.375 53.1875 C23.58111335 30.54532732 51.36043076 18.06511984 76.9375 9.25 C78.41972046 8.72853394 78.41972046 8.72853394 79.93188477 8.1965332 C85.79224105 6.27928408 89.95640417 5.62306402 96 7 C100.76423025 9.49039309 102.25306471 13.03556931 104.0234375 17.87890625 C111.08973273 40.46278581 114.04740315 66.2999775 106 89 C105.69191406 89.90105469 105.38382812 90.80210938 105.06640625 91.73046875 C104.42776448 93.50583177 103.72566814 95.25839646 103 97 C103.80932983 96.75878418 103.80932983 96.75878418 104.63500977 96.51269531 C109.63075316 95.42969117 114.84686902 95.7719542 119.9375 95.75 C121.67870117 95.7190625 121.67870117 95.7190625 123.45507812 95.6875 C131.38533948 95.65219555 139.58535124 95.92658415 147 99 C150.78106283 102.90680552 151.73272875 106.30749438 152.4375 111.5625 C153.81467945 120.07757125 155.78658358 128.80860721 161.8125 135.3125 C164 138 164 138 164.625 141.375 C164.03638695 144.78895569 163.60762301 145.85683171 161.75 148.5625 C154.86991078 158.73562338 153.68883736 171.42211683 155.3203125 183.33984375 C158.08459202 196.03039973 165.54098749 207.41521994 176 215 C183.65529952 219.54880117 190.81044764 222.40530535 199.61328125 223.4140625 C200.60074341 223.52959473 200.60074341 223.52959473 201.6081543 223.64746094 C203.54132003 223.86555929 205.47770375 224.05454036 207.4140625 224.2421875 C214.1625703 225.66834274 218.49314854 230.06392459 223 235 C223 235.66 223 236.32 223 237 C223.51691406 237.2578125 224.03382813 237.515625 224.56640625 237.78125 C226.47205121 238.73560189 228.37518502 239.69496835 230.27734375 240.65625 C231.49737208 241.27088049 232.71742476 241.88546263 233.9375 242.5 C234.54529297 242.80808594 235.15308594 243.11617187 235.77929688 243.43359375 C238.44841553 244.77535135 241.08469397 246.03217681 243.87890625 247.09375 C246 248 246 248 247 250 C251.5266744 317.81306455 223.68781919 391.55276533 183 445 C182.56623047 445.57508301 182.13246094 446.15016602 181.68554688 446.74267578 C175.97081346 454.28900182 169.95301081 461.43375813 163.4765625 468.3359375 C161.4540171 470.51160937 159.52831736 472.72164473 157.625 475 C144.50383788 490.017823 122.52834984 510.22958437 101.73876953 512.21606445 C85.06888211 513.03048383 71.02175447 510.37013466 55.98828125 503.07421875 C52.66100498 501.87813905 51.29382962 501.82246948 48 503 C45.77888532 504.35374508 43.75366351 505.87225925 41.671875 507.4296875 C34.80295186 511.46668618 27.99812843 512.53245765 20.125 512.4375 C19.24875977 512.43065186 18.37251953 512.42380371 17.46972656 512.41674805 C7.14919975 512.16131788 -0.5940352 508.82866427 -9 503 C-9.99 502.34 -10.98 501.68 -12 501 C-13.86965646 501.41482956 -13.86965646 501.41482956 -15.7734375 502.44921875 C-16.50852539 502.80177734 -17.24361328 503.15433594 -18.00097656 503.51757812 C-18.7844043 503.90365234 -19.56783203 504.28972656 -20.375 504.6875 C-35.98968171 511.91709145 -55.0252661 516.0497194 -71.875 510.125 C-73.95242736 509.15661589 -75.9937949 508.10842832 -78 507 C-78.60972656 506.66709961 -79.21945313 506.33419922 -79.84765625 505.99121094 C-94.81925647 497.66456052 -106.83420202 486.29585857 -118.9375 474.3125 C-119.71843018 473.54107666 -120.49936035 472.76965332 -121.30395508 471.97485352 C-126.62874201 466.6193565 -131.38157311 460.97044184 -136 455 C-136.87149766 453.9016305 -137.74375524 452.80386297 -138.6171875 451.70703125 C-142.99115381 446.09957617 -147.17598881 440.41582491 -151.125 434.5 C-151.49608887 433.94417236 -151.86717773 433.38834473 -152.24951172 432.81567383 C-181.07122126 389.0243086 -199.68082115 340.12912214 -206 288 C-206.09498779 287.25814453 -206.18997559 286.51628906 -206.2878418 285.75195312 C-209.21213636 259.23553639 -208.90122503 230.0332203 -203 204 C-202.79101074 203.07622559 -202.58202148 202.15245117 -202.36669922 201.20068359 C-196.5815496 176.78171871 -185.90276993 153.70093695 -169 135 C-168.11957031 134.02546875 -167.23914063 133.0509375 -166.33203125 132.046875 C-146.32545905 110.65888026 -117.02901753 96.9037864 -87.76953125 95.6796875 C-57.67612573 94.90969294 -36.49724095 106.54559044 -11.83325195 122.86181641 C-9.93983363 124.03735459 -8.00724429 125.03397034 -6 126 C-6.21615967 125.39341553 -6.43231934 124.78683105 -6.6550293 124.16186523 C-18.87096056 89.56466071 -30.79446477 41.65036333 -15 6 C-10.89424028 -0.0964311 -7.12174512 -1.0395836 0 0 Z " fill="#E2494F" transform="translate(236,0)"/>
<path d="M0 0 C13.6984459 15.60100784 12.28565848 45.54673434 11.25 64.5625 C10.58028045 70.13759565 9.17034158 75.28156065 7.25 80.5625 C6.96125 81.3978125 6.6725 82.233125 6.375 83.09375 C-2.70495226 106.11791467 -22.83750618 121.01446788 -44.75 130.5625 C-48.08219985 131.95694238 -51.43549403 133.2806161 -54.8125 134.5625 C-55.5977002 134.86559082 -56.38290039 135.16868164 -57.19189453 135.48095703 C-61.83661644 137.1743763 -65.7326775 138.07447168 -70.75 137.5625 C-72.6875 135.5625 -72.6875 135.5625 -73.75 133.5625 C-72.36314151 130.70207916 -70.84057471 127.98185664 -69.18359375 125.26953125 C-68.4555957 124.0774707 -68.4555957 124.0774707 -67.71289062 122.86132812 C-67.20951172 122.04083984 -66.70613281 121.22035156 -66.1875 120.375 C-65.68025391 119.54291016 -65.17300781 118.71082031 -64.65039062 117.85351562 C-60.87862723 111.69112723 -60.87862723 111.69112723 -59.75 110.5625 C-57.81318839 110.48142417 -55.8754066 110.42327525 -53.9375 110.375 C-45.33945934 109.80622112 -38.81649789 106.27349859 -31.75 101.5625 C-32.43626465 101.65861572 -33.1225293 101.75473145 -33.82958984 101.85375977 C-36.92720624 102.28394052 -40.02604378 102.70458473 -43.125 103.125 C-44.20523438 103.27646484 -45.28546875 103.42792969 -46.3984375 103.58398438 C-47.4296875 103.72255859 -48.4609375 103.86113281 -49.5234375 104.00390625 C-50.47653809 104.13482666 -51.42963867 104.26574707 -52.41162109 104.40063477 C-54.75 104.5625 -54.75 104.5625 -56.75 103.5625 C-55.65666314 100.93250065 -54.55104671 98.30892788 -53.4375 95.6875 C-53.12876953 94.94113281 -52.82003906 94.19476563 -52.50195312 93.42578125 C-52.19580078 92.71035156 -51.88964844 91.99492188 -51.57421875 91.2578125 C-51.15789185 90.2680542 -51.15789185 90.2680542 -50.7331543 89.25830078 C-49.75 87.5625 -49.75 87.5625 -46.75 85.5625 C-45.18995527 85.46553195 -43.62554813 85.43271272 -42.0625 85.4375 C-34.87228892 84.96522072 -29.2747313 81.63401248 -23.05859375 78.27734375 C-19.75 76.5625 -19.75 76.5625 -17.75 76.5625 C-17.75 75.9025 -17.75 75.2425 -17.75 74.5625 C-18.48863281 74.76746094 -19.22726562 74.97242187 -19.98828125 75.18359375 C-26.08614625 76.80297594 -31.87398621 77.93572866 -38.1796875 78.25390625 C-41.21839359 78.6187357 -43.87993377 79.52074126 -46.75 80.5625 C-40.31954612 64.27553075 -40.31954612 64.27553075 -34.75 60.5625 C-33.71875 60.315 -32.6875 60.0675 -31.625 59.8125 C-23.39082619 57.57155396 -17.52090621 51.50887295 -11.75 45.5625 C-12.34014893 45.79960693 -12.93029785 46.03671387 -13.53833008 46.28100586 C-16.21269134 47.35490808 -18.88758865 48.42746872 -21.5625 49.5 C-22.49126953 49.87318359 -23.42003906 50.24636719 -24.37695312 50.63085938 C-25.26962891 50.98857422 -26.16230469 51.34628906 -27.08203125 51.71484375 C-27.90421143 52.04476318 -28.7263916 52.37468262 -29.57348633 52.71459961 C-31.28066857 53.37966342 -33.01186797 53.98312266 -34.75 54.5625 C-33.4602371 50.36757234 -31.86759606 46.67055466 -29.74609375 42.83203125 C-29.17052734 41.78208984 -28.59496094 40.73214844 -28.00195312 39.65039062 C-27.40318359 38.56951172 -26.80441406 37.48863281 -26.1875 36.375 C-24.99655936 34.21602205 -23.80765867 32.05591718 -22.62109375 29.89453125 C-22.09443115 28.94296143 -21.56776855 27.9913916 -21.02514648 27.01098633 C-19.65205326 24.53154098 -19.65205326 24.53154098 -18.75 21.5625 C-24.39247726 27.42352392 -28.96990377 33.97797488 -33.57324219 40.65795898 C-34.06985352 41.37540283 -34.56646484 42.09284668 -35.078125 42.83203125 C-35.5205957 43.47760986 -35.96306641 44.12318848 -36.41894531 44.78833008 C-37.73977845 46.54887564 -39.15654343 48.04813258 -40.75 49.5625 C-42.91730865 45.9624099 -43.30275582 42.50863977 -43.8125 38.375 C-43.98731387 34.14296892 -43.98731387 34.14296892 -45.75 30.5625 C-46.45517641 35.02339375 -46.80419595 39.1502894 -46.56640625 43.6640625 C-45.94229151 56.24359259 -47.01875727 64.44975839 -54.75 74.5625 C-55.41 74.5625 -56.07 74.5625 -56.75 74.5625 C-57.141875 73.61375 -57.53375 72.665 -57.9375 71.6875 C-59.68100795 67.58857987 -61.71013352 63.65109237 -63.76171875 59.69921875 C-64.75 57.5625 -64.75 57.5625 -64.75 55.5625 C-65.41 55.5625 -66.07 55.5625 -66.75 55.5625 C-66.32397439 58.10656781 -65.88462329 60.64712785 -65.4375 63.1875 C-65.31955078 63.90035156 -65.20160156 64.61320312 -65.08007812 65.34765625 C-64.45543261 68.8392645 -63.80040337 71.46561761 -62.14453125 74.6484375 C-60.37887694 78.33801206 -60.22461824 80.5039259 -60.75 84.5625 C-61.98469634 87.39201244 -63.56360805 89.91976968 -65.25 92.5 C-65.67925781 93.18384766 -66.10851562 93.86769531 -66.55078125 94.57226562 C-67.603254 96.24452789 -68.67473567 97.90480082 -69.75 99.5625 C-71.82172282 96.45491577 -73.59285992 93.28192464 -75.375 90 C-76.00664062 88.84371094 -76.63828125 87.68742187 -77.2890625 86.49609375 C-78.75 83.5625 -78.75 83.5625 -78.75 81.5625 C-79.41 81.5625 -80.07 81.5625 -80.75 81.5625 C-80.3249888 84.12763849 -79.88553075 86.68886902 -79.4375 89.25 C-79.31955078 89.97123047 -79.20160156 90.69246094 -79.08007812 91.43554688 C-78.25405276 96.07399698 -77.20689248 100.10560752 -73.75 103.5625 C-72.98939378 110.40795597 -75.40990536 116.20036771 -77.75 122.5625 C-80.6620259 121.10648705 -80.82522772 119.24648064 -81.95703125 116.2265625 C-82.58641602 114.54929077 -82.58641602 114.54929077 -83.22851562 112.83813477 C-83.66873047 111.63342529 -84.10894531 110.42871582 -84.5625 109.1875 C-85.01173828 107.96409912 -85.46097656 106.74069824 -85.92382812 105.48022461 C-90.82367611 91.91230375 -95.16429319 77.95904863 -96.75 63.5625 C-96.86859375 62.63179688 -96.9871875 61.70109375 -97.109375 60.7421875 C-97.68768969 52.7569962 -94.82474164 48.50343131 -89.75 42.5625 C-89.08613281 41.73878906 -88.42226562 40.91507813 -87.73828125 40.06640625 C-77.80895796 28.30171822 -65.26946723 20.55610118 -51.75 13.5625 C-50.76870117 13.04840576 -50.76870117 13.04840576 -49.76757812 12.52392578 C-40.8540603 7.91036316 -31.66997945 4.27890057 -22.1875 1 C-21.17623047 0.64091553 -20.16496094 0.28183105 -19.12304688 -0.08813477 C-12.19947625 -2.39234967 -6.75540707 -3.53123551 0 0 Z " fill="#88D265" transform="translate(334.75,8.4375)"/>
<path d="M0 0 C2.87274328 1.32359866 3.85418097 2.47866264 6 5 C7.93620462 10.58082508 6.31887538 15.1627526 4.8359375 20.65234375 C1.75104999 33.00630915 1.66543578 45.36311255 2 58 C2.02707031 59.70349609 2.02707031 59.70349609 2.0546875 61.44140625 C3.05447468 85.40689308 11.13465754 107.97598867 20 130 C23.69395422 121.27030972 23.69395422 121.27030972 24 112 C23.53078125 111.56171875 23.0615625 111.1234375 22.578125 110.671875 C18.6156417 106.47399665 17.8125 98.38015906 17.8125 92.75 C17.9053125 91.38875 17.9053125 91.38875 18 90 C18.66 90 19.32 90 20 90 C22.97 95.61 25.94 101.22 29 107 C30.32 104.834375 31.64 102.66875 33 100.4375 C33.41765625 99.77032959 33.8353125 99.10315918 34.265625 98.41577148 C36.77839588 94.15365838 37.52871055 91.05963701 37 86 C36.03523618 83.98276656 35.03161608 81.98387708 34 80 C32.37413154 74.62970722 31.76206746 69.59141468 32 64 C32.66 64 33.32 64 34 64 C34.40992188 64.83144531 34.81984375 65.66289063 35.2421875 66.51953125 C35.78101563 67.60621094 36.31984375 68.69289063 36.875 69.8125 C37.40867187 70.89144531 37.94234375 71.97039062 38.4921875 73.08203125 C39.97221139 76.07838265 39.97221139 76.07838265 42 79 C42 80.32 42 81.64 42 83 C42.66 83 43.32 83 44 83 C44.226875 82.360625 44.45375 81.72125 44.6875 81.0625 C46 78 46 78 47.21533203 76.11669922 C51.14125615 69.96113314 51.5812478 65.24465928 51.1875 58.0625 C50.87455564 50.70061207 51.22784569 44.17727368 53 37 C54.85182095 39.77773142 55.3341681 40.88383445 55.8515625 44.01171875 C55.98046875 44.76904297 56.109375 45.52636719 56.2421875 46.30664062 C56.36851562 47.09232422 56.49484375 47.87800781 56.625 48.6875 C56.82609375 49.88342773 56.82609375 49.88342773 57.03125 51.10351562 C57.3606146 53.0679402 57.68116313 55.03383927 58 57 C62.53791885 51.4750838 66.67302198 45.64804813 70.8671875 39.86132812 C71.46789062 39.03955078 72.06859375 38.21777344 72.6875 37.37109375 C73.49767578 36.2562561 73.49767578 36.2562561 74.32421875 35.11889648 C76.07531768 32.90476658 77.9682635 30.95676366 80 29 C80.66 29.33 81.32 29.66 82 30 C81.443125 30.969375 80.88625 31.93875 80.3125 32.9375 C74.87318848 42.47098143 69.81361711 52.13667558 65 62 C65.90621094 61.60167969 66.81242187 61.20335937 67.74609375 60.79296875 C74.42103259 57.88196904 81.03564426 55.16135178 88 53 C82.19727367 60.18432784 75.490835 68.10865081 66 69.6875 C62.5145869 70.48678646 61.17622047 71.5542668 59.25 74.5625 C56.89713153 78.9093248 54.89133828 83.43542939 53 88 C53.65097656 87.69191406 54.30195313 87.38382812 54.97265625 87.06640625 C58.78282753 85.72424269 62.43445642 85.33745657 66.4375 84.9375 C67.91550902 84.78130865 69.39337742 84.62378035 70.87109375 84.46484375 C71.57089355 84.38991699 72.27069336 84.31499023 72.99169922 84.23779297 C75.6782862 83.91968748 78.33748737 83.47680496 81 83 C81 83.66 81 84.32 81 85 C62.77777778 94.11111111 62.77777778 94.11111111 54.62890625 94.5234375 C51.53273187 95.08470537 50.80124949 95.45430346 49 98 C47.85707168 100.38874799 46.8067972 102.73981034 45.8125 105.1875 C45.53986328 105.84169922 45.26722656 106.49589844 44.98632812 107.16992188 C44.31760202 108.77721092 43.65790075 110.38824962 43 112 C45.85432471 111.68889371 48.70845525 111.37615574 51.5625 111.0625 C52.36236328 110.97548828 53.16222656 110.88847656 53.98632812 110.79882812 C58.67256697 110.28238548 63.33680546 109.69478469 68 109 C63.49766512 113.88370913 58.24024902 116.78642275 52 119 C49.8312308 118.95834297 47.66276459 118.85406671 45.5 118.6875 C42.18511346 118.55313939 42.18511346 118.55313939 39 120 C33.37236307 125.99569585 28.60008551 134.19974346 26 142 C27.87197454 144.69433317 27.87197454 144.69433317 30 147 C29.34 147 28.68 147 28 147 C28.66 148.98 29.32 150.96 30 153 C30.66 153 31.32 153 32 153 C33.00508801 154.78881736 34.00392736 156.58114696 35 158.375 C35.8353125 159.87160156 35.8353125 159.87160156 36.6875 161.3984375 C38 164 38 164 38 166 C38.66 166.33 39.32 166.66 40 167 C34.11599345 167.85695967 28.44090708 168.12539234 22.5 168.0625 C21.67757812 168.05798828 20.85515625 168.05347656 20.0078125 168.04882812 C18.00517604 168.03718489 16.00257773 168.01925556 14 168 C-9.67199879 119.44508295 -34.2176643 62.65630523 -15.8203125 7.8515625 C-12.48102062 0.31430367 -7.68657751 -1.12203397 0 0 Z " fill="#555150" transform="translate(236,0)"/>
<path d="M0 0 C0.495 1.485 0.495 1.485 1 3 C-0.41448628 5.49932534 -1.86052005 7.78045723 -3.5 10.125 C-3.96486816 10.8044165 -4.42973633 11.48383301 -4.90869141 12.18383789 C-7.81382581 16.39583057 -10.8254912 20.4978536 -14.01953125 24.49609375 C-21.04180852 33.37435752 -27.94061542 42.43255066 -34 52 C-34.99 51.505 -34.99 51.505 -36 51 C-36.61371393 48.15753548 -37.12438185 45.36978981 -37.5625 42.5 C-37.94125536 37.33453486 -37.94125536 37.33453486 -40 33 C-40.70517641 37.46089375 -41.05419595 41.5877894 -40.81640625 46.1015625 C-40.19229151 58.68109259 -41.26875727 66.88725839 -49 77 C-49.66 77 -50.32 77 -51 77 C-51.391875 76.05125 -51.78375 75.1025 -52.1875 74.125 C-53.93100795 70.02607987 -55.96013352 66.08859237 -58.01171875 62.13671875 C-59 60 -59 60 -59 58 C-59.66 58 -60.32 58 -61 58 C-60.57397439 60.54406781 -60.13462329 63.08462785 -59.6875 65.625 C-59.56955078 66.33785156 -59.45160156 67.05070312 -59.33007812 67.78515625 C-58.70543261 71.2767645 -58.05040337 73.90311761 -56.39453125 77.0859375 C-54.62887694 80.77551206 -54.47461824 82.9414259 -55 87 C-56.23469634 89.82951244 -57.81360805 92.35726968 -59.5 94.9375 C-59.92925781 95.62134766 -60.35851562 96.30519531 -60.80078125 97.00976562 C-61.853254 98.68202789 -62.92473567 100.34230082 -64 102 C-66.07172282 98.89241577 -67.84285992 95.71942464 -69.625 92.4375 C-70.25664062 91.28121094 -70.88828125 90.12492187 -71.5390625 88.93359375 C-73 86 -73 86 -73 84 C-73.66 84 -74.32 84 -75 84 C-74.5749888 86.56513849 -74.13553075 89.12636902 -73.6875 91.6875 C-73.56955078 92.40873047 -73.45160156 93.12996094 -73.33007812 93.87304688 C-72.50405276 98.51149698 -71.45689248 102.54310752 -68 106 C-67.23939378 112.84545597 -69.65990536 118.63786771 -72 125 C-74.9120259 123.54398705 -75.07522772 121.68398064 -76.20703125 118.6640625 C-76.83641602 116.98679077 -76.83641602 116.98679077 -77.47851562 115.27563477 C-77.91873047 114.07092529 -78.35894531 112.86621582 -78.8125 111.625 C-79.26173828 110.40159912 -79.71097656 109.17819824 -80.17382812 107.91772461 C-85.07367611 94.34980375 -89.41429319 80.39654863 -91 66 C-91.11859375 65.06929688 -91.2371875 64.13859375 -91.359375 63.1796875 C-91.93768969 55.1944962 -89.07474164 50.94093131 -84 45 C-83.33613281 44.17628906 -82.67226562 43.35257813 -81.98828125 42.50390625 C-72.05895796 30.73921822 -59.51946723 22.99360118 -46 16 C-45.01870117 15.48590576 -45.01870117 15.48590576 -44.01757812 14.96142578 C-35.04041126 10.31491895 -25.82598196 6.72916038 -16.25 3.5 C-15.21359375 3.14929443 -14.1771875 2.79858887 -13.109375 2.43725586 C-12.1296875 2.11764893 -11.15 1.79804199 -10.140625 1.46875 C-9.26954102 1.18451172 -8.39845703 0.90027344 -7.50097656 0.60742188 C-4.90851557 -0.02221918 -2.65719099 -0.11195695 0 0 Z " fill="#C3E46E" transform="translate(329,6)"/>
<path d="M0 0 C0.66 0.33 1.32 0.66 2 1 C1.443125 1.969375 0.88625 2.93875 0.3125 3.9375 C-5.12681152 13.47098143 -10.18638289 23.13667558 -15 33 C-14.09378906 32.60167969 -13.18757813 32.20335937 -12.25390625 31.79296875 C-5.57896741 28.88196904 1.03564426 26.16135178 8 24 C2.19727367 31.18432784 -4.509165 39.10865081 -14 40.6875 C-17.4854131 41.48678646 -18.82377953 42.5542668 -20.75 45.5625 C-23.10286847 49.9093248 -25.10866172 54.43542939 -27 59 C-26.34902344 58.69191406 -25.69804687 58.38382813 -25.02734375 58.06640625 C-21.21717247 56.72424269 -17.56554358 56.33745657 -13.5625 55.9375 C-12.08449098 55.78130865 -10.60662258 55.62378035 -9.12890625 55.46484375 C-8.07920654 55.35245361 -8.07920654 55.35245361 -7.00830078 55.23779297 C-4.3217138 54.91968748 -1.66251263 54.47680496 1 54 C1 54.66 1 55.32 1 56 C-17.22222222 65.11111111 -17.22222222 65.11111111 -25.37109375 65.5234375 C-28.46726813 66.08470537 -29.19875051 66.45430346 -31 69 C-32.14292832 71.38874799 -33.1932028 73.73981034 -34.1875 76.1875 C-34.46013672 76.84169922 -34.73277344 77.49589844 -35.01367188 78.16992188 C-35.68239798 79.77721092 -36.34209925 81.38824962 -37 83 C-34.14567529 82.68889371 -31.29154475 82.37615574 -28.4375 82.0625 C-27.63763672 81.97548828 -26.83777344 81.88847656 -26.01367188 81.79882812 C-21.32743303 81.28238548 -16.66319454 80.69478469 -12 80 C-16.50233488 84.88370913 -21.75975098 87.78642275 -28 90 C-30.1687692 89.95834297 -32.33723541 89.85406671 -34.5 89.6875 C-37.82088665 89.54709716 -37.82088665 89.54709716 -41 91 C-45.543039 95.97558455 -48.67828578 102.09738974 -51.76416016 108.04467773 C-53 110 -53 110 -56 112 C-58.41607068 107.06718904 -59.59012303 103.60616874 -59 98 C-58.29784446 95.96213478 -57.49342015 93.98386371 -56.6796875 91.98828125 C-55.61886553 88.88507216 -55.62002424 86.22979392 -56 83 C-56.46792969 82.55785156 -56.93585938 82.11570312 -57.41796875 81.66015625 C-61.39312679 77.4886941 -62.1875 69.3671086 -62.1875 63.75 C-62.0946875 62.38875 -62.0946875 62.38875 -62 61 C-61.34 61 -60.68 61 -60 61 C-57.03 66.61 -54.06 72.22 -51 78 C-49.68 75.834375 -48.36 73.66875 -47 71.4375 C-46.58234375 70.77032959 -46.1646875 70.10315918 -45.734375 69.41577148 C-43.22160412 65.15365838 -42.47128945 62.05963701 -43 57 C-43.96476382 54.98276656 -44.96838392 52.98387708 -46 51 C-47.62586846 45.62970722 -48.23793254 40.59141468 -48 35 C-47.34 35 -46.68 35 -46 35 C-45.59007812 35.83144531 -45.18015625 36.66289063 -44.7578125 37.51953125 C-44.21898437 38.60621094 -43.68015625 39.69289062 -43.125 40.8125 C-42.59132813 41.89144531 -42.05765625 42.97039062 -41.5078125 44.08203125 C-40.02778861 47.07838265 -40.02778861 47.07838265 -38 50 C-38 51.32 -38 52.64 -38 54 C-37.34 54 -36.68 54 -36 54 C-35.773125 53.360625 -35.54625 52.72125 -35.3125 52.0625 C-34 49 -34 49 -32.78466797 47.11669922 C-28.85874385 40.96113314 -28.4187522 36.24465928 -28.8125 29.0625 C-29.12544436 21.70061207 -28.77215431 15.17727368 -27 8 C-25.14817905 10.77773142 -24.6658319 11.88383445 -24.1484375 15.01171875 C-24.01953125 15.76904297 -23.890625 16.52636719 -23.7578125 17.30664062 C-23.63148438 18.09232422 -23.50515625 18.87800781 -23.375 19.6875 C-23.17390625 20.88342773 -23.17390625 20.88342773 -22.96875 22.10351562 C-22.6393854 24.0679402 -22.31883687 26.03383927 -22 28 C-17.46208115 22.4750838 -13.32697802 16.64804813 -9.1328125 10.86132812 C-8.53210938 10.03955078 -7.93140625 9.21777344 -7.3125 8.37109375 C-6.50232422 7.2562561 -6.50232422 7.2562561 -5.67578125 6.11889648 C-3.92468232 3.90476658 -2.0317365 1.95676366 0 0 Z " fill="#139449" transform="translate(316,29)"/>
<path d="M0 0 C1.73443359 -0.0309375 1.73443359 -0.0309375 3.50390625 -0.0625 C11.41860172 -0.09787294 19.5998627 0.18505709 27 3.25 C30.78127133 7.15660852 31.73273442 10.55753665 32.4375 15.8125 C33.81467945 24.32757125 35.78658358 33.05860721 41.8125 39.5625 C44.58032833 42.96297481 44.42706218 44.9793782 44 49.25 C43.52328857 48.89083496 43.04657715 48.53166992 42.55541992 48.16162109 C38.26005779 44.9318923 33.94324881 41.73375814 29.6081543 38.55761719 C20.83652415 32.1283845 12.16052541 25.58499761 3.53369141 18.96289062 C-2.23878615 14.54640789 -8.07789474 10.25116017 -14.09106445 6.16699219 C-15.4279435 5.24182493 -16.72004865 4.2524493 -18 3.25 C-18 2.59 -18 1.93 -18 1.25 C-12.02118297 -0.11854573 -6.10675436 0.02652228 0 0 Z " fill="#F44951" transform="translate(356,95.75)"/>
<path d="M0 0 C0.66 0 1.32 0 2 0 C2.33 1.65 2.66 3.3 3 5 C2.34 5 1.68 5 1 5 C1 6.98 1 8.96 1 11 C0.67 11 0.34 11 0 11 C0 7.37 0 3.74 0 0 Z " fill="#66D364" transform="translate(253,85)"/>
<path d="M0 0 C0.66 0.33 1.32 0.66 2 1 C-1.625 5.875 -1.625 5.875 -5 7 C-3.70700306 4.11562221 -2.34058637 2.12780579 0 0 Z " fill="#24A24F" transform="translate(316,29)"/>
</svg>
