<?xml version="1.0" encoding="UTF-8"?>
<svg version="1.1" xmlns="http://www.w3.org/2000/svg" width="512" height="512">
<path d="M0 0 C2.34936711 0.84600834 3.48877571 1.77706144 5.25016671 3.53311473 C5.85440825 4.12829963 6.45864979 4.72348452 7.08120167 5.33670533 C7.73558459 5.99641617 8.3899675 6.656127 9.0641802 7.33582908 C9.76659091 8.03214869 10.46900163 8.72846831 11.19269753 9.44588852 C13.55296132 11.78945515 15.90231582 14.14366236 18.25184804 16.49798423 C19.93816023 18.17696016 21.62509549 19.85531049 23.31260854 21.53307945 C27.42323789 25.62375537 31.52666921 29.72154582 35.62644199 33.82310078 C38.95738563 37.15535113 42.29087085 40.4850378 45.62618238 43.8129161 C46.5862128 44.77084739 47.54624246 45.72877945 48.50627136 46.68671227 C48.98406686 47.16346424 49.46186236 47.64021621 49.95413651 48.13141521 C58.99171322 57.15008602 68.01928907 66.17871707 77.04400571 75.21025374 C85.30752957 83.47935711 93.58418892 91.73517022 101.86703131 99.98491887 C110.36641084 108.45060166 118.85651182 116.92548877 127.33674622 125.4103508 C132.10011986 130.17597272 136.86719572 134.93774925 141.64410001 139.689812 C146.13260322 144.15615626 150.60902528 148.63425785 155.07624608 153.1218856 C156.7219385 154.77100695 158.37195009 156.41583049 160.02645475 158.05611068 C162.27598209 160.28762014 164.50971746 162.53380244 166.73996145 164.78455955 C167.40549797 165.43757822 168.07103449 166.09059689 168.75673878 166.76340401 C169.34794158 167.36641215 169.93914438 167.96942029 170.54826242 168.5907014 C171.06593126 169.10809786 171.5836001 169.62549432 172.11695588 170.15856946 C173.08461171 171.75066978 173.08461171 171.75066978 172.84768677 173.80645943 C170.92139435 178.71438773 166.45423024 182.45132071 162.83461171 186.18816978 C162.35863546 186.6814376 161.8826592 187.17470542 161.39225942 187.68292075 C151.42180084 197.82206295 140.59325647 202.7646574 127.58070546 208.00848228 C119.81785926 211.15234149 114.24030161 215.12057424 108.08461171 220.75066978 C106.42923279 222.16250681 104.76069275 223.55781091 103.09193593 224.95379478 C101.43369588 226.34497745 99.78739898 227.74918218 98.14320546 229.15691978 C94.67249737 232.11605264 91.11475275 234.95939474 87.54164296 237.79363853 C83.0167629 241.39771629 78.55668068 245.08144068 74.08461171 248.75066978 C72.2515101 250.25095294 70.41817744 251.75095386 68.58461171 253.25066978 C67.67711171 253.99316978 66.76961171 254.73566978 65.83461171 255.50066978 C-52.41538829 352.25066978 -52.41538829 352.25066978 -55.16929454 354.50066978 C-56.99379828 355.995569 -58.81415385 357.49554599 -60.63023204 359.00066978 C-62.41086467 360.47218254 -64.20620883 361.92611748 -66.01743907 363.35980064 C-68.8828779 365.63312177 -68.8828779 365.63312177 -71.09483165 368.00286704 C-78.06165072 374.51101779 -84.50510108 375.76051363 -93.73570079 376.99676353 C-135.62950908 382.79847046 -156.5910899 396.43442239 -182.91538829 429.75066978 C-184.0321334 428.80024891 -185.14791318 427.8486937 -186.26328868 426.89666587 C-186.88474269 426.3668914 -187.5061967 425.83711692 -188.14648265 425.29128867 C-190.30983197 423.40713117 -192.34237842 421.42145175 -194.35288829 419.37566978 C-195.03222422 418.6873104 -195.71156016 417.99895103 -196.41148204 417.28973228 C-196.9077711 416.78184165 -197.40406016 416.27395103 -197.91538829 415.75066978 C-202.0555261 417.36511362 -204.720809 420.38826973 -207.72007579 423.53582603 C-208.8732524 424.71922615 -210.02691519 425.90215268 -211.18101329 427.08465415 C-212.9742363 428.93300469 -214.76330547 430.78485352 -216.54331797 432.64593345 C-229.69787237 446.36367413 -245.46417797 459.18935959 -265.43987864 459.87092429 C-266.81037611 459.87380163 -268.18089209 459.87121376 -269.55137461 459.86419517 C-270.30312968 459.86434119 -271.05488475 459.86448722 -271.82942027 459.86463767 C-274.30211654 459.86394373 -276.7747365 459.85617567 -279.24741954 459.84832603 C-280.96663197 459.84646001 -282.68584493 459.84503697 -284.40505809 459.84403831 C-288.92104908 459.84022763 -293.4370077 459.83040975 -297.95298594 459.81933433 C-302.5647979 459.80908901 -307.1766151 459.80453401 -311.78843516 459.7994979 C-320.83076706 459.78878616 -329.87307498 459.77172717 -338.91538829 459.75066978 C-339.01530684 455.3765431 -339.08734313 451.0030454 -339.13511485 446.62811118 C-339.1550581 445.1442693 -339.18222318 443.66050422 -339.2171461 442.17693931 C-339.50690914 429.53815703 -338.06469955 420.18308661 -329.05991954 410.72723228 C-321.95901656 404.18250203 -314.54013485 401.54240986 -304.83726329 401.44207603 C-303.49741542 401.41690344 -302.15757177 401.39150561 -300.81773204 401.36590415 C-298.7469438 401.33733987 -296.67622885 401.3132687 -294.60532969 401.29437095 C-276.63393143 401.09916956 -266.05180173 397.29878625 -253.37046641 384.46941978 C-252.53966563 383.61348228 -251.70886485 382.75754478 -250.85288829 381.87566978 C-249.98728282 380.99652915 -249.12167735 380.11738853 -248.22984141 379.21160728 C-246.11794476 377.06470681 -244.01343525 374.91109197 -241.91538829 372.75066978 C-245.39620569 368.60928647 -248.93234154 364.61276127 -252.79038829 360.81316978 C-253.57156016 360.04102134 -254.35273204 359.2688729 -255.15757579 358.47332603 C-255.73765391 357.90484946 -256.31773204 357.3363729 -256.91538829 356.75066978 C-253.26480577 352.2400771 -249.58153954 348.49070608 -245.05369395 344.87330467 C-216.65028137 322.07569259 -208.20145756 299.64053478 -203.6727125 264.02288657 C-202.13487642 252.4968565 -202.13487642 252.4968565 -198.37632579 248.35613853 C-197.88237315 247.7983773 -197.38842051 247.24061607 -196.87949961 246.66595298 C-196.35509288 246.09578452 -195.83068614 245.52561607 -195.29038829 244.93816978 C-194.19667707 243.70752051 -193.10423205 242.4757448 -192.01304454 241.24285728 C-191.48082286 240.64698814 -190.94860118 240.051119 -190.40025157 239.43719321 C-188.43397693 237.20387766 -186.57328261 234.89694118 -184.72788829 232.56316978 C-180.518899 227.24105936 -176.21923042 221.99620728 -171.91538829 216.75066978 C-170.41510512 214.91756816 -168.91510421 213.0842355 -167.41538829 211.25066978 C-131.41538829 167.25066978 -95.41538829 123.25066978 -59.41538829 79.25066978 C-58.67417735 78.34445884 -57.93296641 77.4382479 -57.16929454 76.50457603 C-55.65740601 74.65729455 -54.1443708 72.81095103 -52.63023204 70.96551353 C-51.8787086 70.04899009 -51.12718516 69.13246665 -50.35288829 68.18816978 C-49.69159922 67.38250571 -49.03031016 66.57684165 -48.34898204 65.74676353 C-47.5458961 64.75805259 -46.74281016 63.76934165 -45.91538829 62.75066978 C-45.01082896 61.73504966 -45.01082896 61.73504966 -44.08799571 60.69891196 C-38.19638719 53.84193994 -34.75451673 46.39984426 -31.35288829 38.12566978 C-27.8606967 29.64141447 -24.54419007 22.27160774 -17.91538829 15.75066978 C-16.56692798 14.31262123 -15.21929842 12.87379334 -13.87241954 11.43426353 C-12.49358369 10.01629327 -11.11205856 8.60093324 -9.72788829 7.18816978 C-9.02986094 6.45275962 -8.3318336 5.71734946 -7.61265391 4.95965415 C-6.93525157 4.27065025 -6.25784922 3.58164634 -5.55991954 2.87176353 C-4.65270152 1.93481651 -4.65270152 1.93481651 -3.72715586 0.97894126 C-1.91538829 -0.24933022 -1.91538829 -0.24933022 0 0 Z " fill="#DF6F37" transform="translate(338.91538828611374,26.24933022260666)"/>
<path d="M0 0 C2.30797203 0.87068454 3.4764201 1.82059895 5.21772653 3.55662853 C6.12408883 4.44940587 6.12408883 4.44940587 7.04876149 5.36021912 C7.7031444 6.01992996 8.35752731 6.6796408 9.03174001 7.35934287 C10.08535609 8.4038223 10.08535609 8.4038223 11.16025734 9.46940231 C13.52052113 11.81296894 15.86987563 14.16717616 18.21940786 16.52149802 C19.90572004 18.20047395 21.5926553 19.87882429 23.28016835 21.55659324 C27.39079771 25.64726917 31.49422902 29.74505962 35.59400181 33.84661458 C38.92494544 37.17886492 42.25843066 40.5085516 45.59374219 43.83642989 C46.55377262 44.79436118 47.51380228 45.75229324 48.47383118 46.71022606 C48.95162668 47.18697803 49.42942218 47.66373 49.92169633 48.154929 C58.95927303 57.17359982 67.98684888 66.20223086 77.01156553 75.23376753 C85.27508939 83.5028709 93.55174873 91.75868402 101.83459113 100.00843266 C110.33397066 108.47411545 118.82407163 116.94900256 127.30430603 125.43386459 C132.06767967 130.19948651 136.83475554 134.96126304 141.61165982 139.7133258 C146.10016303 144.17967005 150.5765851 148.65777164 155.0438059 153.14539939 C156.68949831 154.79452075 158.3395099 156.43934428 159.99401456 158.07962447 C162.2435419 160.31113393 164.47727727 162.55731624 166.70752126 164.80807334 C167.37305778 165.46109201 168.0385943 166.11411069 168.7242986 166.78691781 C169.3155014 167.38992594 169.9067042 167.99293408 170.51582223 168.6142152 C171.03349107 169.13161165 171.55115991 169.64900811 172.08451569 170.18208325 C173.05217153 171.77418357 173.05217153 171.77418357 172.81524658 173.82997322 C170.88895417 178.73790152 166.42179005 182.47483451 162.80217153 186.21168357 C162.32619527 186.70495139 161.85021901 187.19821922 161.35981923 187.70643455 C151.38936066 197.84557675 140.56081628 202.78817119 127.54826528 208.03199607 C119.78541908 211.17585528 114.20786142 215.14408804 108.05217153 220.77418357 C106.39679261 222.1860206 104.72825257 223.5813247 103.05949575 224.97730857 C101.40125569 226.36849124 99.7549588 227.77269598 98.11076528 229.18043357 C94.64005718 232.13956643 91.08231256 234.98290854 87.50920278 237.81715232 C82.98432271 241.42123008 78.5242405 245.10495447 74.05217153 248.77418357 C72.21906991 250.27446674 70.38573725 251.77446765 68.55217153 253.27418357 C67.64467153 254.01668357 66.73717153 254.75918357 65.80217153 255.52418357 C-52.44782847 352.27418357 -52.44782847 352.27418357 -55.19392222 354.52027732 C-57.04120369 356.03216585 -58.88754722 357.54520106 -60.73298472 359.05933982 C-66.76940174 364.00903198 -72.84054056 368.91219948 -78.94782847 373.77418357 C-82.96354102 372.16558853 -85.65262461 369.33777993 -88.63435191 366.31471092 C-89.19088954 365.75846534 -89.74742717 365.20221977 -90.32082957 364.62911826 C-92.15440289 362.79415452 -93.98079519 360.95221426 -95.80720347 359.11012107 C-97.07900372 357.83458968 -98.35124701 356.5594999 -99.6239149 355.28483421 C-102.96889105 351.93222962 -106.30781698 348.57366185 -109.64552134 345.2138198 C-113.05385678 341.78500901 -116.46787593 338.36186784 -119.88142222 334.93824607 C-126.57580145 328.22243085 -133.26380314 321.50030263 -139.94782847 314.77418357 C-138.63099871 311.86170647 -137.21711848 309.79564326 -134.9558689 307.54450828 C-134.33942588 306.92593326 -133.72298286 306.30735824 -133.08785975 305.67003852 C-132.40956065 304.99961147 -131.73126155 304.32918441 -131.03240794 303.63844138 C-130.31269944 302.91914073 -129.59299094 302.19984008 -128.85147309 301.45874244 C-126.43248723 299.04349474 -124.00643121 296.63547465 -121.58039683 294.22730857 C-119.84730626 292.49969184 -118.11467667 290.77161255 -116.38247508 289.04310447 C-112.64858835 285.31893834 -108.91176485 281.59775645 -105.1724512 277.87904197 C-99.76344122 272.4995571 -94.36138349 267.11313297 -88.96129311 261.72469598 C-80.19635034 252.97876617 -71.42804697 244.23621491 -62.65656871 235.49683982 C-62.13161382 234.97380287 -61.60665893 234.45076592 -61.06579632 233.91187936 C-55.20697716 228.0746135 -49.34734893 222.2381608 -43.48682994 216.40260154 C-41.36078283 214.28558635 -39.23474343 212.16856342 -37.10871714 210.05152732 C-36.32178659 209.26792925 -36.32178659 209.26792925 -35.51895844 208.46850091 C-26.77737633 199.76361627 -18.04160124 191.05292939 -9.31037641 182.33765632 C-3.92315284 176.9607763 1.46906213 171.58899775 6.86775964 166.22363788 C11.0009112 162.1151991 15.12637338 157.99909981 19.24899656 153.88009483 C20.94396154 152.1891616 22.64152276 150.50082636 24.34181005 148.81524497 C26.65605618 146.52030229 28.96097225 144.21638252 31.26373464 141.90992576 C31.94426446 141.2394987 32.62479428 140.56907165 33.32594621 139.87832862 C34.24669912 138.95046609 34.24669912 138.95046609 35.1860531 138.00385886 C35.71923546 137.47289981 36.25241782 136.94194076 36.80175722 136.39489204 C38.2505148 134.51710349 38.74044109 133.11655321 39.05217153 130.77418357 C37.99308673 128.97405276 37.99308673 128.97405276 36.24920827 127.36994773 C35.27943547 126.38986495 35.27943547 126.38986495 34.29007131 125.38998252 C33.56646917 124.68435676 32.84286702 123.978731 32.09733754 123.25172263 C30.97101918 122.12430907 30.97101918 122.12430907 29.82194692 120.97411948 C27.32832226 118.48398804 24.81743305 116.01204685 22.30607778 113.53980857 C20.57720427 111.82025689 18.84942884 110.09960054 17.12271291 108.3778823 C12.56826374 103.84255197 7.99900041 99.32243333 3.42656118 94.80525047 C-1.23391345 90.195862 -5.88031969 85.57234111 -10.5279066 80.94996482 C-19.65411242 71.87743302 -28.79555133 62.8204103 -37.94782847 53.77418357 C-37.4357207 52.44748901 -37.4357207 52.44748901 -36.91326731 51.09399253 C-36.46439662 49.92941016 -36.01552592 48.7648278 -35.55305308 47.56495506 C-35.1085229 46.41236701 -34.66399272 45.25977897 -34.20599192 44.07226402 C-33.19822151 41.4305501 -32.22049374 38.782404 -31.26423472 36.12183982 C-27.04651654 25.4063568 -20.69602357 17.56923158 -12.63532847 9.52418357 C-11.89489802 8.77722724 -11.89489802 8.77722724 -11.13950938 8.01518089 C-2.79230691 -0.32371884 -2.79230691 -0.32371884 0 0 Z " fill="#DB4A4B" transform="translate(338.9478284716606,26.225816428661346)"/>
<path d="M0 0 C3.71883455 1.55624499 6.08594692 3.83446956 8.92279053 6.66882324 C9.40398385 7.14689659 9.88517718 7.62496993 10.38095212 8.11753035 C11.99020182 9.71881015 13.592217 11.32713494 15.19433594 12.93554688 C16.34720631 14.08570701 17.50050168 15.23544127 18.65419006 16.38478088 C21.7845839 19.50605438 24.90861526 22.63362437 28.03127956 25.76262856 C31.29677254 29.03318089 34.56713755 32.29885549 37.83673096 35.56530762 C43.32460899 41.04954686 48.80825563 46.53799056 54.28955078 52.02880859 C60.63424504 58.38439806 66.986127 64.73273568 73.34176993 71.07737494 C78.79346872 76.5200113 84.24127721 81.9665186 89.68582559 87.41630793 C92.93992757 90.67353398 96.19538009 93.92937929 99.45433807 97.18174744 C102.51548605 100.2371374 105.57173694 103.29734129 108.62420464 106.36140251 C109.74802422 107.48787652 110.87356757 108.61263372 112.00090981 109.73558235 C113.53364215 111.26288882 115.06014225 112.79615719 116.58514404 114.33117676 C117.87154848 115.61871227 117.87154848 115.61871227 119.18394089 116.93225861 C121 119 121 119 121 121 C120.01237167 121.10439896 120.01237167 121.10439896 119.00479126 121.21090698 C110.49907679 122.15513514 102.05307783 123.39719856 93.625 124.875 C92.94831772 124.9934515 92.27163544 125.111903 91.57444763 125.23394394 C67.85840072 129.50091631 52.51401635 138.08620001 36.25 155.8125 C35.79913277 156.30360008 35.34826553 156.79470016 34.88373566 157.30068207 C29.36402015 163.35186292 24.07741407 169.57398321 19 176 C17.88325489 175.04957913 16.76747511 174.09802392 15.65209961 173.14599609 C15.0306456 172.61622162 14.40919159 172.08644714 13.76890564 171.5406189 C11.60555632 169.65646139 9.57300987 167.67078197 7.5625 165.625 C6.88316406 164.93664062 6.20382813 164.24828125 5.50390625 163.5390625 C5.00761719 163.03117188 4.51132813 162.52328125 4 162 C-0.14013781 163.61444384 -2.80542072 166.63759995 -5.8046875 169.78515625 C-6.95786411 170.96855637 -8.1115269 172.1514829 -9.265625 173.33398438 C-11.05884801 175.18233491 -12.84791718 177.03418374 -14.62792969 178.89526367 C-27.78248409 192.61300435 -43.54878969 205.43868981 -63.52449036 206.12025452 C-64.89498783 206.12313185 -66.26550381 206.12054398 -67.63598633 206.11352539 C-68.38774139 206.11367142 -69.13949646 206.11381744 -69.91403198 206.1139679 C-72.38672826 206.11327395 -74.85934821 206.1055059 -77.33203125 206.09765625 C-79.05124368 206.09579023 -80.77045665 206.09436719 -82.4896698 206.09336853 C-87.00566079 206.08955786 -91.52161942 206.07973997 -96.03759766 206.06866455 C-100.64940961 206.05841924 -105.26122681 206.05386423 -109.87304688 206.04882812 C-118.91537877 206.03811638 -127.95768669 206.0210574 -137 206 C-137.09991855 201.62587332 -137.17195484 197.25237563 -137.21972656 192.87744141 C-137.23966981 191.39359952 -137.2668349 189.90983445 -137.30175781 188.42626953 C-137.59152086 175.78748725 -136.14931126 166.43241683 -127.14453125 156.9765625 C-120.04362828 150.43183225 -112.62474657 147.79174008 -102.921875 147.69140625 C-101.58202714 147.66623366 -100.24218349 147.64083583 -98.90234375 147.61523438 C-96.83155551 147.58667009 -94.76084057 147.56259892 -92.68994141 147.54370117 C-74.71854314 147.34849978 -64.13641345 143.54811647 -51.45507812 130.71875 C-50.62427734 129.8628125 -49.79347656 129.006875 -48.9375 128.125 C-48.07189453 127.24585938 -47.20628906 126.36671875 -46.31445312 125.4609375 C-44.20255647 123.31403703 -42.09804696 121.1604222 -40 119 C-43.4808174 114.8586167 -47.01695326 110.86209149 -50.875 107.0625 C-51.65617187 106.29035156 -52.43734375 105.51820313 -53.2421875 104.72265625 C-53.82226562 104.15417969 -54.40234375 103.58570313 -55 103 C-51.3494247 98.48941624 -47.666179 94.74003664 -43.13832092 91.12266541 C-13.94329189 67.6894282 -5.69967586 44.01291175 -1.33357239 7.44703674 C-0.99149063 4.93757652 -0.52145837 2.47784015 0 0 Z " fill="#EAF2FA" transform="translate(137,280)"/>
<path d="M0 0 C2.30797203 0.87068454 3.4764201 1.82059895 5.21772653 3.55662853 C6.12408883 4.44940587 6.12408883 4.44940587 7.04876149 5.36021912 C7.7031444 6.01992996 8.35752731 6.6796408 9.03174001 7.35934287 C9.73415073 8.05566249 10.43656145 8.7519821 11.16025734 9.46940231 C13.52052113 11.81296894 15.86987563 14.16717616 18.21940786 16.52149802 C19.90572004 18.20047395 21.5926553 19.87882429 23.28016835 21.55659324 C27.39079771 25.64726917 31.49422902 29.74505962 35.59400181 33.84661458 C38.92494544 37.17886492 42.25843066 40.5085516 45.59374219 43.83642989 C46.55377262 44.79436118 47.51380228 45.75229324 48.47383118 46.71022606 C48.95162668 47.18697803 49.42942218 47.66373 49.92169633 48.154929 C58.95927303 57.17359982 67.98684888 66.20223086 77.01156553 75.23376753 C85.27508939 83.5028709 93.55174873 91.75868402 101.83459113 100.00843266 C110.33397066 108.47411545 118.82407163 116.94900256 127.30430603 125.43386459 C132.06767967 130.19948651 136.83475554 134.96126304 141.61165982 139.7133258 C146.10016303 144.17967005 150.5765851 148.65777164 155.0438059 153.14539939 C156.68949831 154.79452075 158.3395099 156.43934428 159.99401456 158.07962447 C162.2435419 160.31113393 164.47727727 162.55731624 166.70752126 164.80807334 C167.37305778 165.46109201 168.0385943 166.11411069 168.7242986 166.78691781 C169.3155014 167.38992594 169.9067042 167.99293408 170.51582223 168.6142152 C171.03349107 169.13161165 171.55115991 169.64900811 172.08451569 170.18208325 C173.05217153 171.77418357 173.05217153 171.77418357 172.81524658 173.82997322 C170.88913237 178.73744748 166.4224658 182.47602426 162.80217153 186.21168357 C162.3291863 186.70096336 161.85620107 187.19024314 161.36888295 187.69434959 C153.33903798 195.84148931 144.89319369 201.22778955 134.42717153 205.77418357 C133.78952871 206.05502799 133.15188588 206.33587241 132.49492055 206.62522727 C122.10651289 211.11786021 122.10651289 211.11786021 119.27706701 210.19556457 C116.00540507 208.10545375 113.40410624 205.39339298 110.68675405 202.64927512 C110.05038573 202.01461566 109.41401742 201.37995619 108.75836521 200.72606462 C106.62397783 198.59497548 104.49682436 196.45680921 102.36955434 194.31861717 C100.8423197 192.79081848 99.31464472 191.26345985 97.78656179 189.73650962 C93.63574613 185.58626876 89.49113408 181.42988186 85.34758645 177.27238637 C81.01763789 172.92995156 76.68204055 168.59316427 72.34703237 164.25578147 C64.13727356 156.03980171 55.93262714 147.81873611 47.72979313 139.59584326 C38.39161731 130.23532761 29.04777484 120.88047736 19.70344573 111.52610499 C0.4800304 92.28177371 -18.73623713 73.03031822 -37.94782847 53.77418357 C-37.4357207 52.44748901 -37.4357207 52.44748901 -36.91326731 51.09399253 C-36.46439662 49.92941016 -36.01552592 48.7648278 -35.55305308 47.56495506 C-35.1085229 46.41236701 -34.66399272 45.25977897 -34.20599192 44.07226402 C-33.19822151 41.4305501 -32.22049374 38.782404 -31.26423472 36.12183982 C-27.04651654 25.4063568 -20.69602357 17.56923158 -12.63532847 9.52418357 C-12.14170817 9.02621269 -11.64808787 8.5282418 -11.13950938 8.01518089 C-2.79230691 -0.32371884 -2.79230691 -0.32371884 0 0 Z " fill="#B21060" transform="translate(338.9478284716606,26.225816428661346)"/>
<path d="M0 0 C3.10233575 1.38214186 5.23327839 2.97747207 7.63874817 5.36459351 C8.34406677 6.05993698 9.04938538 6.75528046 9.77607727 7.47169495 C10.92102913 8.6156498 10.92102913 8.6156498 12.08911133 9.78271484 C12.90084808 10.58612808 13.71258484 11.38954132 14.54891968 12.21730042 C17.23211165 14.87638243 19.90756851 17.54307761 22.58203125 20.2109375 C24.439512 22.05945587 26.29707225 23.90789436 28.15470886 25.7562561 C32.04667596 29.63086978 35.93338626 33.51070906 39.81811523 37.39257812 C44.31208161 41.88290219 48.81903221 46.3599019 53.33203107 50.83108938 C57.67206031 55.13230984 61.99829086 59.44716264 66.31952477 63.76726151 C68.16112626 65.60464283 70.00687024 67.43788149 71.85672951 69.2669487 C74.43568033 71.81919768 76.99852837 74.38659646 79.55786133 76.95849609 C80.71799492 78.09637825 80.71799492 78.09637825 81.90156555 79.25724792 C82.93839478 80.30872261 82.93839478 80.30872261 83.99617004 81.38143921 C84.6039671 81.98722494 85.21176416 82.59301067 85.83797932 83.21715355 C87 85 87 85 86.79229259 87.08445168 C84.77431421 91.96337538 80.37924556 95.69260416 76.75 99.4375 C76.27701477 99.92677979 75.80402954 100.41605957 75.31671143 100.92016602 C67.28686645 109.06730574 58.84102216 114.45360598 48.375 119 C47.73735718 119.28084442 47.09971436 119.56168884 46.44274902 119.8510437 C35.97184724 124.37935253 35.97184724 124.37935253 33.03744888 123.2339344 C30.92655115 121.95551738 29.37397789 120.62024934 27.63372803 118.87423706 C26.98875366 118.23201202 26.3437793 117.58978699 25.67926025 116.92810059 C24.98298523 116.22463501 24.28671021 115.52116943 23.56933594 114.79638672 C22.82748047 114.0548233 22.085625 113.31325989 21.32128906 112.54922485 C18.87088061 110.09742329 16.427632 107.63861395 13.984375 105.1796875 C12.28658943 103.47817175 10.58836171 101.77709708 8.88970947 100.07644653 C4.42025084 95.59935194 -0.04316914 91.11628362 -4.50537109 86.63195801 C-9.05985468 82.05701531 -13.62000567 77.48772952 -18.1796875 72.91796875 C-27.12535692 63.95085005 -36.0648529 54.97760292 -45 46 C-41.6943682 42.08379008 -38.37111894 38.24572313 -34.73876953 34.62524414 C-33.95841339 33.84496353 -33.17805725 33.06468292 -32.37405396 32.26075745 C-31.55194427 31.44380905 -30.72983459 30.62686066 -29.8828125 29.78515625 C-29.02565643 28.92941513 -28.16850037 28.07367401 -27.28536987 27.19200134 C-24.56760046 24.47979535 -21.84636109 21.7711017 -19.125 19.0625 C-17.27320658 17.21572631 -15.42164166 15.36872347 -13.5703125 13.52148438 C-9.04951565 9.01166799 -4.52587054 4.50472431 0 0 Z " fill="#830C48" transform="translate(425,113)"/>
<path d="M0 0 C3.31613882 1.44580966 5.49185728 3.24829792 8.03417969 5.80712891 C8.81468689 6.58778717 9.59519409 7.36844543 10.39935303 8.17276001 C11.23178528 9.01551483 12.06421753 9.85826965 12.921875 10.7265625 C13.78186096 11.58937836 14.64184692 12.45219421 15.52789307 13.34115601 C18.2733231 16.09778029 21.0117169 18.86127799 23.75 21.625 C25.61021783 23.49524857 27.47088946 25.36504589 29.33203125 27.234375 C33.89329945 31.8176936 38.44881011 36.40667478 43 41 C37.93193267 47.01052541 32.588783 52.69741701 27.0625 58.28759766 C26.0296576 59.33690098 25.00219044 60.39152541 23.98046875 61.45166016 C11.33023853 74.57177942 -4.52862206 86.47212139 -23.52449036 87.12025452 C-24.89498783 87.12313185 -26.26550381 87.12054398 -27.63598633 87.11352539 C-28.38774139 87.11367142 -29.13949646 87.11381744 -29.91403198 87.1139679 C-32.38672826 87.11327395 -34.85934821 87.1055059 -37.33203125 87.09765625 C-39.05124368 87.09579023 -40.77045665 87.09436719 -42.4896698 87.09336853 C-47.00566079 87.08955786 -51.52161942 87.07973997 -56.03759766 87.06866455 C-60.64940961 87.05841924 -65.26122681 87.05386423 -69.87304688 87.04882812 C-78.91537877 87.03811638 -87.95768669 87.0210574 -97 87 C-97.09991855 82.62587332 -97.17195484 78.25237563 -97.21972656 73.87744141 C-97.23966981 72.39359952 -97.2668349 70.90983445 -97.30175781 69.42626953 C-97.59152086 56.78748725 -96.14931126 47.43241683 -87.14453125 37.9765625 C-80.04362828 31.43183225 -72.62474657 28.79174008 -62.921875 28.69140625 C-61.58202714 28.66623366 -60.24218349 28.64083583 -58.90234375 28.61523438 C-56.83155551 28.58667009 -54.76084057 28.56259892 -52.68994141 28.54370117 C-34.71854314 28.34849978 -24.13641345 24.54811647 -11.45507812 11.71875 C-10.62427734 10.8628125 -9.79347656 10.006875 -8.9375 9.125 C-8.07189453 8.24585938 -7.20628906 7.36671875 -6.31445312 6.4609375 C-4.20255647 4.31403703 -2.09804696 2.1604222 0 0 Z " fill="#FEDE8D" transform="translate(97,399)"/>
<path d="M0 0 C4.38860118 3.68484357 8.59649332 7.46795645 12.65991211 11.51464844 C13.17787354 12.02925125 13.69583496 12.54385406 14.22949219 13.0740509 C15.91471947 14.74989487 17.59626105 16.42937423 19.27734375 18.109375 C20.45553997 19.28435383 21.63380961 20.45925904 22.81214905 21.63409424 C25.26724511 24.08323366 27.7202973 26.53439941 30.17211914 28.98681641 C33.32014228 32.1349419 36.47503211 35.27608978 39.63165951 38.41558456 C42.06018796 40.83303128 44.48419515 43.25497189 46.90692329 45.67823029 C48.06917764 46.83930219 49.23305934 47.99874739 50.39857292 49.15654755 C52.01909271 50.76732903 53.63322405 52.38425044 55.24584961 54.00292969 C56.16627548 54.92193054 57.08670135 55.8409314 58.03501892 56.78778076 C60 59 60 59 60 61 C59.34158112 61.0695993 58.68316223 61.13919861 58.00479126 61.21090698 C49.49907679 62.15513514 41.05307783 63.39719856 32.625 64.875 C31.94831772 64.9934515 31.27163544 65.111903 30.57444763 65.23394394 C6.85840072 69.50091631 -8.48598365 78.08620001 -24.75 95.8125 C-25.20086723 96.30360008 -25.65173447 96.79470016 -26.11626434 97.30068207 C-31.63597985 103.35186292 -36.92258593 109.57398321 -42 116 C-46.98592875 111.82222235 -51.66704284 107.46872723 -56.24609375 102.8515625 C-56.90207047 102.19417084 -57.55804718 101.53677917 -58.23390198 100.85946655 C-60.30415268 98.78367138 -62.37087651 96.70440573 -64.4375 94.625 C-65.85067862 93.2067992 -67.26408794 91.78882824 -68.67773438 90.37109375 C-72.12116065 86.91671223 -75.56143099 83.4592163 -79 80 C-74.7507125 74.9256555 -70.30894515 70.16990451 -65.61767578 65.50415039 C-64.90478897 64.79111755 -64.19190216 64.07808472 -63.45741272 63.34344482 C-61.12241086 61.00913443 -58.78389705 58.6783769 -56.4453125 56.34765625 C-54.81699116 54.72120181 -53.18889182 53.09452509 -51.56100464 51.46763611 C-47.29220984 47.20264503 -43.0204196 42.94066664 -38.74798584 38.67932129 C-34.38225097 34.32384678 -30.01937329 29.96551227 -25.65625 25.60742188 C-17.10695118 17.06882253 -8.55448323 8.53340507 0 0 Z " fill="#D7E6F5" transform="translate(198,340)"/>
<path d="M0 0 C3.42482707 1.61776117 5.65690522 3.42343244 8.328125 6.1328125 C9.12734375 6.93847656 9.9265625 7.74414062 10.75 8.57421875 C11.575 9.41597656 12.4 10.25773437 13.25 11.125 C14.09046875 11.97449219 14.9309375 12.82398438 15.796875 13.69921875 C17.86915683 15.79504923 19.93662393 17.89540713 22 20 C16.98866841 26.05821936 11.58594983 31.70028294 6.0625 37.28759766 C5.0296576 38.33690098 4.00219044 39.39152541 2.98046875 40.45166016 C-9.40915826 53.30149618 -25.13726634 65.35005982 -43.77075195 66.11352539 C-45.23967896 66.10567017 -45.23967896 66.10567017 -46.73828125 66.09765625 C-48.33833008 66.09282227 -48.33833008 66.09282227 -49.97070312 66.08789062 C-51.62489258 66.07532227 -51.62489258 66.07532227 -53.3125 66.0625 C-54.43462891 66.05798828 -55.55675781 66.05347656 -56.71289062 66.04882812 C-59.4753151 66.03707313 -62.23762998 66.02064077 -65 66 C-61.14902009 61.39590367 -57.16072823 57.01832588 -52.90283203 52.78930664 C-52.32649521 52.21282379 -51.75015839 51.63634094 -51.15635681 51.04238892 C-49.27587265 49.16259405 -47.39188591 47.28635307 -45.5078125 45.41015625 C-44.19337426 44.09758569 -42.87915856 42.78479224 -41.56515503 41.4717865 C-38.12493488 38.03536398 -34.68172107 34.60195663 -31.237854 31.16918945 C-27.71663589 27.65824499 -24.19828651 24.1444283 -20.6796875 20.63085938 C-13.78924732 13.75110788 -6.89563795 6.87454145 0 0 Z " fill="#FDC672" transform="translate(118,420)"/>
</svg>
