<?xml version="1.0" encoding="UTF-8"?>
<svg version="1.1" xmlns="http://www.w3.org/2000/svg" width="512" height="512">
<path d="M0 0 C1.75570312 -0.04253906 1.75570312 -0.04253906 3.546875 -0.0859375 C12.22541072 0.99430218 17.66751312 6.20904369 23.62207031 12.22949219 C24.81387405 13.41078201 24.81387405 13.41078201 26.02975464 14.61593628 C28.63932734 17.20798132 31.23408494 19.81429229 33.828125 22.421875 C35.64498478 24.23603841 37.46243784 26.04960784 39.28045654 27.86260986 C43.08283683 31.65910211 46.8780963 35.46251084 50.66796875 39.27148438 C55.03672266 43.66200339 59.41969921 48.03792721 63.81034017 52.40655017 C68.05040179 56.62620573 72.27904752 60.85709636 76.50307465 65.09281158 C78.29424463 66.88664377 80.08837385 68.67752626 81.88553619 70.46535492 C84.39868473 72.96830884 86.89859459 75.48379301 89.39550781 78.00292969 C90.13531891 78.73464386 90.87513 79.46635803 91.63735962 80.22024536 C97.82137984 86.50625652 101.82280896 92.30311958 101.8125 101.375 C101.58660724 108.65809405 99.82475395 112.81853123 94.72265625 117.89453125 C89.64326883 122.37938477 85.04984645 124.26706593 78.25 124.375 C68.68155565 123.35501355 62.87825034 118.31952241 56.375 111.625 C55.78203125 111.02300781 55.1890625 110.42101562 54.578125 109.80078125 C53.13076876 108.33008055 51.6897237 106.8531733 50.25 105.375 C47.29734888 106.70494383 45.22649784 108.15279316 42.95019531 110.44775391 C42.32985413 111.06824615 41.70951294 111.6887384 41.07037354 112.32803345 C40.41293152 112.99579803 39.7554895 113.66356262 39.078125 114.3515625 C38.3957074 115.03681 37.71328979 115.7220575 37.01019287 116.42807007 C34.83538402 118.61405845 32.66763928 120.80690429 30.5 123 C29.0252001 124.48483255 27.54994494 125.96921306 26.07421875 127.453125 C22.46084552 131.0885291 18.85379147 134.73009824 15.25 138.375 C16.59497495 141.38641271 18.06930086 143.42003407 20.44287109 145.69970703 C21.09049408 146.32781281 21.73811707 146.95591858 22.40536499 147.60305786 C23.10432892 148.27287689 23.80329285 148.94269592 24.5234375 149.6328125 C26.00319727 151.07751776 27.48234454 152.52285059 28.9609375 153.96875 C31.28708852 156.2331968 33.61740942 158.49271114 35.95898438 160.74121094 C38.22353721 162.92043558 40.46819734 165.11867418 42.7109375 167.3203125 C43.40585297 167.97798615 44.10076843 168.63565979 44.81674194 169.31326294 C50.49516512 174.93169508 53.70706761 180.95397912 54.6875 188.9375 C53.75110532 196.29488678 51.72437914 202.1439266 46.25 207.375 C40.29372643 211.44142747 33.81156326 213.21692242 26.66796875 211.8984375 C21.48288343 210.48361662 17.71003431 208.40280441 13.25 205.375 C12.76229515 205.86498317 12.27459031 206.35496634 11.77210653 206.85979748 C-17.16247758 235.92878116 -46.11281143 264.98199696 -75.08355436 294.01494634 C-78.56558306 297.50447887 -82.04748053 300.99414231 -85.52929688 304.48388672 C-86.22243777 305.17860148 -86.91557867 305.87331624 -87.62972383 306.58908296 C-98.83840245 317.82383745 -110.03642777 329.0691526 -121.23052092 340.3184377 C-132.72520845 351.86932351 -144.2313427 363.40871425 -155.74808252 374.93761349 C-162.84863535 382.04638055 -169.94021356 389.16386036 -177.02040718 396.29290599 C-181.8828052 401.18712985 -186.75632336 406.07009907 -191.63854207 410.94455034 C-194.45095227 413.7531346 -197.25838273 416.56624243 -200.05265236 419.39288521 C-216.25449782 435.77284938 -231.79019776 450.58318525 -256.265625 451.5078125 C-258.11414063 451.50394531 -258.11414063 451.50394531 -260 451.5 C-261.31871094 451.50515625 -262.63742187 451.5103125 -263.99609375 451.515625 C-267.21444968 451.39506224 -269.94046275 450.94268655 -273.0625 450.25 C-275.42574596 449.83836295 -275.42574596 449.83836295 -277.75 450.375 C-280.5744281 452.59451121 -282.84626611 455.04525155 -285.23828125 457.72265625 C-291.53083855 464.36751847 -299.46561245 467.90745131 -308.546875 468.7109375 C-319.66824273 468.82083244 -328.66182005 467.24655069 -337.75 460.375 C-338.53375 459.7975 -339.3175 459.22 -340.125 458.625 C-340.66125 458.2125 -341.1975 457.8 -341.75 457.375 C-345.60684522 458.95999863 -348.02944047 461.41932933 -350.94580078 464.35961914 C-351.45035797 464.86549057 -351.95491516 465.371362 -352.47476196 465.89256287 C-354.13626333 467.56053918 -355.79067509 469.23537314 -357.4453125 470.91015625 C-358.60014693 472.07126268 -359.75549909 473.2318544 -360.91134644 474.39195251 C-363.94960484 477.44350162 -366.98224256 480.50057074 -370.01330566 483.55926514 C-374.8707948 488.45991143 -379.7350526 493.35381697 -384.60253525 498.24453545 C-386.30334907 499.95559067 -388.00072014 501.67000774 -389.69778442 503.38478088 C-390.73607085 504.42989318 -391.77446618 505.47489729 -392.81298828 506.51977539 C-394.17389084 507.89305748 -394.17389084 507.89305748 -395.56228638 509.29408264 C-398.94152948 512.50836332 -401.15081492 512.53017065 -405.77734375 512.703125 C-408.3646813 512.27275598 -409.08669046 511.37041626 -410.75 509.375 C-411.68901491 505.4961949 -411.90938817 504.07924855 -410.75 500.375 C-407.23186455 495.57687421 -402.99965033 491.57718662 -398.71875 487.46484375 C-397.48368008 486.24657341 -396.25059239 485.02629051 -395.01940918 483.80409241 C-391.78380129 480.60274131 -388.52208692 477.42934341 -385.25408936 474.2611084 C-381.92005214 471.01937025 -378.61155299 467.75179371 -375.30078125 464.48632812 C-368.80852492 458.09040616 -362.28838157 451.72373792 -355.75 445.375 C-356.81362541 442.53239049 -357.66618686 440.47557576 -359.625 438.125 C-366.88414646 428.73081046 -367.75807715 417.83554188 -366.75 406.375 C-364.75184268 396.57680687 -359.22107387 389.33488661 -351.75 382.9375 C-349.74731992 380.97942304 -348.81873901 380.0561411 -348.53515625 377.24609375 C-348.72891591 375.58958512 -348.97841431 373.93907309 -349.26953125 372.296875 C-351.55947226 358.37105486 -349.18282904 344.72808674 -343.125 332.125 C-342.83109375 331.49988525 -342.5371875 330.87477051 -342.234375 330.23071289 C-337.10935778 320.2502106 -327.94567097 312.42358786 -320.08787537 304.59262085 C-319.15730271 303.66119377 -318.22673005 302.72976669 -317.26795822 301.77011454 C-314.71376894 299.21371216 -312.15651117 296.66039962 -309.59869373 294.10762811 C-306.83012924 291.3434142 -304.06448844 288.57627764 -301.29847717 285.80950928 C-296.51533446 281.02584424 -291.73037586 276.24400196 -286.94415092 271.46342087 C-280.02422113 264.55164561 -273.10708039 257.63708459 -266.19059993 250.72185786 C-254.9668332 239.50027546 -243.74083883 228.28092434 -232.51342773 217.06298828 C-221.61218561 206.17093632 -210.71200257 195.27782626 -199.81323242 184.38330078 C-199.14053593 183.71086702 -198.46783944 183.03843325 -197.77475821 182.3456227 C-194.39977658 178.97194619 -191.02481566 175.59824895 -187.64986503 172.22454143 C-159.68645269 144.27148239 -131.71941833 116.32204945 -103.75 88.375 C-104.09498535 87.83665527 -104.4399707 87.29831055 -104.79541016 86.74365234 C-105.47289307 85.6755835 -105.47289307 85.6755835 -106.1640625 84.5859375 C-106.61217285 83.88259277 -107.0602832 83.17924805 -107.52197266 82.45458984 C-111.20365771 76.21987944 -111.20886285 70.25867137 -109.75 63.375 C-107.6850106 56.70803423 -103.7486568 52.80280388 -97.75 49.375 C-89.97703576 46.37490854 -83.92366592 46.88567562 -76.38311768 50.00109863 C-71.8660847 52.35798448 -68.61507171 55.77227354 -65.1171875 59.421875 C-64.3544754 60.19307678 -63.59176331 60.96427856 -62.80593872 61.7588501 C-60.39770599 64.20039262 -58.01130649 66.66204245 -55.625 69.125 C-53.9857792 70.79434877 -52.34516665 72.46233211 -50.703125 74.12890625 C-46.70252586 78.19529199 -42.71959321 82.27835292 -38.75 86.375 C-35.79734888 85.04505617 -33.72649784 83.59720684 -31.45019531 81.30224609 C-30.82985413 80.68175385 -30.20951294 80.0612616 -29.57037354 79.42196655 C-28.91293152 78.75420197 -28.2554895 78.08643738 -27.578125 77.3984375 C-26.8957074 76.71319 -26.21328979 76.0279425 -25.51019287 75.32192993 C-23.33538402 73.13594155 -21.16763928 70.94309571 -19 68.75 C-17.5252001 67.26516745 -16.04994494 65.78078694 -14.57421875 64.296875 C-10.96084552 60.6614709 -7.35379147 57.01990176 -3.75 53.375 C-5.119537 50.52419237 -6.37617646 48.52651895 -8.68359375 46.3515625 C-9.25013672 45.805 -9.81667969 45.2584375 -10.40039062 44.6953125 C-11.585842 43.57075316 -12.77332533 42.4483317 -13.96289062 41.328125 C-19.35191656 36.11649038 -22.14176863 31.21531593 -22.75 23.67578125 C-22.75 17.28718865 -20.74411724 12.36764655 -16.75 7.375 C-11.4412852 2.22326333 -7.42851133 0.08109729 0 0 Z " fill="#9ECBEA" transform="translate(410.75,-0.375)"/>
<path d="M0 0 C0.54962402 0.72361221 1.09924805 1.44722443 1.66552734 2.19276428 C4.05105275 5.06139164 6.56437132 7.43822663 9.3515625 9.91577148 C15.94176573 15.85597651 22.20003671 22.09784877 28.44345093 28.39885139 C30.42533765 30.3984436 32.41101695 32.39420155 34.39770508 34.38902283 C40.0356296 40.05115134 45.66756373 45.71921236 51.29541016 51.39135742 C54.76092211 54.88362518 58.23127061 58.37102562 61.70465088 61.85546684 C63.02065728 63.17767234 64.33476426 64.50177121 65.64691162 65.82780647 C67.47232165 67.672404 69.30378337 69.51078487 71.13671875 71.34790039 C71.67388016 71.89382339 72.21104156 72.4397464 72.76448059 73.00221252 C75.36655245 75.59751652 77.67491683 77.46511313 81 79 C60.99272552 99.10080981 40.97393611 119.19008829 20.94146252 139.26578617 C11.63983372 148.58802022 2.34197716 157.91395865 -6.94702148 167.2487793 C-15.04545516 175.38714283 -23.15094922 183.51839683 -31.26491851 191.64127249 C-35.55900266 195.94056089 -39.84952366 200.24327184 -44.13160133 204.55452156 C-48.16690964 208.61709579 -52.21163395 212.67005623 -56.26359177 216.71602249 C-57.74443454 218.1979605 -59.22188515 219.68329768 -60.69555092 221.17237282 C-72.15175734 232.74240739 -83.61166361 244.14119053 -100.88720703 244.51928711 C-101.66692871 244.51292236 -102.44665039 244.50655762 -103.25 244.5 C-104.07483887 244.49427979 -104.89967773 244.48855957 -105.74951172 244.48266602 C-122.92361759 243.98619829 -133.61895961 233.73852556 -145.1875 222.1875 C-146.48204102 220.92969727 -146.48204102 220.92969727 -147.80273438 219.64648438 C-158.02052431 209.4756009 -164.88709343 197.68772146 -165.3125 183 C-165.25000846 176.44731515 -163.91998904 169.89405194 -161 164 C-159.21704102 163.05932617 -159.21704102 163.05932617 -157 163 C-154.72924805 164.81420898 -154.72924805 164.81420898 -152.26171875 167.49609375 C-151.35873047 168.44677734 -150.45574219 169.39746094 -149.52539062 170.37695312 C-148.10432957 171.90345961 -146.68953954 173.43527431 -145.28051758 174.97290039 C-143.91495024 176.45359865 -142.52603585 177.9126564 -141.13671875 179.37109375 C-140.31905029 180.25724365 -139.50138184 181.14339355 -138.65893555 182.05639648 C-135.22981865 184.56297986 -133.15651838 184.48681605 -129 184 C-126.81452316 182.55851025 -126.81452316 182.55851025 -126 180 C-126.20834793 174.12928612 -127.96773735 171.1875329 -132.12890625 167.28515625 C-132.63800034 166.78455185 -133.14709442 166.28394745 -133.6716156 165.76817322 C-135.28829066 164.18487384 -136.9246066 162.62380906 -138.5625 161.0625 C-139.66738545 159.98773454 -140.77091692 158.9115753 -141.87304688 157.83398438 C-144.5666333 155.20627097 -147.27802999 152.59828734 -150 150 C-148.4608199 146.33247995 -146.24514548 144.01419427 -143.4296875 141.234375 C-142.53378906 140.34492188 -141.63789063 139.45546875 -140.71484375 138.5390625 C-139.77769531 137.61867188 -138.84054688 136.69828125 -137.875 135.75 C-136.92011363 134.80515144 -135.96568141 133.85984367 -135.01171875 132.9140625 C-132.67890913 130.60481662 -130.34155914 128.30036797 -128 126 C-124.14731271 127.56600636 -121.86811704 130.00109121 -119.04296875 133.0078125 C-118.08604468 134.00463468 -117.12833784 135.0007059 -116.16992188 135.99609375 C-114.67408221 137.55998196 -113.18435932 139.12836505 -111.70776367 140.71044922 C-110.2729511 142.2424118 -108.81662532 143.75101293 -107.35546875 145.2578125 C-106.49590576 146.1667627 -105.63634277 147.07571289 -104.75073242 148.01220703 C-101.26196409 150.53333526 -99.21462548 150.51035135 -95 150 C-92.44520198 147.85726618 -92.06655638 146.48884807 -91.61914062 143.20263672 C-92.1185201 139.00336751 -94.07820999 137.15408059 -97.03125 134.3828125 C-97.54175903 133.88079315 -98.05226807 133.3787738 -98.57824707 132.86154175 C-100.20525059 131.26801195 -101.85188122 129.69665222 -103.5 128.125 C-104.60943654 127.04567073 -105.71752639 125.96495534 -106.82421875 124.8828125 C-109.53413951 122.2388952 -112.26185458 119.61466291 -115 117 C-113.4608199 113.33247995 -111.24514548 111.01419427 -108.4296875 108.234375 C-107.53378906 107.34492188 -106.63789063 106.45546875 -105.71484375 105.5390625 C-104.77769531 104.61867188 -103.84054688 103.69828125 -102.875 102.75 C-101.92011363 101.80515144 -100.96568141 100.85984367 -100.01171875 99.9140625 C-97.67890913 97.60481662 -95.34155914 95.30036797 -93 93 C-89.24319696 94.54492402 -87.01957808 96.84483551 -84.26171875 99.7890625 C-83.35873047 100.73007812 -82.45574219 101.67109375 -81.52539062 102.640625 C-80.10195261 104.1321031 -78.68467491 105.62803735 -77.28051758 107.13769531 C-75.91577943 108.59959078 -74.52646358 110.0384186 -73.13671875 111.4765625 C-72.31905029 112.34361816 -71.50138184 113.21067383 -70.65893555 114.10400391 C-67.23461261 116.5457716 -65.11848082 116.43570523 -61 116 C-58.91666667 115.08333333 -58.91666667 115.08333333 -58 113 C-57.49363102 108.66048273 -57.5061878 106.679677 -60.11132812 103.09399414 C-61.06684931 102.13957008 -62.04139659 101.20392512 -63.03125 100.28515625 C-63.54175903 99.78455185 -64.05226807 99.28394745 -64.57824707 98.76817322 C-66.20307472 97.18234602 -67.85055318 95.62266395 -69.5 94.0625 C-70.60966377 92.98796856 -71.71775615 91.91181182 -72.82421875 90.83398438 C-75.5316467 88.20348963 -78.25965435 85.59616697 -81 83 C-79.4608199 79.33247995 -77.24514548 77.01419427 -74.4296875 74.234375 C-73.53378906 73.34492188 -72.63789063 72.45546875 -71.71484375 71.5390625 C-70.77769531 70.61867188 -69.84054688 69.69828125 -68.875 68.75 C-67.92011363 67.80515144 -66.96568141 66.85984367 -66.01171875 65.9140625 C-63.67890913 63.60481662 -61.34155914 61.30036797 -59 59 C-55.24213873 60.54735464 -52.99743641 62.85388387 -50.2265625 65.7890625 C-49.3190625 66.73007813 -48.4115625 67.67109375 -47.4765625 68.640625 C-46.0457864 70.13335223 -44.62020143 71.6301121 -43.20507812 73.13769531 C-41.83036338 74.59725723 -40.43492038 76.03720764 -39.0390625 77.4765625 C-38.21615723 78.34361816 -37.39325195 79.21067383 -36.54541016 80.10400391 C-33.42537459 82.42802042 -31.80712211 82.46908363 -28 82 C-25.51894806 81.09764165 -25.51894806 81.09764165 -24 79 C-23.44643812 74.65694319 -23.50435801 72.68219549 -26.11132812 69.09399414 C-27.06684931 68.13957008 -28.04139659 67.20392512 -29.03125 66.28515625 C-29.54175903 65.78455185 -30.05226807 65.28394745 -30.57824707 64.76817322 C-32.20307472 63.18234602 -33.85055318 61.62266395 -35.5 60.0625 C-36.60966377 58.98796856 -37.71775615 57.91181182 -38.82421875 56.83398438 C-41.5316467 54.20348963 -44.25965435 51.59616697 -47 49 C-45.4608199 45.33247995 -43.24514548 43.01419427 -40.4296875 40.234375 C-39.53378906 39.34492188 -38.63789063 38.45546875 -37.71484375 37.5390625 C-36.77769531 36.61867187 -35.84054688 35.69828125 -34.875 34.75 C-33.92011363 33.80515144 -32.96568141 32.85984367 -32.01171875 31.9140625 C-29.67890913 29.60481662 -27.34155914 27.30036797 -25 25 C-21.34968275 26.53271547 -19.06060249 28.72153877 -16.3046875 31.53515625 C-14.98404297 32.87223633 -14.98404297 32.87223633 -13.63671875 34.23632812 C-12.72535156 35.16896484 -11.81398437 36.10160156 -10.875 37.0625 C-9.06210385 38.90972167 -7.24710642 40.75488421 -5.4296875 42.59765625 C-4.62772949 43.41758057 -3.82577148 44.23750488 -2.99951172 45.08227539 C-0.48977928 47.48935089 0.45068643 47.95324991 3.9375 48.25 C6.91244441 48.22325478 6.91244441 48.22325478 8.875 46.9375 C10.66669347 43.85180568 10.36122008 41.50745619 10 38 C8.36296495 35.74680525 6.97031125 34.14297899 4.96875 32.28515625 C4.45824097 31.78455185 3.94773193 31.28394745 3.42175293 30.76817322 C1.79692528 29.18234602 0.14944682 27.62266395 -1.5 26.0625 C-2.60966377 24.98796856 -3.71775615 23.91181182 -4.82421875 22.83398438 C-7.5316467 20.20348963 -10.25965435 17.59616697 -13 15 C-11.16307611 10.99625569 -8.50882084 8.28042066 -5.375 5.25 C-4.859375 4.74339844 -4.34375 4.23679688 -3.8125 3.71484375 C-2.54616661 2.47196098 -1.2736856 1.23534724 0 0 Z " fill="#FD7EB7" transform="translate(256,177)"/>
<path d="M0 0 C1.75570312 -0.04253906 1.75570312 -0.04253906 3.546875 -0.0859375 C12.22541072 0.99430218 17.66751312 6.20904369 23.62207031 12.22949219 C24.41660614 13.01701874 25.21114197 13.80454529 26.02975464 14.61593628 C28.63932734 17.20798132 31.23408494 19.81429229 33.828125 22.421875 C35.64498478 24.23603841 37.46243784 26.04960784 39.28045654 27.86260986 C43.08283683 31.65910211 46.8780963 35.46251084 50.66796875 39.27148438 C55.03672266 43.66200339 59.41969921 48.03792721 63.81034017 52.40655017 C68.05040179 56.62620573 72.27904752 60.85709636 76.50307465 65.09281158 C78.29424463 66.88664377 80.08837385 68.67752626 81.88553619 70.46535492 C84.39868473 72.96830884 86.89859459 75.48379301 89.39550781 78.00292969 C90.50522446 79.10050095 90.50522446 79.10050095 91.63735962 80.22024536 C97.82137984 86.50625652 101.82280896 92.30311958 101.8125 101.375 C101.58660724 108.65809405 99.82475395 112.81853123 94.72265625 117.89453125 C89.64326883 122.37938477 85.04984645 124.26706593 78.25 124.375 C68.68155565 123.35501355 62.87825034 118.31952241 56.375 111.625 C55.78203125 111.02300781 55.1890625 110.42101562 54.578125 109.80078125 C53.13076876 108.33008055 51.6897237 106.8531733 50.25 105.375 C47.29734888 106.70494383 45.22649784 108.15279316 42.95019531 110.44775391 C42.32985413 111.06824615 41.70951294 111.6887384 41.07037354 112.32803345 C40.41293152 112.99579803 39.7554895 113.66356262 39.078125 114.3515625 C38.0544986 115.37943375 38.0544986 115.37943375 37.01019287 116.42807007 C34.83538402 118.61405845 32.66763928 120.80690429 30.5 123 C29.0252001 124.48483255 27.54994494 125.96921306 26.07421875 127.453125 C22.46084552 131.0885291 18.85379147 134.73009824 15.25 138.375 C16.59497495 141.38641271 18.06930086 143.42003407 20.44287109 145.69970703 C21.09049408 146.32781281 21.73811707 146.95591858 22.40536499 147.60305786 C23.10432892 148.27287689 23.80329285 148.94269592 24.5234375 149.6328125 C26.00319727 151.07751776 27.48234454 152.52285059 28.9609375 153.96875 C31.28708852 156.2331968 33.61740942 158.49271114 35.95898438 160.74121094 C38.22353721 162.92043558 40.46819734 165.11867418 42.7109375 167.3203125 C43.40585297 167.97798615 44.10076843 168.63565979 44.81674194 169.31326294 C50.49516512 174.93169508 53.70706761 180.95397912 54.6875 188.9375 C53.75110532 196.29488678 51.72437914 202.1439266 46.25 207.375 C40.2730193 211.4555645 33.79801606 213.20314621 26.6328125 211.8984375 C21.73992726 210.5772133 17.84709833 209.08110131 14.25 205.375 C13.83669434 204.63443359 13.42338867 203.89386719 12.99755859 203.13085938 C10.79953875 199.66463305 8.14487281 197.02071113 5.2265625 194.15625 C4.3517775 193.28570984 4.3517775 193.28570984 3.45932007 192.39758301 C1.60254728 190.55194757 -0.26105637 188.71339034 -2.125 186.875 C-3.37025377 185.6397886 -4.61505012 184.40411589 -5.859375 183.16796875 C-8.61666137 180.43024021 -11.37827206 177.69696212 -14.14389038 174.96765137 C-18.91310624 170.23839873 -23.64393149 165.47054131 -28.38256836 160.71069336 C-36.03720113 153.02335396 -43.69695213 145.34113486 -51.3595953 137.66178036 C-55.99132869 133.01958916 -60.62116663 128.375539 -65.24682617 123.72729492 C-69.7285748 119.22381041 -74.21519684 114.72523451 -78.70523262 110.23001289 C-80.41298506 108.51857021 -82.11897862 106.80537056 -83.82316399 105.0903759 C-86.20681096 102.69220138 -88.59665373 100.30036875 -90.98803711 97.90991211 C-91.68796783 97.20279083 -92.38789856 96.49566956 -93.10903931 95.76712036 C-96.78872599 92.10282431 -100.38779343 89.17556414 -104.75 86.375 C-109.17916459 80.83854426 -111.06898396 75.50875679 -110.625 68.4375 C-109.68022834 61.44194355 -107.50531077 56.46719701 -101.9375 52 C-96.26294937 48.13289883 -90.59791839 46.67860152 -83.75 47.375 C-75.79088083 49.60487385 -70.760774 53.53350356 -65.1171875 59.421875 C-64.3544754 60.19307678 -63.59176331 60.96427856 -62.80593872 61.7588501 C-60.39770599 64.20039262 -58.01130649 66.66204245 -55.625 69.125 C-53.9857792 70.79434877 -52.34516665 72.46233211 -50.703125 74.12890625 C-46.70252586 78.19529199 -42.71959321 82.27835292 -38.75 86.375 C-35.79734888 85.04505617 -33.72649784 83.59720684 -31.45019531 81.30224609 C-30.82985413 80.68175385 -30.20951294 80.0612616 -29.57037354 79.42196655 C-28.91293152 78.75420197 -28.2554895 78.08643738 -27.578125 77.3984375 C-26.8957074 76.71319 -26.21328979 76.0279425 -25.51019287 75.32192993 C-23.33538402 73.13594155 -21.16763928 70.94309571 -19 68.75 C-17.5252001 67.26516745 -16.04994494 65.78078694 -14.57421875 64.296875 C-10.96084552 60.6614709 -7.35379147 57.01990176 -3.75 53.375 C-5.119537 50.52419237 -6.37617646 48.52651895 -8.68359375 46.3515625 C-9.5334082 45.53171875 -9.5334082 45.53171875 -10.40039062 44.6953125 C-11.585842 43.57075316 -12.77332533 42.4483317 -13.96289062 41.328125 C-19.35191656 36.11649038 -22.14176863 31.21531593 -22.75 23.67578125 C-22.75 17.28718865 -20.74411724 12.36764655 -16.75 7.375 C-11.4412852 2.22326333 -7.42851133 0.08109729 0 0 Z " fill="#D1E9FE" transform="translate(410.75,-0.375)"/>
<path d="M0 0 C3.1620867 2.42263666 5.87980211 5.17445552 8.6328125 8.046875 C9.3955246 8.81807678 10.15823669 9.58927856 10.94406128 10.3838501 C13.35229401 12.82539262 15.73869351 15.28704245 18.125 17.75 C19.7642208 19.41934877 21.40483335 21.08733211 23.046875 22.75390625 C27.04747414 26.82029199 31.03040679 30.90335292 35 35 C38.71713736 33.26239853 41.08741012 31.14323122 43.984375 28.2109375 C44.44483215 27.74765045 44.90528931 27.2843634 45.37969971 26.80703735 C46.84125078 25.33434102 48.29567168 23.85482597 49.75 22.375 C50.74302611 21.37193678 51.73651089 20.36932743 52.73046875 19.3671875 C55.15897941 16.91669165 57.58114675 14.4600333 60 12 C60 15 60 15 57.98046875 17.36010742 C56.59794922 18.71906128 56.59794922 18.71906128 55.1875 20.10546875 C54.69918701 20.5895369 54.21087402 21.07360504 53.70776367 21.57234192 C52.14540174 23.1179014 50.57293673 24.65271107 49 26.1875 C47.93942238 27.23303282 46.87951771 28.27924873 45.8203125 29.32617188 C43.22130566 31.89208902 40.6131361 34.44846467 38 37 C42.01353144 41.82013663 46.21791338 46.3441508 50.68359375 50.74609375 C51.30218765 51.36090103 51.92078156 51.97570831 52.55812073 52.60914612 C55.17204823 55.20692186 57.79194184 57.79864894 60.41137695 60.39086914 C73.20386057 73.06211211 73.20386057 73.06211211 78.51000977 79.31420898 C81.21065527 82.36974843 84.24327405 85.06385729 87.25 87.8125 C94.75112328 94.80871508 102.16423837 101.89551219 109.48156738 109.08358765 C110.69169151 110.26759152 111.90719896 111.4461209 113.1282959 112.61880493 C120.91307749 120.10463362 127.06372851 126.37607504 128.4375 137.5625 C127.50110532 144.91988678 125.47437914 150.7689266 120 156 C114.0230193 160.0805645 107.54801606 161.82814621 100.3828125 160.5234375 C95.48992726 159.2022133 91.59709833 157.70610131 88 154 C87.58669434 153.25943359 87.17338867 152.51886719 86.74755859 151.75585938 C84.54953875 148.28963305 81.89487281 145.64571113 78.9765625 142.78125 C78.1017775 141.91070984 78.1017775 141.91070984 77.20932007 141.02258301 C75.35254728 139.17694757 73.48894363 137.33839034 71.625 135.5 C70.37974623 134.2647886 69.13494988 133.02911589 67.890625 131.79296875 C65.13333863 129.05524021 62.37172794 126.32196212 59.60610962 123.59265137 C54.83689376 118.86339873 50.10606851 114.09554131 45.36743164 109.33569336 C37.71279887 101.64835396 30.05304787 93.96613486 22.3904047 86.28678036 C17.75867131 81.64458916 13.12883337 77.000539 8.50317383 72.35229492 C4.0214252 67.84881041 -0.46519684 63.35023451 -4.95523262 58.85501289 C-6.66298506 57.14357021 -8.36897862 55.43037056 -10.07316399 53.7153759 C-12.45681096 51.31720138 -14.84665373 48.92536875 -17.23803711 46.53491211 C-18.2879332 45.47423019 -18.2879332 45.47423019 -19.35903931 44.39212036 C-23.03872599 40.72782431 -26.63779343 37.80056414 -31 35 C-35.42916459 29.46354426 -37.31898396 24.13375679 -36.875 17.0625 C-35.93022834 10.06694355 -33.75531077 5.09219701 -28.1875 0.625 C-18.83156373 -5.75089731 -9.68827795 -5.05512474 0 0 Z " fill="#D1E9FE" transform="translate(337,51)"/>
<path d="M0 0 C1.79814344 2.69721516 2.8504134 4.99930743 4 8 C7.03108692 15.63233148 11.53809932 21.31974386 16.98583984 27.35327148 C21 31.81769391 21 31.81769391 21 34 C21.73605469 34.23460937 22.47210938 34.46921875 23.23046875 34.7109375 C26.47737363 36.22219083 28.00622039 37.9013133 30.3125 40.625 C34.36040942 45.29358886 38.59061139 49.6755889 43 54 C43.67417969 54.71414063 44.34835938 55.42828125 45.04296875 56.1640625 C46.96009736 58.21916859 46.96009736 58.21916859 50 59 C50 59.66 50 60.32 50 61 C51.04220703 61.39832031 51.04220703 61.39832031 52.10546875 61.8046875 C55.25676076 63.10603076 58.27000171 64.58703383 61.3125 66.125 C62.38113281 66.66382813 63.44976562 67.20265625 64.55078125 67.7578125 C65.35902344 68.16773438 66.16726562 68.57765625 67 69 C66.18939797 74.85434803 63.44765214 77.34858215 59 81 C48.66733045 88.24113482 38.50376888 90.3072975 26 89 C19.61916501 87.52281386 14.20344775 84.93431415 9 81 C7.824375 80.13375 7.824375 80.13375 6.625 79.25 C6.08875 78.8375 5.5525 78.425 5 78 C1.14315478 79.58499863 -1.27944047 82.04432933 -4.19580078 84.98461914 C-4.70035797 85.49049057 -5.20491516 85.996362 -5.72476196 86.51756287 C-7.38626333 88.18553918 -9.04067509 89.86037314 -10.6953125 91.53515625 C-11.85014693 92.69626268 -13.00549909 93.8568544 -14.16134644 95.01695251 C-17.19960484 98.06850162 -20.23224256 101.12557074 -23.26330566 104.18426514 C-28.1207948 109.08491143 -32.9850526 113.97881697 -37.85253525 118.86953545 C-39.55334907 120.58059067 -41.25072014 122.29500774 -42.94778442 124.00978088 C-43.98607085 125.05489318 -45.02446618 126.09989729 -46.06298828 127.14477539 C-46.97025665 128.06029678 -47.87752502 128.97581818 -48.81228638 129.91908264 C-52.19152948 133.13336332 -54.40081492 133.15517065 -59.02734375 133.328125 C-61.6146813 132.89775598 -62.33669046 131.99541626 -64 130 C-64.93901491 126.1211949 -65.15938817 124.70424855 -64 121 C-60.48186455 116.20187421 -56.24965033 112.20218662 -51.96875 108.08984375 C-50.73368008 106.87157341 -49.50059239 105.65129051 -48.26940918 104.42909241 C-45.03380129 101.22774131 -41.77208692 98.05434341 -38.50408936 94.8861084 C-35.17005214 91.64437025 -31.86155299 88.37679371 -28.55078125 85.11132812 C-22.05852492 78.71540616 -15.53838157 72.34873792 -9 66 C-10.06362541 63.15739049 -10.91618686 61.10057576 -12.875 58.75 C-20.13414646 49.35581046 -21.00807715 38.46054188 -20 27 C-18.07744409 17.57252704 -12.84124986 9.5672874 -5 4 C-3.32963607 2.67130142 -1.66215268 1.33895632 0 0 Z " fill="#C3E1FA" transform="translate(64,379)"/>
<path d="M0 0 C3.70044944 1.549832 6.04581087 3.80394671 8.86035156 6.63330078 C9.32910706 7.10176422 9.79786255 7.57022766 10.28082275 8.05288696 C11.82221432 9.59566695 13.35640873 11.14539964 14.890625 12.6953125 C15.96064255 13.76906192 17.03110381 14.84236933 18.10198975 15.91525269 C20.91431879 18.73520452 23.72058889 21.56111154 26.52563477 24.38830566 C29.39105523 27.2742137 32.26217168 30.15444257 35.1328125 33.03515625 C40.76079512 38.68456489 46.38238884 44.34027825 52 50 C50.63886987 53.04581486 49.10669904 55.13839026 46.74365234 57.48339844 C46.08311859 58.14378113 45.42258484 58.80416382 44.74203491 59.48455811 C44.03052277 60.18574768 43.31901062 60.88693726 42.5859375 61.609375 C41.85629791 62.33618469 41.12665833 63.06299438 40.37490845 63.81182861 C38.0462612 66.12929198 35.71075174 68.4396995 33.375 70.75 C31.79381347 72.32115444 30.21307875 73.89276371 28.6328125 75.46484375 C24.7604331 79.31518653 20.88239829 83.15976117 17 87 C13.13989002 85.20691005 10.68562165 82.91976852 7.6875 79.875 C6.78386719 78.96492188 5.88023437 78.05484375 4.94921875 77.1171875 C2.9060841 74.99939133 0.98122686 72.81410995 -0.921875 70.5703125 C-6.88404196 63.69924377 -13.48814046 57.40803249 -19.9375 51 C-21.30296745 49.63955682 -22.66820386 48.27888169 -24.03320312 46.91796875 C-27.35280886 43.6092969 -30.67553273 40.30378678 -34 37 C-30.72723916 33.1153515 -27.44511364 29.3188187 -23.80078125 25.7734375 C-23.06666016 25.0515625 -22.33253906 24.3296875 -21.57617188 23.5859375 C-20.05715352 22.10230612 -18.53629444 20.62055721 -17.01367188 19.140625 C-16.28341797 18.42132813 -15.55316406 17.70203125 -14.80078125 16.9609375 C-14.14247314 16.31946777 -13.48416504 15.67799805 -12.8059082 15.01708984 C-10.84380789 12.82554289 -9.47487885 10.53816963 -8 8 C-6.649221 6.52008343 -5.25273349 5.08051272 -3.8125 3.6875 C-3.09707031 2.99011719 -2.38164062 2.29273438 -1.64453125 1.57421875 C-0.83048828 0.79498047 -0.83048828 0.79498047 0 0 Z " fill="#78B3E0" transform="translate(408,52)"/>
<path d="M0 0 C0.99 0.66 1.98 1.32 3 2 C3 2.66 3 3.32 3 4 C3.54366211 4.22276611 4.08732422 4.44553223 4.64746094 4.67504883 C7.74001202 6.41677514 10.12044168 8.73718615 12.640625 11.19921875 C13.43119293 11.96912895 13.43119293 11.96912895 14.23773193 12.7545929 C15.3465789 13.8402266 16.45250163 14.92885413 17.55566406 16.02026367 C19.24302924 17.68064073 20.9528246 19.3154587 22.6640625 20.95117188 C23.74106358 22.01151943 24.81663418 23.07332231 25.890625 24.13671875 C26.40304749 24.61928635 26.91546997 25.10185394 27.44342041 25.5990448 C30.15897925 28.34902334 30.98044851 29.8258567 31.41699219 33.71411133 C31 37 31 37 29.4375 39.4375 C26.0299371 41.62183519 24.00122318 41.46642112 20 41 C17.61245841 39.2510857 15.84631936 37.71706143 13.84765625 35.6015625 C13.30265976 35.05140472 12.75766327 34.50124695 12.19615173 33.93441772 C11.05275728 32.77393713 9.91773755 31.60515199 8.79077148 30.42871094 C7.0596265 28.62200107 5.30525365 26.84074177 3.54492188 25.0625 C2.43608067 23.93107676 1.32860873 22.7983096 0.22265625 21.6640625 C-0.30222885 21.12754059 -0.82711395 20.59101868 -1.36790466 20.03823853 C-5 16.23558437 -5 16.23558437 -5 14 C-5.66 14 -6.32 14 -7 14 C-7 13.34 -7 12.68 -7 12 C-7.66 12 -8.32 12 -9 12 C-10.42041821 9.15916359 -10.31452272 7.14522722 -10 4 C-7.19031195 -0.10646715 -4.84054225 -0.61794156 0 0 Z " fill="#8BC8FD" transform="translate(168,253)"/>
<path d="M0 0 C0.99 0.66 1.98 1.32 3 2 C3 2.66 3 3.32 3 4 C3.54366211 4.22204102 4.08732422 4.44408203 4.64746094 4.67285156 C7.74733492 6.42159741 10.12170788 8.75791097 12.640625 11.234375 C13.43119293 12.00784271 13.43119293 12.00784271 14.23773193 12.79693604 C15.34649706 13.88686042 16.45242149 14.97968123 17.55566406 16.07519531 C19.24460821 17.74467036 20.95366469 19.39161205 22.6640625 21.0390625 C23.74089597 22.10283956 24.81646113 23.16790234 25.890625 24.234375 C26.40304749 24.72210388 26.91546997 25.20983276 27.44342041 25.71234131 C29.90845729 28.2090207 30.95555313 29.66097548 31.41699219 33.18066406 C30.86108578 36.93921627 29.86243863 38.50454069 27 41 C22.49452369 41.64830388 20.62364798 41.45683262 16.91040039 38.73681641 C15.87118921 37.70992358 14.85098452 36.66354232 13.84765625 35.6015625 C13.30265976 35.05140472 12.75766327 34.50124695 12.19615173 33.93441772 C11.05275728 32.77393713 9.91773755 31.60515199 8.79077148 30.42871094 C7.0596265 28.62200107 5.30525365 26.84074177 3.54492188 25.0625 C2.43608067 23.93107676 1.32860873 22.7983096 0.22265625 21.6640625 C-0.30222885 21.12754059 -0.82711395 20.59101868 -1.36790466 20.03823853 C-5 16.23558437 -5 16.23558437 -5 14 C-5.66 14 -6.32 14 -7 14 C-7 13.34 -7 12.68 -7 12 C-7.66 12 -8.32 12 -9 12 C-10.42041821 9.15916359 -10.31452272 7.14522722 -10 4 C-7.19031195 -0.10646715 -4.84054225 -0.61794156 0 0 Z " fill="#8BC8FD" transform="translate(134,287)"/>
<path d="M0 0 C0.99 0.66 1.98 1.32 3 2 C3 2.66 3 3.32 3 4 C3.54366211 4.22276611 4.08732422 4.44553223 4.64746094 4.67504883 C7.74001202 6.41677514 10.12044168 8.73718615 12.640625 11.19921875 C13.43119293 11.96912895 13.43119293 11.96912895 14.23773193 12.7545929 C15.3465789 13.8402266 16.45250163 14.92885413 17.55566406 16.02026367 C19.24302924 17.68064073 20.9528246 19.3154587 22.6640625 20.95117188 C23.74106358 22.01151943 24.81663418 23.07332231 25.890625 24.13671875 C26.40304749 24.61928635 26.91546997 25.10185394 27.44342041 25.5990448 C30.15045912 28.34039521 30.98103506 29.84421513 31.45214844 33.71411133 C31 37 31 37 28.875 39.4375 C25.43185932 41.30877211 23.87441394 41.52695815 20 41 C17.70931489 39.25802699 15.90791973 37.65811435 13.9453125 35.6015625 C13.39890106 35.05140472 12.85248962 34.50124695 12.28952026 33.93441772 C11.14132738 32.7728142 10.00033597 31.60405346 8.86621094 30.42871094 C7.1241511 28.62412063 5.36143159 26.84196613 3.59375 25.0625 C2.48050936 23.93092716 1.36848621 22.79815497 0.2578125 21.6640625 C-0.53422073 20.85927963 -0.53422073 20.85927963 -1.34225464 20.03823853 C-5 16.23441915 -5 16.23441915 -5 14 C-5.66 14 -6.32 14 -7 14 C-9.31056137 11.68943863 -9.96255612 10.25675801 -10.4375 7 C-10 4 -10 4 -8.375 1.625 C-5.33636094 -0.45406883 -3.61550392 -0.46155369 0 0 Z " fill="#8BC8FD" transform="translate(202,219)"/>
<path d="M0 0 C2.38232422 1.59521484 2.38232422 1.59521484 4.6796875 3.8359375 C5.53916992 4.65932617 6.39865234 5.48271484 7.28417969 6.33105469 C8.62851074 7.65218262 8.62851074 7.65218262 10 9 C10.91426758 9.85754883 11.82853516 10.71509766 12.77050781 11.59863281 C15.58741545 14.24261553 18.35848061 16.92842071 21.125 19.625 C22.08148438 20.52734375 23.03796875 21.4296875 24.0234375 22.359375 C25.37695312 23.68582031 25.37695312 23.68582031 26.7578125 25.0390625 C27.5739502 25.82490723 28.39008789 26.61075195 29.23095703 27.42041016 C31.55297562 30.8063401 31.44150792 32.97586988 31 37 C28.99773871 40.00339193 27.74146627 40.81463343 24.25 41.6875 C16.40064497 40.02705951 9.88301448 31.03773399 4.375 25.5 C3.65054688 24.77941406 2.92609375 24.05882812 2.1796875 23.31640625 C-9.72801297 11.38713386 -9.72801297 11.38713386 -10.625 6.8125 C-9.26257016 0.68156574 -5.92368433 -0.64305876 0 0 Z " fill="#8BC8FD" transform="translate(236,185)"/>
<path d="M0 0 C2.8078039 1.89341783 5.11661626 4.23022648 7.5 6.625 C8.18908447 7.29853516 8.87816895 7.97207031 9.58813477 8.66601562 C11.02059511 10.06980382 12.44705575 11.47973852 13.86767578 12.89550781 C15.92103338 14.92206409 18.01169187 16.89922353 20.12109375 18.8671875 C21.39401858 20.07729515 22.66618821 21.28819784 23.9375 22.5 C24.53433594 23.04994629 25.13117188 23.59989258 25.74609375 24.16650391 C28.71067045 27.05679139 29.89606081 28.60219257 30.97265625 32.72265625 C31 36 31 36 29.5 38.9375 C27 41 27 41 23.76489258 41.50512695 C18.64225647 40.81783468 16.71607953 38.63474802 13.26171875 34.98046875 C12.65487747 34.36609451 12.04803619 33.75172028 11.42280579 33.11872864 C9.49402654 31.15749558 7.59121803 29.17303627 5.6875 27.1875 C4.38894125 25.86239049 3.08882607 24.53880432 1.78710938 23.21679688 C-9.8267018 11.35750256 -9.8267018 11.35750256 -10.375 7.0625 C-10 4 -10 4 -8.375 1.625 C-5.18382156 -0.55843788 -3.83146587 -0.59500411 0 0 Z " fill="#8BC8FD" transform="translate(100,321)"/>
<path d="M0 0 C1.32 0.66 2.64 1.32 4 2 C2.39123724 6.01009391 -0.42799551 8.70324135 -3.44360352 11.68652344 C-3.9982428 12.24306107 -4.55288208 12.79959869 -5.12432861 13.3730011 C-6.95434126 15.20671128 -8.79144147 17.03313466 -10.62890625 18.859375 C-11.90197077 20.13124738 -13.17466581 21.40348967 -14.44700623 22.67608643 C-17.11124626 25.33876354 -19.77880989 27.99804967 -22.44897461 30.65478516 C-25.87978664 34.06856449 -29.30393561 37.48893314 -32.72586155 40.91161728 C-35.35142179 43.53690635 -37.9795743 46.15958689 -40.60862541 48.7813797 C-41.87277429 50.04233663 -43.1363098 51.30390879 -44.39923286 52.56609344 C-46.1589134 54.32361842 -47.92183906 56.07781818 -49.68579102 57.83105469 C-50.21204575 58.3577626 -50.73830048 58.88447052 -51.28050232 59.42713928 C-54.88552292 63 -54.88552292 63 -56 63 C-56.47020558 59.04794664 -56.33442743 57.4492835 -53.91871643 54.20391846 C-52.95020913 53.22112953 -51.96497728 52.25465008 -50.96704102 51.30175781 C-50.43220093 50.76764786 -49.89736084 50.2335379 -49.34631348 49.6832428 C-47.57920931 47.92539901 -45.79194302 46.18965039 -44.00390625 44.453125 C-42.7718131 43.23476721 -41.54111304 42.01499913 -40.31175232 40.79388428 C-37.07484869 37.58553308 -33.82078244 34.39517341 -30.56237793 31.2086792 C-26.60146658 27.32936509 -22.65942014 23.43090307 -18.71630001 19.53351974 C-15.64954367 16.50256273 -12.57950481 13.47521672 -9.49891663 10.45831299 C-8.6522065 9.62652779 -8.6522065 9.62652779 -7.78839111 8.77793884 C-6.73253648 7.74076112 -5.67477603 6.70551867 -4.61479187 5.67256165 C-1.96813635 3.09503863 -1.96813635 3.09503863 0 0 Z " fill="#E5F3FF" transform="translate(56,443)"/>
<path d="M0 0 C0.99 0.66 1.98 1.32 3 2 C1.40620999 5.86146154 -1.06840469 8.34724474 -3.98120117 11.3034668 C-4.48718842 11.81938385 -4.99317566 12.3353009 -5.51449585 12.86685181 C-7.18508093 14.56657435 -8.86329549 16.25847928 -10.54296875 17.94921875 C-11.71161672 19.12937655 -12.88026191 20.30953711 -14.04890442 21.48970032 C-16.49885869 23.96064318 -18.95342151 26.42691244 -21.41040039 28.89086914 C-24.55351845 32.04496291 -27.67765262 35.21717705 -30.79767895 38.39409161 C-33.20430424 40.83800837 -35.62428432 43.26836285 -38.04808998 45.69523048 C-39.20566949 46.85885338 -40.35825674 48.0274653 -41.50563622 49.20114708 C-43.11382232 50.84354596 -44.73999858 52.46585112 -46.37182617 54.0847168 C-47.29178879 55.01197067 -48.2117514 55.93922455 -49.15959167 56.89457703 C-52.50290574 59.37277362 -54.89278383 59.74847847 -59 60 C-53.38062338 53.14092885 -47.09685489 46.96990509 -40.8203125 40.72265625 C-39.64039553 39.54460742 -38.46070142 38.36633534 -37.28121948 37.18785095 C-34.19610309 34.10652858 -31.10799411 31.02822284 -28.01922607 27.95056152 C-24.85994267 24.80155966 -21.70353484 21.64967829 -18.546875 18.49804688 C-12.36737473 12.3292289 -6.1847061 6.16359871 0 0 Z " fill="#B8DCFE" transform="translate(65,452)"/>
<path d="M0 0 C0.99 0.33 1.98 0.66 3 1 C-0.49359465 4.59634744 -4.11098131 7.83451967 -8 11 C-8.66 10.67 -9.32 10.34 -10 10 C-6.7 6.7 -3.4 3.4 0 0 Z " fill="#5CB4D9" transform="translate(408,52)"/>
</svg>
