<?xml version="1.0" encoding="UTF-8"?>
<svg version="1.1" xmlns="http://www.w3.org/2000/svg" width="512" height="512">
<path d="M0 0 C2.58695923 0.57487983 4.99153632 1.19282574 7.5 2 C8.1906958 2.22147705 8.8813916 2.4429541 9.59301758 2.67114258 C19.10821985 5.87969434 28.12541137 10.05958089 35.29638672 17.18115234 C39.96927 21.62172567 43.56514661 23.27223766 50.11328125 23.375 C55.99566765 23.20444112 61.85046459 22.7174159 67.71337891 22.22509766 C113.010748 19.1227225 166.30088756 34.60624371 201.06005859 64.09741211 C212.89733863 74.65555805 224.89234446 92.2116133 226.30078125 108.47265625 C226.38310611 133.69150429 215.05426022 156.2726465 200 176 C193.30824357 185.32663552 188.04928655 195.39532567 187.5625 207.0625 C187.42578125 209.7578125 187.42578125 209.7578125 187 212 C184.25 214.4375 184.25 214.4375 182.62890625 215.49609375 C178.00016885 219.76962828 175.91890262 227.90362458 175 234 C174.95898064 235.52028005 174.95769753 237.04225511 175 238.5625 C175.08455581 241.61179394 174.75767646 244.05605102 174 247 C173.58496502 252.13485136 174.00083757 256.67314679 175.44140625 261.640625 C176.16993825 264.71778115 176.45856682 267.79592168 176.8125 270.9375 C177.5482213 276.44373165 178.84255672 279.99957018 181.79296875 284.625 C183.28528016 287.56132794 183.70777397 290.25402106 184.25 293.5 C185.40069247 299.55593009 187.42440338 304.49884562 190.3125 309.9375 C190.86309082 310.98357422 190.86309082 310.98357422 191.42480469 312.05078125 C194.75715893 318.0854349 198.77677235 323.31987768 204.1875 327.625 C209.20970393 331.86597221 210.36270989 335.86074037 211.375 342.25 C212.4896172 348.49444138 214.02443184 353.94650811 218 359 C218.928125 359.639375 219.85625 360.27875 220.8125 360.9375 C223.33356465 363.31450382 223.40423036 363.79568514 223.5625 367.125 C222.10092211 393.31801436 209.40243459 416.99938264 192 436 C191.26007813 436.81082031 190.52015625 437.62164062 189.7578125 438.45703125 C164.94298304 464.40807085 129.74247626 477.47227614 95 483 C93.80761719 483.19335938 92.61523438 483.38671875 91.38671875 483.5859375 C70.88559526 485.98084496 49.02530797 484.69662744 29 480 C28.21931152 479.81808105 27.43862305 479.63616211 26.63427734 479.44873047 C4.94797184 474.17673919 -15.26014225 463.7115621 -32 449 C-32.84046875 448.29230469 -33.6809375 447.58460938 -34.546875 446.85546875 C-57.73423399 426.87257397 -72.68724631 396.93283175 -78 367 C-78 365.68 -78 364.36 -78 363 C-76.609375 361.61328125 -76.609375 361.61328125 -74.75 360.3125 C-69.55207944 356.07870987 -67.36594667 351.27088412 -66.62109375 344.61328125 C-65.57539497 335.59766206 -63.5119138 331.73538325 -56.875 325.75 C-45.84707049 315.78262657 -40.36012602 303.38421103 -37.6796875 288.84375 C-36.96425624 285.85045138 -35.87457998 283.61471624 -34.375 280.9375 C-31.81256475 276.24862595 -31.37433607 272.15835215 -31.23828125 266.859375 C-31 264 -31 264 -29.9921875 261.01953125 C-26.31502983 249.82881125 -28.51217228 232.79653637 -33 222 C-35.19446554 217.76069158 -36.9895898 214.6736068 -41 212 C-41.67657619 209.6096295 -42.20773833 207.30441924 -42.6875 204.875 C-45.61858789 191.8892049 -51.67980911 181.20929963 -59.84765625 170.765625 C-73.75613624 152.89411169 -84.1852015 130.10981706 -82.27050781 107.06396484 C-79.80624089 88.2616972 -67.73533605 70.44872491 -53 59 C-37.86878663 47.77376895 -21.36521135 39.4076707 -3.5859375 33.27734375 C-0.22658126 32.36952619 -0.22658126 32.36952619 1 31 C-0.19238281 30.81824219 -1.38476562 30.63648437 -2.61328125 30.44921875 C-4.17979082 30.19595074 -5.74619162 29.94200928 -7.3125 29.6875 C-8.09818359 29.56955078 -8.88386719 29.45160156 -9.69335938 29.33007812 C-10.45068359 29.20439453 -11.20800781 29.07871094 -11.98828125 28.94921875 C-13.03302612 28.78425903 -13.03302612 28.78425903 -14.09887695 28.6159668 C-16.42446532 27.86247258 -17.47268947 26.88839619 -19 25 C-20.15475385 19.14300526 -19.13571292 13.88782054 -16.2109375 8.75390625 C-11.79579204 2.35906653 -7.76209627 -0.51319645 0 0 Z " fill="#F1E7B4" transform="translate(184,14)"/>
<path d="M0 0 C2.58695923 0.57487983 4.99153632 1.19282574 7.5 2 C8.1906958 2.22147705 8.8813916 2.4429541 9.59301758 2.67114258 C19.10821985 5.87969434 28.12541137 10.05958089 35.29638672 17.18115234 C39.96927 21.62172567 43.56514661 23.27223766 50.11328125 23.375 C55.99566765 23.20444112 61.85046459 22.7174159 67.71337891 22.22509766 C113.010748 19.1227225 166.30088756 34.60624371 201.06005859 64.09741211 C212.89733863 74.65555805 224.89234446 92.2116133 226.30078125 108.47265625 C226.34520613 122.08147724 223.72889712 133.67817538 218 146 C217.484375 147.155 216.96875 148.31 216.4375 149.5 C214.90758492 152.16072188 213.16517804 153.83886147 211 156 C210.00095177 157.29743063 209.02245207 158.61088188 208.0625 159.9375 C190.22402347 183.01365688 165.20482196 196.7313617 138 206 C137.26958496 206.25120605 136.53916992 206.50241211 135.78662109 206.76123047 C90.04755653 222.17877247 35.3223809 219.99368714 -9 201 C-10.00522705 200.57944336 -10.00522705 200.57944336 -11.03076172 200.15039062 C-37.53332247 188.93276856 -64.15842558 169.01475235 -76.25 142.1875 C-82.76832157 126.01369675 -84.77322985 110.0592507 -78.546875 93.56640625 C-66.61802726 66.06378506 -43.55267768 49.07312259 -16.31738281 37.89941406 C-12.10198215 36.27297576 -7.85716793 34.75007201 -3.5859375 33.27734375 C-0.22658126 32.36952619 -0.22658126 32.36952619 1 31 C-0.19238281 30.81824219 -1.38476562 30.63648437 -2.61328125 30.44921875 C-4.17979082 30.19595074 -5.74619162 29.94200928 -7.3125 29.6875 C-8.09818359 29.56955078 -8.88386719 29.45160156 -9.69335938 29.33007812 C-10.45068359 29.20439453 -11.20800781 29.07871094 -11.98828125 28.94921875 C-13.03302612 28.78425903 -13.03302612 28.78425903 -14.09887695 28.6159668 C-16.42446532 27.86247258 -17.47268947 26.88839619 -19 25 C-20.15475385 19.14300526 -19.13571292 13.88782054 -16.2109375 8.75390625 C-11.79579204 2.35906653 -7.76209627 -0.51319645 0 0 Z " fill="#F1321C" transform="translate(184,14)"/>
<path d="M0 0 C0.33 0 0.66 0 1 0 C0.42361664 29.65754375 -15.44975759 56.26825508 -36.29296875 76.53515625 C-61.58340817 99.56295896 -93.62238246 111.68943285 -127 117 C-128.19238281 117.19335938 -129.38476562 117.38671875 -130.61328125 117.5859375 C-151.11440474 119.98084496 -172.97469203 118.69662744 -193 114 C-194.17103271 113.72712158 -194.17103271 113.72712158 -195.36572266 113.44873047 C-217.05202816 108.17673919 -237.26014225 97.7115621 -254 83 C-254.84046875 82.29230469 -255.6809375 81.58460938 -256.546875 80.85546875 C-278.80992399 61.66914548 -294.93945826 32.15105339 -299 3 C-296.35267143 5.64732857 -295.62619029 8.66172595 -294.4375 12.125 C-289.76372481 25.09067161 -283.08491893 36.6172355 -274 47 C-273.11634766 48.09828125 -273.11634766 48.09828125 -272.21484375 49.21875 C-249.34406107 76.7996514 -210.51131852 89.76939437 -176.03955078 93.22851562 C-156.10458322 94.93110771 -135.79854142 95.06102325 -116 92 C-114.70964844 91.84015625 -113.41929687 91.6803125 -112.08984375 91.515625 C-92.55239225 88.86413079 -73.13963931 81.62609975 -56 72 C-54.95328125 71.44957031 -53.9065625 70.89914062 -52.828125 70.33203125 C-44.66012725 65.8777216 -37.84856828 60.22721263 -31 54 C-30.17371094 53.2575 -29.34742188 52.515 -28.49609375 51.75 C-13.71833105 37.76895146 -5.33900082 19.30254141 0 0 Z " fill="#F6402C" transform="translate(406,380)"/>
<path d="M0 0 C2.58695923 0.57487983 4.99153632 1.19282574 7.5 2 C8.5360437 2.33221558 8.5360437 2.33221558 9.59301758 2.67114258 C24.56888532 7.7210454 39.32056612 16.57739949 49.3359375 28.9609375 C51.24101453 31.29532766 53.30233444 33.43837345 55.375 35.625 C60.74564683 41.58934078 64.90477694 48.1281928 69 55 C69.64195312 56.06347656 70.28390625 57.12695312 70.9453125 58.22265625 C77.36266471 69.43218706 83.70128928 83.79162691 81 97 C77.8952381 101.55238095 77.8952381 101.55238095 75 103 C70.18721956 103.52802088 65.61076795 103.85640895 61.4375 101.125 C58.09345133 98.20967552 58.09345133 98.20967552 57.859375 95.1796875 C57.82328125 94.41914062 57.7871875 93.65859375 57.75 92.875 C55.94527148 73.95269493 46.35613368 57.54158042 31.9375 45.375 C25.5513389 40.60802514 18.16714172 37.40732967 11 34 C9.95779297 33.42185547 9.95779297 33.42185547 8.89453125 32.83203125 C6.29636434 31.69098063 3.81059496 31.39341661 1 31 C-1.89883786 30.55961711 -4.79325041 30.09447276 -7.6875 29.625 C-8.44611328 29.5115625 -9.20472656 29.398125 -9.98632812 29.28125 C-12.9454521 28.79023914 -15.46049248 28.35438239 -17.9921875 26.69140625 C-20.1288982 23.10537628 -19.53446845 19.00257484 -19 15 C-16.07571238 5.91269762 -9.84103031 -0.65064663 0 0 Z " fill="#7C4702" transform="translate(184,14)"/>
<path d="M0 0 C0.70970947 0.359729 1.41941895 0.71945801 2.15063477 1.09008789 C21.03604449 10.84966204 33.44369187 25.12772875 39.9921875 45.48828125 C41.33879817 50.23831202 41.48684072 54.49345992 41.3125 59.375 C40.9825 59.375 40.6525 59.375 40.3125 59.375 C39.961875 58.116875 39.61125 56.85875 39.25 55.5625 C33.71569719 39.11475893 20.64473063 28.71086761 5.875 20.75 C-9.73666171 13.01605789 -26.51509107 11.3641567 -43.6875 10.375 C-43.6875 9.385 -43.6875 8.395 -43.6875 7.375 C-13.22257259 -6.71203714 -13.22257259 -6.71203714 0 0 Z " fill="#D42B16" transform="translate(200.6875,49.625)"/>
<path d="M0 0 C0.66 0 1.32 0 2 0 C1.99777939 1.03078171 1.99555878 2.06156342 1.99327087 3.12358093 C1.97282317 12.93270563 1.95792519 22.74182589 1.94818783 32.55096722 C1.94301318 37.59152313 1.93601657 42.63206156 1.92456055 47.67260742 C1.91353583 52.55504841 1.90768262 57.43747281 1.90512276 62.31992531 C1.9033032 64.164226 1.89975224 66.008526 1.89426994 67.85281944 C1.86614878 77.72360466 1.99268842 87.56727692 2.44360352 97.42895508 C2.48245887 98.29979831 2.52131422 99.17064154 2.56134701 100.06787395 C2.78308495 104.45378603 3.20795687 108.67259675 4 113 C4.06305204 114.79067806 4.08671114 116.58337579 4.0625 118.375 C4.05347656 119.24898438 4.04445313 120.12296875 4.03515625 121.0234375 C4.02355469 121.67570312 4.01195312 122.32796875 4 123 C2.44455107 120.15482466 1.58748502 117.621459 1 114.4375 C0.83604736 113.56407959 0.67209473 112.69065918 0.50317383 111.79077148 C0.33712646 110.86981689 0.1710791 109.9488623 0 109 C-0.17442627 108.05390869 -0.34885254 107.10781738 -0.52856445 106.13305664 C-1.02547606 103.42315765 -1.51351242 100.71178613 -2 98 C-2.22042969 96.80246094 -2.44085938 95.60492188 -2.66796875 94.37109375 C-4.91613341 81.67657001 -5.1864444 69.05034623 -5.18530273 56.1940918 C-5.18747639 53.46712314 -5.20565721 50.74056872 -5.22460938 48.01367188 C-5.27724198 31.72231601 -4.25060564 15.78391561 0 0 Z " fill="#E6CD8D" transform="translate(264,230)"/>
<path d="M0 0 C2 1 2 1 2.74609375 2.87890625 C11.18939363 35.65035831 12.69587234 77.23522849 0 109 C-1.06414713 105.8075586 -0.75227061 104.30563995 -0.0365448 101.10844421 C2.61160704 89.11979402 2.41955784 77.11106443 2.33618164 64.89038086 C2.31260995 61.20469124 2.31563968 57.51973038 2.32226562 53.83398438 C2.30653747 41.50631665 1.91856349 29.38377196 0.4387207 17.14086914 C-0.23179304 11.4305936 -0.18864354 5.74314778 0 0 Z " fill="#E7CE8F" transform="translate(181,217)"/>
<path d="M0 0 C0.33 0 0.66 0 1 0 C1.15557373 0.85005615 1.31114746 1.7001123 1.47143555 2.57592773 C2.07009038 5.82228461 2.67692786 9.0669127 3.28881836 12.31079102 C3.54879088 13.69757648 3.80577174 15.08492712 4.05932617 16.47290039 C7.20115392 33.64364489 12.55871178 49.98448727 18.125 66.5 C18.65523679 68.08063229 19.18518547 69.66136126 19.71484375 71.2421875 C20.7110038 74.21406888 21.70865299 77.18544144 22.70800781 80.15625 C24.14698087 84.43474428 25.57549695 88.7166667 27 93 C23.94446726 90.12184034 22.21156076 86.92093475 20.375 83.1875 C20.03235107 82.49100342 19.68970215 81.79450684 19.33666992 81.0769043 C11.82499405 65.53019115 5.87434164 50.08987648 2.44042969 33.13964844 C2.08241097 31.40036018 1.67706422 29.6708643 1.2578125 27.9453125 C-0.81646749 18.82416351 -0.16386751 9.29492928 0 0 Z " fill="#E7CE8E" transform="translate(314,339)"/>
<path d="M0 0 C-2.88795948 41.55999402 -2.88795948 41.55999402 -4.0625 55.5 C-4.16280518 56.80251709 -4.16280518 56.80251709 -4.26513672 58.13134766 C-4.76533396 63.76533396 -4.76533396 63.76533396 -7 66 C-8.10212171 56.92430042 -8.18619443 47.88615213 -8.18530273 38.75878906 C-8.18748362 36.26870469 -8.20568611 33.77906865 -8.22460938 31.2890625 C-8.25826327 21.3467407 -7.62429231 11.81753563 -6 2 C-6.66 1.67 -7.32 1.34 -8 1 C-5.10765685 0.17361624 -3.11257569 0 0 0 Z " fill="#E6CB8B" transform="translate(319,221)"/>
<path d="M0 0 C1.57421875 1.1328125 1.57421875 1.1328125 3 3 C2.70703125 5.7421875 2.70703125 5.7421875 1.8125 8.875 C1.53019531 9.90367187 1.24789062 10.93234375 0.95703125 11.9921875 C0.08764354 14.72454889 -0.89278826 17.35634905 -2 20 C-3.01573289 16.95280133 -3.0097124 16.01166996 -2.44140625 12.98828125 C-2.30283203 12.23095703 -2.16425781 11.47363281 -2.02148438 10.69335938 C-1.87001953 9.90767578 -1.71855469 9.12199219 -1.5625 8.3125 C-1.41490234 7.51521484 -1.26730469 6.71792969 -1.11523438 5.89648438 C-0.75015036 3.92974148 -0.37594711 1.96469533 0 0 Z " fill="#E9D598" transform="translate(183,306)"/>
<path d="M0 0 C2.38125464 2.38125464 3.00186241 4.33857567 4.125 7.5 C4.47820312 8.4796875 4.83140625 9.459375 5.1953125 10.46875 C6 13 6 13 6 15 C5.01 14.67 4.02 14.34 3 14 C2.05078125 11.6015625 2.05078125 11.6015625 1.3125 8.625 C1.06113281 7.64789063 0.80976562 6.67078125 0.55078125 5.6640625 C0 3 0 3 0 0 Z " fill="#F6513A" transform="translate(107,383)"/>
<path d="M0 0 C0.33 0 0.66 0 1 0 C2.12862175 5.36095333 2.09688221 10.55306686 2 16 C-0.50659063 11.41652 -1.46911963 6.68068362 -0.5625 1.5 C-0.376875 1.005 -0.19125 0.51 0 0 Z " fill="#E9D598" transform="translate(266,337)"/>
</svg>
