<?xml version="1.0" encoding="UTF-8"?>
<svg version="1.1" xmlns="http://www.w3.org/2000/svg" width="512" height="512">
<path d="M0 0 C21.00395066 16.50310409 32.81189664 38.69321654 36.1640625 64.94140625 C38.78107801 90.61174507 29.74090608 113.84098983 14.01171875 133.65234375 C4.65865978 144.64599353 -7.48615115 151.81040873 -19.8359375 158.94140625 C-20.74617676 159.46976074 -21.65641602 159.99811523 -22.59423828 160.54248047 C-35.56345487 168.07033381 -48.57881192 175.51734562 -61.60287476 182.94973755 C-70.02724047 187.75728682 -78.43765935 192.58838664 -86.8359375 197.44140625 C-95.82139416 202.63373218 -104.82247511 207.79791855 -113.8359375 212.94140625 C-132.21052732 223.42892782 -150.53488485 234.00130972 -168.80224609 244.67456055 C-179.36240834 250.84085755 -189.95736296 256.94645664 -200.55371094 263.05029297 C-205.98253688 266.17820771 -211.40915757 269.30994356 -216.8359375 272.44140625 C-223.35827025 276.20504544 -229.88107512 279.96785247 -236.40625 283.7265625 C-246.0781961 289.29961695 -255.74548735 294.87950197 -265.38085938 300.515625 C-269.31832188 302.81767981 -273.26051324 305.11156338 -277.203125 307.40478516 C-279.60698543 308.80778011 -282.00320113 310.22298177 -284.3984375 311.640625 C-307.69756263 325.29514867 -332.63293703 329.55213272 -358.8359375 322.94140625 C-380.99217458 316.63153938 -401.46585676 302.45122871 -412.85302734 282.12597656 C-425.10302953 259.43659606 -429.72638348 235.11425658 -422.8359375 209.94140625 C-412.25215885 174.67050409 -386.30516217 158.22643836 -356.00961304 140.90327454 C-351.05160151 138.06781952 -346.10524766 135.21251177 -341.16064453 132.35375977 C-330.43783461 126.15455858 -319.6905867 119.99942194 -308.93121338 113.86404419 C-299.89777474 108.71097904 -290.90315902 103.49450406 -281.92895508 98.23901367 C-274.11528467 93.67017343 -266.26247568 89.1727081 -258.3984375 84.69140625 C-250.32209578 80.08869448 -242.26334148 75.46132841 -234.26367188 70.72631836 C-224.63405381 65.03427461 -214.92455141 59.47905534 -205.23095703 53.89697266 C-199.7642377 50.74808571 -194.30018863 47.59457361 -188.8359375 44.44140625 C-186.66928439 43.19138275 -184.50261771 41.94138278 -182.3359375 40.69140625 C-181.2634375 40.07265625 -180.1909375 39.45390625 -179.0859375 38.81640625 C-167.16927083 31.94140625 -155.25260417 25.06640625 -143.3359375 18.19140625 C-142.2624707 17.57193115 -141.18900391 16.95245605 -140.08300781 16.31420898 C-137.92669227 15.07051751 -135.76979532 13.82783351 -133.61230469 12.58618164 C-128.03200857 9.37291315 -122.46410663 6.14022743 -116.9140625 2.875 C-78.58235467 -19.62167958 -38.33907936 -27.83015815 0 0 Z " fill="#EAB02A" transform="translate(450.8359375,102.05859375)"/>
<path d="M0 0 C13.614626 -0.72935496 26.68571372 2.87242464 39.10253906 8.18945312 C40.93872088 8.97382313 42.79345689 9.71431045 44.6484375 10.453125 C52.61446367 14.06244578 56.1843107 18.07525387 59.63671875 26.09375 C68.48833281 50.32311589 68.71313779 76.76924701 57.9152832 100.40112305 C47.39905121 121.94717685 30.31672633 135.2687424 10 147 C9.08976074 147.52835449 8.17952148 148.05670898 7.24169922 148.60107422 C-5.72751737 156.12892756 -18.74287442 163.57593937 -31.76693726 171.0083313 C-41.25699722 176.42404239 -50.72711275 181.87361471 -60.18676758 187.34228516 C-65.89040135 190.63710062 -71.6011492 193.91878474 -77.32421875 197.1796875 C-77.93597961 197.5283638 -78.54774048 197.8770401 -79.17803955 198.23628235 C-81.61341954 199.62412718 -84.04886621 201.01184871 -86.48553467 202.39743042 C-94.59313548 207.00875595 -102.61365769 211.7233758 -110.5078125 216.69140625 C-111.33023438 217.12324219 -112.15265625 217.55507813 -113 218 C-113.66 217.67 -114.32 217.34 -115 217 C-114.20335937 216.03513672 -114.20335937 216.03513672 -113.390625 215.05078125 C-102.45305949 201.05947938 -100.50008101 184.24555338 -102.20214844 166.9453125 C-105.16421867 144.32180253 -114.92458486 122.522596 -128 104 C-128.57572754 103.18088135 -128.57572754 103.18088135 -129.16308594 102.34521484 C-135.94590196 92.82611709 -143.9019997 83.18968546 -153.3828125 76.2578125 C-153.91648437 75.84273438 -154.45015625 75.42765625 -155 75 C-155 74.34 -155 73.68 -155 73 C-154.2879541 72.59386475 -153.5759082 72.18772949 -152.84228516 71.76928711 C-139.83871463 64.35041011 -126.84090192 56.92208508 -113.875 49.4375 C-112.82030518 48.82890137 -111.76561035 48.22030273 -110.67895508 47.59326172 C-105.73360287 44.73818973 -100.79045506 41.87940798 -95.85192871 39.01254272 C-89.83834496 35.521725 -83.81702473 32.04497123 -77.78173828 28.59179688 C-76.06475382 27.60928514 -74.34926105 26.62415491 -72.63623047 25.63476562 C-53.75282423 14.77429304 -33.38651049 10.80524761 -12.10742188 16.23413086 C7.38280502 21.55684487 24.64117904 31.84194977 36 49 C31.3390699 28.36567403 17.42233059 12.32451488 0 1 C0 0.67 0 0.34 0 0 Z " fill="#D40909" transform="translate(421,114)"/>
<path d="M0 0 C0 0.33 0 0.66 0 1 C-1.10214844 1.09796875 -2.20429688 1.1959375 -3.33984375 1.296875 C-29.75520408 3.81975631 -49.00285247 12.54565177 -71.68164062 26.04248047 C-76.83027005 29.07968697 -82.02511469 32.03465733 -87.22161865 34.98883057 C-97.52620566 40.84791328 -107.79660163 46.76283519 -118.02075195 52.76147461 C-123.35850786 55.89004112 -128.71455863 58.98165278 -134.09765625 62.03125 C-135.88165159 63.04586897 -137.66532208 64.06105681 -139.44891357 65.0763855 C-141.14186781 66.03661773 -142.83967351 66.98828065 -144.53759766 67.93969727 C-146.08713135 68.82226196 -146.08713135 68.82226196 -147.66796875 69.72265625 C-148.57828857 70.23578369 -149.4886084 70.74891113 -150.42651367 71.27758789 C-153.11986851 72.95703454 -153.11986851 72.95703454 -155.45727539 75.47753906 C-158.14888707 78.14770055 -160.71264607 79.79077063 -164.015625 81.63671875 C-164.58455475 81.95811829 -165.1534845 82.27951782 -165.73965454 82.61065674 C-167.57222667 83.64398079 -169.4108604 84.66591875 -171.25 85.6875 C-173.14991621 86.75304609 -175.04838612 87.8211324 -176.94662476 88.8896637 C-178.20264542 89.59665589 -179.45917397 90.30274657 -180.71621704 91.00791931 C-184.31508763 93.03131648 -187.88017743 95.09963104 -191.4140625 97.234375 C-192.18331055 97.69884033 -192.95255859 98.16330566 -193.74511719 98.6418457 C-195.11750443 99.47669888 -196.4857139 100.3184785 -197.84863281 101.16870117 C-200.55662277 102.80829882 -202.72847517 103.95926092 -205.88012695 104.43212891 C-209.23140869 105.0421204 -211.32695134 106.06808061 -214.23828125 107.80859375 C-215.21563232 108.38617432 -216.1929834 108.96375488 -217.19995117 109.55883789 C-218.22709229 110.17879639 -219.2542334 110.79875488 -220.3125 111.4375 C-222.46089505 112.71621716 -224.60933283 113.99486253 -226.7578125 115.2734375 C-227.81387695 115.90604492 -228.86994141 116.53865234 -229.95800781 117.19042969 C-232.68446264 118.81229832 -235.42489171 120.40347761 -238.1796875 121.9765625 C-239.33343872 122.63893921 -239.33343872 122.63893921 -240.51049805 123.31469727 C-241.9152459 124.11986338 -243.32277851 124.92019947 -244.73364258 125.71459961 C-247.67122318 127.41534384 -249.89445856 128.88859515 -252.25 131.375 C-256.39645035 135.33297534 -261.29263638 137.72401884 -266.3125 140.4375 C-268.57002835 141.67914059 -270.82651267 142.92268102 -273.08203125 144.16796875 C-274.2313916 144.80138184 -275.38075195 145.43479492 -276.56494141 146.08740234 C-284.88665901 150.72083061 -293.07673568 155.58452681 -301.28613281 160.41308594 C-303.82534997 161.89787467 -306.37458253 163.36307978 -308.9296875 164.8203125 C-316.80780403 169.33150325 -324.20924777 173.90829579 -331 180 C-331.680625 180.5878125 -332.36125 181.175625 -333.0625 181.78125 C-346.87626085 194.51581078 -356.16055844 214.40058157 -357.16748047 233.11230469 C-357.33255558 240.07826932 -357.22862528 247.03660168 -357 254 C-360.25955056 251.00683594 -361.56786695 247.65154548 -363.0625 243.5625 C-363.32562988 242.84312256 -363.58875977 242.12374512 -363.85986328 241.38256836 C-368.91997902 227.08479948 -370.05486382 210.7350855 -366 196 C-373.85711302 200.40355979 -381.60730761 204.83684976 -389 210 C-391 209 -391 209 -391.75 206.9375 C-392.08362756 203.01737621 -391.13629601 199.70699422 -390 196 C-389.77143311 195.2481543 -389.54286621 194.49630859 -389.30737305 193.72167969 C-385.31257196 181.19053541 -378.3317558 170.99810696 -370 161 C-369.46117187 160.34515625 -368.92234375 159.6903125 -368.3671875 159.015625 C-358.18631015 147.82199022 -343.07446953 140.61330899 -330.04296875 133.375 C-324.08270319 130.06299425 -318.19270967 126.63916064 -312.3125 123.1875 C-303.61405695 118.09145684 -294.88276178 113.05574798 -286.125 108.0625 C-274.89048531 101.6562213 -263.67773983 95.21343206 -252.48046875 88.7421875 C-248.59010504 86.49389505 -244.69732558 84.2499262 -240.80065918 82.01257324 C-239.06355147 81.01514502 -237.32693984 80.01685301 -235.59033203 79.01855469 C-233.35118436 77.73142231 -231.11129495 76.44557928 -228.87060547 75.16113281 C-223.31752078 71.96522356 -217.87260633 68.6768598 -212.5 65.1875 C-206.44984754 61.44873287 -201.09635402 59.47949758 -193.92578125 60.390625 C-179.55264275 61.87139627 -168.78710403 53.23484316 -157 46 C-154.84529697 44.7233529 -152.68268322 43.46145523 -150.51782227 42.20214844 C-148.51366386 41.03403614 -146.51810482 39.85220618 -144.5234375 38.66796875 C-128.38941955 29.12023664 -112.08613002 19.84357266 -95.78466797 10.58422852 C-90.92225318 7.82101054 -86.06484568 5.05947212 -81.27734375 2.16796875 C-56.09803636 -12.93661099 -26.20294131 -13.5455883 0 0 Z " fill="#F3D35A" transform="translate(419,113)"/>
<path d="M0 0 C0.33 0 0.66 0 1 0 C1.48352735 14.63117946 1.21595581 29.25813304 -7 42 C-7.34740234 42.59232422 -7.69480469 43.18464844 -8.05273438 43.79492188 C-12.50399955 50.63434721 -18.84440541 53.84051275 -25.875 57.625 C-27.13375387 58.32018877 -28.39138856 59.0174075 -29.64794922 59.71655273 C-32.20397721 61.13774343 -34.76373752 62.55182291 -37.32617188 63.96142578 C-42.6475384 66.90051235 -47.88566266 69.98025207 -53.125 73.0625 C-64.62688773 79.79519575 -76.16925962 86.45657233 -87.71777344 93.10888672 C-93.14659945 96.2368015 -98.57317249 99.36861966 -104 102.5 C-106.16015357 103.74609839 -108.32030983 104.99219214 -110.48046875 106.23828125 C-115.99031949 109.4169457 -121.49885558 112.59788094 -127.00683594 115.77978516 C-129.19535851 117.0427922 -131.38479979 118.30420878 -133.57519531 119.56396484 C-138.66931002 122.49381695 -143.75259442 125.43837445 -148.80859375 128.43359375 C-173.65598281 143.0742373 -198.67340322 149.14648627 -227 142 C-249.15623708 135.69013313 -269.62991926 121.50982246 -281.01708984 101.18457031 C-291.69375737 81.40931082 -298.49541182 58.32797812 -292 36 C-291.67 36 -291.34 36 -291 36 C-290.8040625 36.7528125 -290.608125 37.505625 -290.40625 38.28125 C-283.94103872 61.24389695 -270.33396369 82.09177348 -249.20507812 94.01269531 C-227.82638209 105.67086641 -202.21456779 110.82507873 -178.25 104 C-169.69433522 101.30455121 -161.80262038 97.37050329 -154 93 C-152.99678711 92.43845215 -151.99357422 91.8769043 -150.95996094 91.29833984 C-136.54335075 83.18873338 -122.26210657 74.84311291 -107.984375 66.4921875 C-98.44177067 60.91570844 -88.85942207 55.40788509 -79.28222656 49.89111328 C-72.77270411 46.14053601 -66.2660522 42.38498011 -59.75927734 38.62963867 C-54.29465337 35.47614838 -48.82852098 32.3253296 -43.359375 29.1796875 C-41.15616335 27.91160887 -38.95303763 26.64338094 -36.75 25.375 C-35.68458984 24.76197021 -34.61917969 24.14894043 -33.52148438 23.51733398 C-28.17600591 20.434693 -22.84820041 17.32601637 -17.546875 14.16796875 C-16.52754883 13.56098145 -15.50822266 12.95399414 -14.45800781 12.32861328 C-12.52780456 11.17616278 -10.59995149 10.01976421 -8.67480469 8.85888672 C-7.39718262 8.09535889 -7.39718262 8.09535889 -6.09375 7.31640625 C-5.34802734 6.86724854 -4.60230469 6.41809082 -3.83398438 5.95532227 C-2 5 -2 5 0 5 C0 3.35 0 1.7 0 0 Z " fill="#E58D20" transform="translate(319,283)"/>
<path d="M0 0 C6.32928744 9.49393116 3.50595431 26.25918741 1.4375 37.0625 C-3.60578683 61.16128269 -17.57616534 81.22864033 -38 95 C-42.92058337 98.141696 -47.9449166 101.08110034 -53 104 C-54.36535889 104.79253174 -54.36535889 104.79253174 -55.75830078 105.60107422 C-68.72751737 113.12892756 -81.74287442 120.57593937 -94.76693726 128.0083313 C-104.25699722 133.42404239 -113.72711275 138.87361471 -123.18676758 144.34228516 C-128.89040135 147.63710062 -134.6011492 150.91878474 -140.32421875 154.1796875 C-141.24186005 154.70270195 -141.24186005 154.70270195 -142.17803955 155.23628235 C-144.61341954 156.62412718 -147.04886621 158.01184871 -149.48553467 159.39743042 C-157.59313548 164.00875595 -165.61365769 168.7233758 -173.5078125 173.69140625 C-174.33023437 174.12324219 -175.15265625 174.55507813 -176 175 C-176.66 174.67 -177.32 174.34 -178 174 C-177.20335937 173.03513672 -177.20335937 173.03513672 -176.390625 172.05078125 C-169.97540979 163.84445669 -165.50447038 155.7057668 -166.26953125 145.03125 C-166.54157248 139.34901485 -166.68881062 134.15129039 -164 129 C-157.93609421 123.34094501 -149.99405315 120.02416709 -142.52044678 116.59434509 C-136.459378 113.81011322 -130.77570331 110.50077795 -125.0625 107.0625 C-123.09140552 105.90229052 -121.11872515 104.74477143 -119.14453125 103.58984375 C-118.14760254 103.0057373 -117.15067383 102.42163086 -116.12353516 101.81982422 C-110.51850648 98.55424006 -104.88448386 95.33937866 -99.25 92.125 C-98.66815948 91.79287506 -98.08631897 91.46075012 -97.48684692 91.11856079 C-92.11150469 88.05034721 -86.73430312 84.98541291 -81.35351562 81.92675781 C-74.28898524 77.91093311 -67.23101511 73.88428876 -60.18701172 69.83251953 C-58.14088826 68.65600638 -56.0931697 67.48226056 -54.04345703 66.31201172 C-25.91812068 50.20874282 -8.86494912 31.48448297 0 0 Z " fill="#A90000" transform="translate(484,157)"/>
<path d="M0 0 C8.76934596 7.45331136 15.9470499 15.57810978 21.375 25.75 C17.33176902 24.20718818 13.50602665 22.34835482 9.625 20.4375 C-3.81758424 14.07373229 -16.76542192 10.96999375 -31.625 10.75 C-31.04234375 11.11609375 -30.4596875 11.4821875 -29.859375 11.859375 C-14.21369656 22.1914268 -3.1726388 36.08455841 3.375 53.75 C3.771568 56.07342191 4.12182016 58.40661452 4.375 60.75 C3.52228516 59.67492187 3.52228516 59.67492187 2.65234375 58.578125 C-10.50282933 42.24134059 -25.22161012 32.25688508 -45.625 26.75 C-46.43453125 26.52183594 -47.2440625 26.29367188 -48.078125 26.05859375 C-75.77726752 19.32223766 -99.61767191 32.32395799 -122.55859375 46.12890625 C-129.14682292 50.08532097 -135.81922363 53.89054734 -142.5 57.6875 C-152.64938333 63.4600804 -162.75730841 69.29742616 -172.81201172 75.23413086 C-177.99864608 78.28156466 -183.20874656 81.13087275 -188.625 83.75 C-188.955 83.09 -189.285 82.43 -189.625 81.75 C-189.05394531 81.42950684 -188.48289062 81.10901367 -187.89453125 80.77880859 C-176.86065752 74.57992921 -165.85791069 68.33447383 -154.9375 61.9375 C-145.06981821 56.15776539 -135.15663455 50.46088407 -125.21948242 44.80175781 C-119.3200207 41.44068614 -113.43010955 38.0648708 -107.5625 34.6484375 C-83.84436023 20.84423806 -64.011292 11.79081754 -36.625 8.75 C-56.20303146 -0.17476029 -79.79757757 -3.71190159 -100.51953125 3.9609375 C-108.94380739 7.46952087 -116.77778835 12.12815538 -124.625 16.75 C-126.49811307 17.83954774 -128.37182501 18.92806648 -130.24609375 20.015625 C-134.24473653 22.34025344 -138.23702213 24.67541477 -142.2265625 27.015625 C-148.95666161 30.9548902 -155.72508742 34.82605939 -162.5 38.6875 C-170.72183657 43.3747458 -178.93747439 48.07190212 -187.13208008 52.80664062 C-189.35083762 54.08690957 -191.57197849 55.3630583 -193.7956543 56.63476562 C-198.20222817 59.15924086 -202.58451059 61.67922119 -206.83203125 64.46484375 C-215.26468076 69.91529815 -221.69271852 70.38153235 -231.625 69.75 C-234.34313879 69.94108867 -236.9345056 70.31073561 -239.625 70.75 C-236.39233025 68.0591852 -233.19722803 65.81115192 -229.51171875 63.7890625 C-228.52373291 63.24258057 -227.53574707 62.69609863 -226.51782227 62.13305664 C-225.46006592 61.55289795 -224.40230957 60.97273926 -223.3125 60.375 C-214.71574565 55.61151974 -206.16584764 50.78383369 -197.6875 45.8125 C-189.39122981 40.95057903 -181.08156729 36.1137316 -172.75 31.3125 C-171.66984619 30.68996338 -170.58969238 30.06742676 -169.47680664 29.42602539 C-167.28703666 28.16423174 -165.09717645 26.90259466 -162.90722656 25.64111328 C-158.55981366 23.13627392 -154.21383008 20.62896233 -149.86816406 18.12109375 C-147.71165308 16.87692783 -145.55475386 15.6334346 -143.39746094 14.390625 C-137.84775158 11.19254422 -132.30517909 7.98297993 -126.7734375 4.75390625 C-84.94994999 -19.62141526 -41.72650642 -32.78511219 0 0 Z " fill="#DD5555" transform="translate(453.625,104.25)"/>
<path d="M0 0 C0 0.33 0 0.66 0 1 C-1.10214844 1.09796875 -2.20429688 1.1959375 -3.33984375 1.296875 C-29.75520408 3.81975631 -49.00285247 12.54565177 -71.68164062 26.04248047 C-76.83009285 29.07958244 -82.02474915 32.03447489 -87.22106934 34.98855591 C-95.53263786 39.71425267 -103.83132524 44.46045731 -112.08056641 49.29443359 C-114.01577914 50.42500695 -115.95553771 51.54783733 -117.89990234 52.66259766 C-122.80999984 55.487149 -127.63744532 58.38530383 -132.36920166 61.4977417 C-134.82929002 63.10462864 -137.31783886 64.6638675 -139.81103516 66.21875 C-141.00540015 66.98005722 -142.18649348 67.76266386 -143.35205078 68.56738281 C-147.12603642 71.16658267 -150.47004111 73.16108223 -155 74 C-159.10470913 72.56736437 -162.23951569 70.73409586 -165.74243164 68.21484375 C-169.88235983 65.40007731 -173.995506 64.13865484 -178.76953125 62.7890625 C-181 62 -181 62 -182 60 C-180.99755249 59.4423999 -180.99755249 59.4423999 -179.97485352 58.87353516 C-163.19139443 49.53223692 -163.19139443 49.53223692 -146.58154297 39.88769531 C-129.76719997 29.92275372 -112.77990956 20.23764428 -95.78466797 10.58422852 C-90.92225318 7.82101054 -86.06484568 5.05947212 -81.27734375 2.16796875 C-56.09803636 -12.93661099 -26.20294131 -13.5455883 0 0 Z " fill="#EA9898" transform="translate(419,113)"/>
<path d="M0 0 C2.40356445 1.18334961 2.40356445 1.18334961 4.86328125 2.65234375 C5.74951172 3.18150391 6.63574219 3.71066406 7.54882812 4.25585938 C8.46083984 4.81080078 9.37285156 5.36574219 10.3125 5.9375 C11.70952148 6.76411133 11.70952148 6.76411133 13.13476562 7.60742188 C14.01455078 8.13787109 14.89433594 8.66832031 15.80078125 9.21484375 C16.60684814 9.70073975 17.41291504 10.18663574 18.2434082 10.68725586 C18.8230835 11.12046143 19.40275879 11.55366699 20 12 C20 12.66 20 13.32 20 14 C19.33170166 14.3717334 18.66340332 14.7434668 17.97485352 15.12646484 C1.19311466 24.4658349 1.19311466 24.4658349 -15.4140625 34.11010742 C-21.72671562 37.85224459 -28.07907469 41.52375118 -34.4375 45.1875 C-35.53819824 45.82187988 -36.63889648 46.45625977 -37.77294922 47.10986328 C-42.32630193 49.73332688 -46.88045732 52.35539553 -51.43457031 54.97753906 C-64.6582321 62.59276584 -77.8682913 70.22705265 -91 78 C-92.32934758 74.99750806 -91.92065773 73.75614735 -90.8828125 70.56640625 C-90.31382245 69.22445812 -89.72671913 67.89009502 -89.125 66.5625 C-88.80764893 65.85528809 -88.49029785 65.14807617 -88.16333008 64.41943359 C-76.51008223 39.36818696 -55.62499741 27.33758778 -32.4140625 14.56640625 C-28.2008943 12.24323957 -24.03435799 9.86035829 -19.8984375 7.40234375 C-18.94469238 6.83950684 -17.99094727 6.27666992 -17.00830078 5.69677734 C-15.21076608 4.63174838 -13.4196757 3.55574314 -11.63623047 2.46728516 C-10.83330566 1.99468262 -10.03038086 1.52208008 -9.203125 1.03515625 C-8.50864258 0.6162915 -7.81416016 0.19742676 -7.09863281 -0.23413086 C-4.30508635 -1.25359983 -2.82152193 -0.8804211 0 0 Z " fill="#F7E49B" transform="translate(146,230)"/>
<path d="M0 0 C0.86238281 0.39960938 1.72476563 0.79921875 2.61328125 1.2109375 C3.79535156 1.73429688 4.97742188 2.25765625 6.1953125 2.796875 C11.63598408 5.32462374 16.55601504 7.6739945 20.61328125 12.2109375 C13.23882099 17.35370127 5.49797636 21.79730247 -2.32421875 26.2109375 C-4.15294468 27.24579979 -5.98109512 28.2816582 -7.8085022 29.31884766 C-8.99523373 29.99200549 -10.18286501 30.66357982 -11.37142944 31.33349609 C-15.74284109 33.80777818 -19.99832089 36.43612975 -24.20532227 39.1796875 C-26.88637745 40.44714996 -28.44691995 40.59534247 -31.38671875 40.2109375 C-33.97387695 39.01757812 -33.97387695 39.01757812 -36.6875 37.3671875 C-37.66396484 36.78066406 -38.64042969 36.19414062 -39.64648438 35.58984375 C-40.65388672 34.96980469 -41.66128906 34.34976563 -42.69921875 33.7109375 C-43.72595703 33.09089844 -44.75269531 32.47085938 -45.81054688 31.83203125 C-48.34204451 30.30135826 -50.86693572 28.76079272 -53.38671875 27.2109375 C-49.99250094 24.38062146 -46.57809737 22.03882465 -42.73828125 19.85546875 C-41.11696289 18.9272229 -41.11696289 18.9272229 -39.46289062 17.98022461 C-37.72442727 16.99452966 -35.98596118 16.00883949 -34.24731445 15.02346802 C-25.85159689 10.28488039 -25.85159689 10.28488039 -17.69140625 5.15625 C-6.57601603 -2.23252981 -6.57601603 -2.23252981 0 0 Z " fill="#F7E49B" transform="translate(242.38671875,174.7890625)"/>
<path d="M0 0 C9.73082977 -0.59529782 15.1927295 2.46737977 22.38476562 8.78955078 C34.67393584 19.93234318 45.92373502 34.38349511 47.7578125 51.359375 C46.90509766 50.28429687 46.90509766 50.28429687 46.03515625 49.1875 C32.87998317 32.85071559 18.16120238 22.86626008 -2.2421875 17.359375 C-3.05171875 17.13121094 -3.86125 16.90304688 -4.6953125 16.66796875 C-32.39445502 9.93161266 -56.23485941 22.93333299 -79.17578125 36.73828125 C-85.76401042 40.69469597 -92.43641113 44.49992234 -99.1171875 48.296875 C-109.26657083 54.0694554 -119.37449591 59.90680116 -129.42919922 65.84350586 C-134.61583358 68.89093966 -139.82593406 71.74024775 -145.2421875 74.359375 C-145.5721875 73.699375 -145.9021875 73.039375 -146.2421875 72.359375 C-145.38560547 71.87863525 -145.38560547 71.87863525 -144.51171875 71.38818359 C-133.47784502 65.18930421 -122.47509819 58.94384883 -111.5546875 52.546875 C-101.68700571 46.76714039 -91.77382205 41.07025907 -81.83666992 35.41113281 C-75.9372082 32.05006114 -70.04729705 28.6742458 -64.1796875 25.2578125 C-43.26662768 13.08619823 -24.37989759 2.70235009 0 0 Z " fill="#E46969" transform="translate(410.2421875,113.640625)"/>
<path d="M0 0 C0.99 0.99 0.99 0.99 2 2 C-6.66593302 7.40563287 -15.42421675 12.59096164 -24.3125 17.625 C-26.77041905 19.02448581 -29.22695431 20.42639449 -31.68359375 21.828125 C-32.91778251 22.53194221 -34.15199458 23.23571855 -35.38623047 23.93945312 C-35.98876648 24.28306885 -36.59130249 24.62668457 -37.21209717 24.98071289 C-38.94072636 25.96620797 -40.66981793 26.95089187 -42.39892578 27.93554688 C-69.17840748 43.21977868 -92.73577276 58.39620938 -101.76342773 89.60839844 C-104.83948322 101.25610343 -104.39253965 113.04414819 -104 125 C-107.25955056 122.00683594 -108.56786695 118.65154548 -110.0625 114.5625 C-110.32562988 113.84312256 -110.58875977 113.12374512 -110.85986328 112.38256836 C-115.24501822 99.99195614 -118.88652554 79.59269388 -113 67 C-108.63565776 62.7324476 -102.98922388 60.05827446 -97.6875 57.125 C-89.51544924 52.55660787 -81.38800762 47.92449188 -73.3125 43.1875 C-64.61388306 38.09175086 -55.88278067 33.05572227 -47.125 28.0625 C-37.59134421 22.62624266 -28.06853632 17.17193389 -18.5625 11.6875 C-17.47275879 11.0591626 -16.38301758 10.4308252 -15.26025391 9.78344727 C-9.74192061 6.61191037 -9.74192061 6.61191037 -4.30053711 3.31176758 C-2 2 -2 2 0 2 C0 1.34 0 0.68 0 0 Z " fill="#F2CF7D" transform="translate(166,242)"/>
<path d="M0 0 C-6.80280122 4.73224301 -13.86793295 8.82116843 -21.125 12.8125 C-29.09575066 17.21929848 -37.01974444 21.65409186 -44.67236328 26.59887695 C-46.3046875 27.62109375 -46.3046875 27.62109375 -49 29 C-49.99 28.67 -50.98 28.34 -52 28 C-49.0809314 25.70917681 -46.09363285 23.85355061 -42.84375 22.06640625 C-41.83006348 21.5051001 -40.81637695 20.94379395 -39.77197266 20.36547852 C-38.69222168 19.77049561 -37.6124707 19.1755127 -36.5 18.5625 C-27.22020585 13.4281489 -18.06990134 8.14181255 -9.10742188 2.46899414 C-8.34236328 1.99582764 -7.57730469 1.52266113 -6.7890625 1.03515625 C-6.12600098 0.6162915 -5.46293945 0.19742676 -4.77978516 -0.23413086 C-3 -1 -3 -1 0 0 Z " fill="#F2CD79" transform="translate(265,188)"/>
</svg>
