<?xml version="1.0" encoding="UTF-8"?>
<svg version="1.1" xmlns="http://www.w3.org/2000/svg" width="512" height="512">
<path d="M0 0 C1.23441078 0.72181961 1.23441078 0.72181961 2.49375916 1.45822144 C7.65153631 4.92587199 11.86321834 9.55889186 16.24047852 13.93408203 C17.26733327 14.95330678 18.29458607 15.97213064 19.32220459 16.99058533 C22.10185597 19.74836803 24.87497789 22.51262502 27.6462605 25.27881479 C29.38106354 27.00996524 31.11715551 28.7398125 32.85368156 30.46923447 C38.92078264 36.51186766 44.98216483 42.56017707 51.03881836 48.61328125 C56.66989844 54.24072806 62.31396919 59.85491128 67.96413285 65.46319115 C72.82671442 70.2909961 77.67954686 75.12846003 82.52511925 79.9733361 C85.41392204 82.86134861 88.30650269 85.7453049 91.20916939 88.61938858 C93.94131117 91.3252232 96.66105017 94.04295391 99.37207031 96.76994514 C100.36378182 97.76346109 101.35970494 98.75279542 102.36030388 99.73736 C112.13046758 109.36054754 117.19360761 117.82782165 117.3125 131.625 C117.35305797 142.89560978 114.31312343 151.08819251 106.66724396 159.59561157 C105.36877155 160.90300797 105.36877155 160.90300797 104.04406738 162.23681641 C103.55909019 162.72773584 103.074113 163.21865528 102.57443953 163.72445107 C100.96122908 165.35489219 99.34105149 166.9782173 97.72070312 168.6015625 C96.55694902 169.7745832 95.39358847 170.94799444 94.23059082 172.12176514 C91.07817236 175.30033862 87.91917998 178.47229585 84.75811195 181.64226532 C82.77981305 183.62644122 80.8026876 185.61177921 78.82591248 187.59747314 C72.63043308 193.82027901 66.43097572 200.03908069 60.2256856 206.25210381 C53.08181518 213.4049278 45.95119462 220.57061846 38.8318944 227.74789619 C33.3153641 233.30777354 27.78724715 238.85595687 22.25033522 244.39553642 C18.94958935 247.69837041 15.65380179 251.00580195 12.37001038 254.32550049 C9.2773012 257.45136791 6.17033702 260.56235218 3.05229187 263.66294098 C1.91682875 264.79687374 0.78638147 265.93585751 -0.33831787 267.08046722 C-9.31645298 276.20801213 -18.93804009 283.89768284 -32.25390625 284.24609375 C-33.27419922 284.27896484 -34.29449219 284.31183594 -35.34570312 284.34570312 C-37.4628038 284.40611826 -39.57999381 284.46349205 -41.69726562 284.51757812 C-66.82883755 285.35162528 -79.58373923 297.39393161 -96.484375 314.5625 C-97.31756256 315.40809479 -98.15075012 316.25368958 -99.00918579 317.12490845 C-102.47076278 320.6413452 -105.93117232 324.1586092 -109.37255859 327.69482422 C-111.91913945 330.30815686 -114.48149244 332.90513895 -117.046875 335.5 C-118.19564117 336.6921814 -118.19564117 336.6921814 -119.36761475 337.90844727 C-125.0315979 343.60009429 -130.83808237 347.79119565 -139.02734375 348.56640625 C-147.43382859 348.55800816 -153.85131166 347.80461742 -161 343 C-161.99 342.34 -162.98 341.68 -164 341 C-164.82685303 341.48859497 -164.82685303 341.48859497 -165.67041016 341.98706055 C-191.58593751 357.30078125 -191.58593751 357.30078125 -194.29711914 358.90283203 C-196.11663077 359.97800546 -197.93612922 361.0532012 -199.75561523 362.12841797 C-204.27817978 364.80096958 -208.80095272 367.47316704 -213.32421875 370.14453125 C-214.2073877 370.66644043 -215.09055664 371.18834961 -216.00048828 371.72607422 C-217.78568784 372.78006538 -219.57181562 373.83248599 -221.35888672 374.88330078 C-226.05182211 377.64685321 -230.7276217 380.4350747 -235.37696838 383.27122498 C-237.84853482 384.77724718 -240.32572032 386.27388797 -242.80337524 387.76986694 C-244.01102077 388.50251454 -245.21596393 389.23963647 -246.4180603 389.98135376 C-248.09735848 391.01702012 -249.78677372 392.03622736 -251.4765625 393.0546875 C-252.44674316 393.64749512 -253.41692383 394.24030273 -254.41650391 394.85107422 C-257 396 -257 396 -259.01782227 395.97998047 C-263.64694904 393.69135935 -267.13372441 389.42391175 -270.75610352 385.79980469 C-272.30929152 384.25319489 -273.8848799 382.73216049 -275.46289062 381.2109375 C-276.45198541 380.23064219 -277.43966603 379.24891752 -278.42578125 378.265625 C-279.32723877 377.37649414 -280.22869629 376.48736328 -281.1574707 375.57128906 C-283 373 -283 373 -282.98217773 370.5222168 C-281.84647817 367.60575839 -280.47771995 365.06054951 -278.859375 362.37890625 C-277.88194336 360.74598633 -277.88194336 360.74598633 -276.88476562 359.08007812 C-276.17324453 357.90751115 -275.46165426 356.73498615 -274.75 355.5625 C-274.01680759 354.34225952 -273.28439486 353.12155026 -272.55273438 351.90039062 C-271.07138515 349.42931739 -269.5867877 346.96024492 -268.09960938 344.49267578 C-265.20219776 339.68000096 -262.35071796 334.84043228 -259.5 330 C-258.45343725 328.22768016 -257.40655624 326.45554822 -256.359375 324.68359375 C-255.82376953 323.77722168 -255.28816406 322.87084961 -254.73632812 321.93701172 C-236.67194123 291.3809692 -236.67194123 291.3809692 -228 277 C-228.42152344 276.31292969 -228.84304687 275.62585938 -229.27734375 274.91796875 C-229.82519531 274.01691406 -230.37304688 273.11585938 -230.9375 272.1875 C-231.75541016 270.84751953 -231.75541016 270.84751953 -232.58984375 269.48046875 C-235.04153236 265.16794169 -235.27583957 261.28283918 -235.375 256.4375 C-235.41238281 255.77169922 -235.44976562 255.10589844 -235.48828125 254.41992188 C-235.63888469 245.64308783 -231.21144373 238.95304776 -225.30493164 232.76904297 C-223.43461317 230.91290537 -221.55461837 229.07303193 -219.66015625 227.2421875 C-218.64909571 226.24557922 -217.63930774 225.24767846 -216.63072205 224.24856567 C-213.991966 221.63998264 -211.3394047 219.04594948 -208.68255615 216.45581055 C-204.43229397 212.3085103 -200.20161918 208.14132015 -195.97494316 203.97000504 C-194.51011711 202.5290382 -193.03812999 201.09572479 -191.56495667 199.66329956 C-184.92794732 193.14583702 -178.76093365 186.77498538 -175.1875 178.0625 C-174.59001953 176.65677734 -174.59001953 176.65677734 -173.98046875 175.22265625 C-171.89671605 168.37366828 -171.9232553 161.39395112 -171.8125 154.28369141 C-171.34621175 131.18420885 -161.3165259 121.18701115 -145.58032227 105.38745117 C-144.46206103 104.2612654 -143.34397326 103.13490735 -142.2260437 102.00839233 C-138.59316245 98.34959845 -134.95510606 94.69597476 -131.31640625 91.04296875 C-130.05578649 89.77697971 -128.79517085 88.51098656 -127.53455925 87.2449894 C-122.290731 81.97959237 -117.04548771 76.71561175 -111.796525 71.45533276 C-104.30857369 63.95112051 -96.82927052 56.43851812 -89.36165768 48.91406459 C-84.08777782 43.60142731 -78.80429389 38.29846304 -73.51364177 33.00252897 C-70.36275337 29.84799994 -67.21612716 26.68948591 -64.07974434 23.52052879 C-61.13162498 20.54222044 -58.17171529 17.57614602 -55.20260239 14.6187706 C-54.12037527 13.5367632 -53.04235693 12.45052568 -51.96910286 11.35961723 C-38.40256024 -2.41772025 -18.3736263 -10.86323891 0 0 Z " fill="#E1E6F5" transform="translate(355,20)"/>
<path d="M0 0 C1.39203739 1.41148376 1.39203739 1.41148376 3.0302887 3.39819336 C7.28334951 8.39483576 11.86792588 13.00080922 16.51538086 17.62890625 C17.44299225 18.55666367 18.37060364 19.48442108 19.32632446 20.44029236 C21.84632381 22.96057623 24.36937363 25.47778537 26.89302135 27.99441528 C29.53868837 30.63379109 32.18148545 33.27603752 34.82460022 35.91796875 C39.8195527 40.90982481 44.81704664 45.89912834 49.81547982 50.88749886 C55.51038988 56.57119506 61.20242878 62.257763 66.89423931 67.94456291 C78.59298854 79.63288606 90.2953024 91.31763348 102 103 C100.56523742 106.27007631 98.80343602 108.45333499 96.29373169 110.98042297 C95.1371254 112.15199196 95.1371254 112.15199196 93.95715332 113.347229 C93.11036011 114.19468689 92.26356689 115.04214478 91.39111328 115.9152832 C90.49991791 116.81480209 89.60872253 117.71432098 88.69052124 118.64109802 C86.24915147 121.10438293 83.80126721 123.56109103 81.35146189 126.01598382 C79.82171128 127.54937913 78.29326669 129.08406415 76.76525497 130.61919212 C71.43629192 135.97263167 66.1016487 141.32034254 60.76220703 146.66333008 C55.78110591 151.64807318 50.81331081 156.6458156 45.85134327 161.64959842 C41.59174975 165.94382823 37.32264229 170.22844204 33.04604518 174.50573796 C30.49130177 177.06127595 27.94072905 179.62067157 25.39981461 182.1899662 C22.56951197 185.05117358 19.71974992 187.89218369 16.86767578 190.73168945 C16.02493103 191.58926849 15.18218628 192.44684753 14.31390381 193.33041382 C13.5371933 194.09736069 12.76048279 194.86430756 11.9602356 195.65449524 C11.28808077 196.32866139 10.61592594 197.00282755 9.92340279 197.69742298 C8 199 8 199 6.02219582 198.95625687 C3.385183 197.70926506 1.74581381 196.11426834 -0.31536865 194.0453949 C-1.17069687 193.19419067 -2.02602509 192.34298645 -2.90727234 191.46598816 C-3.8468499 190.51579364 -4.78628294 189.56545618 -5.72558594 188.61499023 C-6.72059274 187.61913718 -7.71626068 186.62394433 -8.71253967 185.62936401 C-11.41525646 182.92750865 -14.10861802 180.21649745 -16.80041409 177.50376773 C-19.61509886 174.67034069 -22.43827048 171.84539602 -25.26055908 169.01954651 C-30.60364512 163.66713281 -35.93903725 158.3071171 -41.27171826 152.94433886 C-47.34316403 146.83937156 -53.42312133 140.74291142 -59.50381422 134.6471566 C-72.012048 122.10755747 -84.50953439 109.55729651 -97 97 C-95.55907692 93.70576469 -93.77635936 91.52519641 -91.24230957 88.98834229 C-90.45993423 88.2003273 -89.6775589 87.41231232 -88.87147522 86.60041809 C-88.01218918 85.74518051 -87.15290314 84.88994293 -86.26757812 84.00878906 C-85.3634166 83.10112289 -84.45925507 82.19345673 -83.5276947 81.25828552 C-81.05102095 78.77250137 -78.56807141 76.29307625 -76.08366966 73.81501865 C-73.48576804 71.22218091 -70.89274998 68.62446672 -68.2989502 66.02752686 C-63.94459163 61.66953109 -59.58603563 57.31576668 -55.22509766 52.96435547 C-50.17826187 47.92841741 -45.13869 42.88529623 -40.10280466 37.83840966 C-35.78117798 33.50771939 -31.45568146 29.18092334 -27.12690115 24.85738349 C-24.54037046 22.27397587 -21.95522209 19.68922399 -19.37355042 17.10095978 C-16.49886386 14.21944542 -13.61610767 11.34614109 -10.73242188 8.47363281 C-9.87313583 7.61029831 -9.01384979 6.74696381 -8.12852478 5.85746765 C-7.34614944 5.08073196 -6.56377411 4.30399628 -5.75769043 3.50372314 C-5.07631767 2.82310444 -4.39494492 2.14248573 -3.6929245 1.44124222 C-2 0 -2 0 0 0 Z " fill="#78A0D4" transform="translate(321,64)"/>
<path d="M0 0 C3.44469918 1.48380236 5.67558307 3.42850741 8.31536865 6.07485962 C9.17069687 6.92743851 10.02602509 7.7800174 10.90727234 8.65843201 C11.84680334 9.60504063 12.78623799 10.55174489 13.72558594 11.49853516 C14.7208075 12.49432102 15.71646998 13.48966639 16.71253967 14.48460388 C19.41299428 17.18448469 22.10723816 19.89048736 24.80041409 22.59762621 C27.61688388 25.42659877 30.43901871 28.24990833 33.26055908 31.07382202 C38.60163041 36.42110945 43.93758304 41.77347467 49.27171826 47.12768018 C55.34513503 53.22345189 61.424232 59.31354534 67.50381422 65.40316701 C80.00887648 77.9291342 92.5067829 90.46221915 105 103 C103.58170672 105.94938992 102.18455714 108.07775579 99.88647461 110.41992188 C99.25499008 111.0673938 98.62350555 111.71486572 97.97288513 112.38195801 C97.28960648 113.07059937 96.60632782 113.75924072 95.90234375 114.46875 C95.19404922 115.186073 94.4857547 115.903396 93.7559967 116.64245605 C92.25487206 118.15807949 90.75092707 119.67091399 89.24438477 121.18115234 C86.95792424 123.47946984 84.6907982 125.79575871 82.42382812 128.11328125 C80.95949053 129.58708816 79.49403046 131.05978083 78.02734375 132.53125 C77.35823471 133.21989136 76.68912567 133.90853271 75.9997406 134.61804199 C69.29227819 141.26312792 62.53424663 144.57196228 53.0625 144.5625 C46.05891758 144.49518154 40.81012263 142.90497041 35 139 C33.515 138.01 33.515 138.01 32 137 C31.44876465 137.32572998 30.8975293 137.65145996 30.32958984 137.98706055 C4.41406249 153.30078125 4.41406249 153.30078125 1.70288086 154.90283203 C-0.11663077 155.97800546 -1.93612922 157.0532012 -3.75561523 158.12841797 C-8.27817978 160.80096958 -12.80095272 163.47316704 -17.32421875 166.14453125 C-18.2073877 166.66644043 -19.09055664 167.18834961 -20.00048828 167.72607422 C-21.78568784 168.78006538 -23.57181562 169.83248599 -25.35888672 170.88330078 C-30.05182211 173.64685321 -34.7276217 176.4350747 -39.37696838 179.27122498 C-41.84853482 180.77724718 -44.32572032 182.27388797 -46.80337524 183.76986694 C-48.01102077 184.50251454 -49.21596393 185.23963647 -50.4180603 185.98135376 C-52.09735848 187.01702012 -53.78677372 188.03622736 -55.4765625 189.0546875 C-56.44674316 189.64749512 -57.41692383 190.24030273 -58.41650391 190.85107422 C-61 192 -61 192 -63.01782227 191.97998047 C-67.64694904 189.69135935 -71.13372441 185.42391175 -74.75610352 181.79980469 C-76.30929152 180.25319489 -77.8848799 178.73216049 -79.46289062 177.2109375 C-80.45198541 176.23064219 -81.43966603 175.24891752 -82.42578125 174.265625 C-83.77796753 172.93192871 -83.77796753 172.93192871 -85.1574707 171.57128906 C-87 169 -87 169 -86.98217773 166.5222168 C-85.84647817 163.60575839 -84.47771995 161.06054951 -82.859375 158.37890625 C-82.20775391 157.29029297 -81.55613281 156.20167969 -80.88476562 155.08007812 C-80.17324453 153.90751115 -79.46165426 152.73498615 -78.75 151.5625 C-78.01680759 150.34225952 -77.28439486 149.12155026 -76.55273438 147.90039062 C-75.07138515 145.42931739 -73.5867877 142.96024492 -72.09960938 140.49267578 C-69.20219776 135.68000096 -66.35071796 130.84043228 -63.5 126 C-62.45343725 124.22768016 -61.40655624 122.45554822 -60.359375 120.68359375 C-59.82376953 119.77722168 -59.28816406 118.87084961 -58.73632812 117.93701172 C-40.67194123 87.3809692 -40.67194123 87.3809692 -32 73 C-32.42152344 72.31292969 -32.84304687 71.62585938 -33.27734375 70.91796875 C-33.82519531 70.01691406 -34.37304688 69.11585938 -34.9375 68.1875 C-35.48277344 67.29417969 -36.02804688 66.40085937 -36.58984375 65.48046875 C-39.04153236 61.16794169 -39.27583957 57.28283918 -39.375 52.4375 C-39.43107422 51.43879883 -39.43107422 51.43879883 -39.48828125 50.41992188 C-39.62706118 42.33213577 -35.73699597 35.55211931 -30.3112793 29.74365234 C-28.91169917 28.34484913 -27.49878055 26.95929057 -26.07421875 25.5859375 C-25.32662796 24.84542145 -24.57903717 24.1049054 -23.80879211 23.34194946 C-21.446624 21.00749926 -19.06758655 18.69116409 -16.6875 16.375 C-15.07111165 14.78372342 -13.45586569 13.19128554 -11.84179688 11.59765625 C-7.90762867 7.71825707 -3.95950187 3.85353004 0 0 Z " fill="#3C5892" transform="translate(159,224)"/>
<path d="M0 0 C0.78793945 0.00612305 1.57587891 0.01224609 2.38769531 0.01855469 C8.57681507 0.18431191 13.73871497 1.25290812 19.125 4.4375 C19.94794052 4.91871307 20.77088104 5.39992615 21.61875916 5.89572144 C26.77653631 9.36337199 30.98821834 13.99639186 35.36547852 18.37158203 C36.39233327 19.39080678 37.41958607 20.40963064 38.44720459 21.42808533 C41.22685597 24.18586803 43.99997789 26.95012502 46.7712605 29.71631479 C48.50606354 31.44746524 50.24215551 33.1773125 51.97868156 34.90673447 C58.04578264 40.94936766 64.10716483 46.99767707 70.16381836 53.05078125 C75.79489844 58.67822806 81.43896919 64.29241128 87.08913285 69.90069115 C91.95171442 74.7284961 96.80454686 79.56596003 101.65011925 84.4108361 C104.53892204 87.29884861 107.43150269 90.1828049 110.33416939 93.05688858 C113.06631117 95.7627232 115.78605017 98.48045391 118.49707031 101.20744514 C119.48878182 102.20096109 120.48470494 103.19029542 121.48530388 104.17486 C131.25546758 113.79804754 136.31860761 122.26532165 136.4375 136.0625 C136.47805797 147.33310978 133.43812343 155.52569251 125.79224396 164.03311157 C124.49377155 165.34050797 124.49377155 165.34050797 123.16906738 166.67431641 C122.68409019 167.16523584 122.199113 167.65615528 121.69943953 168.16195107 C120.08622908 169.79239219 118.46605149 171.4157173 116.84570312 173.0390625 C115.68194902 174.2120832 114.51858847 175.38549444 113.35559082 176.55926514 C110.20317236 179.73783862 107.04417998 182.90979585 103.88311195 186.07976532 C101.90481305 188.06394122 99.9276876 190.04927921 97.95091248 192.03497314 C91.75543308 198.25777901 85.55597572 204.47658069 79.3506856 210.68960381 C72.20681518 217.8424278 65.07619462 225.00811846 57.9568944 232.18539619 C52.4403641 237.74527354 46.91224715 243.29345687 41.37533522 248.83303642 C38.07458935 252.13587041 34.77880179 255.44330195 31.49501038 258.76300049 C28.4023012 261.88886791 25.29533702 264.99985218 22.17729187 268.10044098 C21.04182875 269.23437374 19.91138147 270.37335751 18.78668213 271.51796722 C9.80854702 280.64551213 0.18695991 288.33518284 -13.12890625 288.68359375 C-14.14919922 288.71646484 -15.16949219 288.74933594 -16.22070312 288.78320312 C-18.3378038 288.84361826 -20.45499381 288.90099205 -22.57226562 288.95507812 C-40.41433625 289.54720696 -52.3269739 294.25149716 -65.0625 306.73046875 C-67.875 309.4375 -67.875 309.4375 -71.875 312.4375 C-82.27 302.0425 -82.27 302.0425 -92.875 291.4375 C-87.15220837 287.62230558 -80.35062658 288.3452164 -73.67407227 288.25 C-49.98725502 287.8176417 -37.997253 278.95024294 -21.79125977 262.61450195 C-20.1580494 260.97035214 -18.51412086 259.33744385 -16.86914062 257.70507812 C-15.82487722 256.65949657 -14.78123251 255.61329665 -13.73828125 254.56640625 C-13.00258659 253.83678429 -13.00258659 253.83678429 -12.25202942 253.09242249 C-9.62060087 250.7111791 -9.62060087 250.7111791 -8.875 247.4375 C-7.43825626 246.01741314 -7.43825626 246.01741314 -5.43190002 244.35734558 C-0.72483471 240.35125062 3.65443999 236.07719701 8.03540039 231.7199707 C8.88673553 230.87681305 9.73807068 230.0336554 10.61520386 229.16494751 C13.40403075 226.40074415 16.18896453 223.63265313 18.97265625 220.86328125 C19.93603006 219.90527595 20.89940836 218.94727516 21.86279106 217.98927879 C25.86537701 214.00824783 29.86655597 210.02581167 33.86403751 206.03965473 C39.57778322 200.34221208 45.29991645 194.65349358 51.03378874 188.97630435 C55.07744278 184.97126798 59.11154415 180.95676946 63.13858408 176.93502873 C65.54068006 174.53658959 67.94679769 172.14253407 70.36320686 169.75850868 C73.04696201 167.10612734 75.71477387 164.43867242 78.37915039 161.7668457 C79.58596214 160.58464195 79.58596214 160.58464195 80.81715393 159.3785553 C81.53624939 158.65114136 82.25534485 157.92372742 82.99623108 157.17427063 C83.62833024 156.54548162 84.2604294 155.9166926 84.91168308 155.26884937 C86.38061284 153.50798469 86.38061284 153.50798469 85.76341915 151.38095379 C85.55274083 150.73961404 85.34206251 150.09827429 85.125 149.4375 C85.77254209 147.43122642 86.44139003 145.43177226 87.125 143.4375 C88.65867165 128.5466183 84.20211929 118.87364439 75.125 107.4375 C72.06377642 104.00783163 68.84312941 100.76383015 65.57543945 97.53149414 C64.6557135 96.60972382 63.73598755 95.68795349 62.78839111 94.73825073 C60.29742441 92.24221236 57.797356 89.75548704 55.29524255 87.27062917 C52.66459761 84.65517101 50.04220728 82.03145928 47.41874695 79.40879822 C43.02009701 75.01382281 38.61588314 70.62449024 34.20776367 66.23901367 C28.5581519 60.61836389 22.917916 54.9884013 17.28054523 49.35547733 C12.41507492 44.49399161 7.54535768 39.63676637 2.67494941 34.78022838 C1.11713629 33.22650118 -0.44009963 31.67219725 -1.99725914 30.11781502 C-4.89958871 27.22130843 -7.80632199 24.32926066 -10.71362305 21.43774414 C-11.57139847 20.58108658 -12.42917389 19.72442902 -13.3129425 18.84181213 C-14.10759918 18.0528656 -14.90225586 17.26391907 -15.72099304 16.45106506 C-16.4065562 15.76847657 -17.09211935 15.08588808 -17.79845715 14.38261509 C-20.06054397 12.26369941 -22.43273329 10.34427765 -24.875 8.4375 C-23.71486202 7.65687524 -22.54638097 6.88865029 -21.375 6.125 C-20.7253125 5.69574219 -20.075625 5.26648438 -19.40625 4.82421875 C-12.99218603 1.31034111 -7.3045645 -0.09706022 0 0 Z " fill="#C7CCEC" transform="translate(335.875,15.5625)"/>
<path d="M0 0 C5.8587357 4.86278917 11.23644152 10.10078525 16.60717773 15.49365234 C17.55379596 16.44055319 18.50063551 17.38723281 19.44767761 18.33370972 C21.99901164 20.88475868 24.5472664 23.43886305 27.09495044 25.9935565 C29.76503319 28.66992131 32.43797774 31.34342496 35.11061096 34.01724243 C40.16270611 39.07243665 45.21224829 44.13017292 50.26086241 49.18884337 C56.01225297 54.95143942 61.76650792 60.71117162 67.52099693 66.47067332 C79.35050567 78.3106142 91.17643916 90.15411938 103 102 C101.56523742 105.27007631 99.80343602 107.45333499 97.29373169 109.98042297 C96.52266083 110.76146896 95.75158997 111.54251495 94.95715332 112.347229 C94.11036011 113.19468689 93.26356689 114.04214478 92.39111328 114.9152832 C91.49991791 115.81480209 90.60872253 116.71432098 89.69052124 117.64109802 C87.24915147 120.10438293 84.80126721 122.56109103 82.35146189 125.01598382 C80.82171128 126.54937913 79.29326669 128.08406415 77.76525497 129.61919212 C72.43629192 134.97263167 67.1016487 140.32034254 61.76220703 145.66333008 C56.78110591 150.64807318 51.81331081 155.6458156 46.85134327 160.64959842 C42.59174975 164.94382823 38.32264229 169.22844204 34.04604518 173.50573796 C31.49130177 176.06127595 28.94072905 178.62067157 26.39981461 181.1899662 C23.56951197 184.05117358 20.71974992 186.89218369 17.86767578 189.73168945 C17.02493103 190.58926849 16.18218628 191.44684753 15.31390381 192.33041382 C14.5371933 193.09736069 13.76048279 193.86430756 12.9602356 194.65449524 C12.28808077 195.32866139 11.61592594 196.00282755 10.92340279 196.69742298 C9 198 9 198 6.87365532 197.80401897 C2.75262417 196.03561088 -0.19356581 192.31738743 -3.3125 189.1875 C-4.06595703 188.46240234 -4.81941406 187.73730469 -5.59570312 186.99023438 C-6.6562793 185.93352539 -6.6562793 185.93352539 -7.73828125 184.85546875 C-8.71341675 183.89096802 -8.71341675 183.89096802 -9.70825195 182.90698242 C-11 181 -11 181 -10.8744812 179.19287109 C-9.63487763 176.08440993 -7.68449674 174.34923252 -5.30004883 172.00708008 C-4.81210846 171.52352051 -4.32416809 171.03996094 -3.82144165 170.54174805 C-2.761825 169.4935364 -1.69875705 168.44880471 -0.63266945 167.40717506 C1.06066349 165.75223773 2.74435524 164.08801748 4.42585754 162.42106628 C8.60820904 158.27877802 12.8064735 154.15273907 17.00463867 150.02648926 C20.54620065 146.54446339 24.08132798 143.05613517 27.60839272 139.55942345 C29.25619395 137.93087634 30.91286227 136.31174554 32.57011414 134.69282532 C42.16729513 125.2383057 49.65162525 116.07853213 50.5 102.125 C50.08962852 92.73042424 45.96984055 85.58327473 39.58105469 78.90356445 C39.05412395 78.34319394 38.52719322 77.78282343 37.98429489 77.20547199 C32.25347771 71.14390123 26.36560958 65.23898586 20.453125 59.35546875 C19.30420153 58.2084178 18.15550415 57.06114036 17.00701904 55.91365051 C14.03051119 52.94090232 11.05101023 49.97117291 8.07080078 47.00213623 C5.01147532 43.95316851 1.9550935 40.90125287 -1.1015625 37.84960938 C-7.06488673 31.89690639 -13.03138712 25.94740017 -19 20 C-12.74442981 12.61438461 -12.74442981 12.61438461 -9.5703125 9.47265625 C-9.003125 8.90869141 -8.4359375 8.34472656 -7.8515625 7.76367188 C-7.28179687 7.20228516 -6.71203125 6.64089844 -6.125 6.0625 C-5.23554688 5.17981445 -5.23554688 5.17981445 -4.328125 4.27929688 C-2.88773534 2.85052326 -1.4442033 1.42491868 0 0 Z " fill="#5E87CA" transform="translate(320,65)"/>
<path d="M0 0 C4.47646107 0.41712364 6.97040095 3.54898567 9.96191406 6.57373047 C10.84061157 7.44454254 10.84061157 7.44454254 11.73706055 8.33294678 C13.67086381 10.25354818 15.59348969 12.18491395 17.515625 14.1171875 C18.8546839 15.45422601 20.19418791 16.79081887 21.53411865 18.12698364 C24.33982891 20.92827051 27.14003935 23.73491379 29.93652344 26.54541016 C33.52678756 30.15278241 37.13037218 33.746499 40.73816299 37.33633232 C43.50587496 40.09322112 46.26642304 42.85719389 49.02483368 45.62338638 C50.35114883 46.95170674 51.679707 48.27779128 53.01050568 49.60161972 C54.86623647 51.44975858 56.71212191 53.307194 58.55566406 55.16748047 C59.11042419 55.71616791 59.66518433 56.26485535 60.23675537 56.83016968 C64 60.65720326 64 60.65720326 64 64 C62.32958984 65.32763672 62.32958984 65.32763672 59.9609375 66.6796875 C59.08179688 67.18951172 58.20265625 67.69933594 57.296875 68.22460938 C55.85054687 69.04155273 55.85054687 69.04155273 54.375 69.875 C52.34097668 71.04918619 50.3071272 72.22367357 48.2734375 73.3984375 C47.22768555 73.9975293 46.18193359 74.59662109 45.10449219 75.21386719 C40.37770596 77.93336766 35.6897661 80.7173179 31 83.5 C29.16037373 84.58760752 27.3205293 85.67484613 25.48046875 86.76171875 C24.57216309 87.29845215 23.66385742 87.83518555 22.72802734 88.38818359 C20.04412156 89.9739314 17.3599842 91.55928651 14.67578125 93.14453125 C13.7926123 93.66644043 12.90944336 94.18834961 11.99951172 94.72607422 C10.21431216 95.78006538 8.42818438 96.83248599 6.64111328 97.88330078 C1.94817789 100.64685321 -2.7276217 103.4350747 -7.37696838 106.27122498 C-9.84853482 107.77724718 -12.32572032 109.27388797 -14.80337524 110.76986694 C-16.01102077 111.50251454 -17.21596393 112.23963647 -18.4180603 112.98135376 C-20.09735848 114.01702012 -21.78677372 115.03622736 -23.4765625 116.0546875 C-24.44674316 116.64749512 -25.41692383 117.24030273 -26.41650391 117.85107422 C-29 119 -29 119 -31.01782227 118.97998047 C-35.64694904 116.69135935 -39.13372441 112.42391175 -42.75610352 108.79980469 C-44.30929152 107.25319489 -45.8848799 105.73216049 -47.46289062 104.2109375 C-48.45198541 103.23064219 -49.43966603 102.24891752 -50.42578125 101.265625 C-51.77796753 99.93192871 -51.77796753 99.93192871 -53.1574707 98.57128906 C-55 96 -55 96 -54.98217773 93.5222168 C-53.84647817 90.60575839 -52.47771995 88.06054951 -50.859375 85.37890625 C-50.20775391 84.29029297 -49.55613281 83.20167969 -48.88476562 82.08007812 C-48.17324453 80.90751115 -47.46165426 79.73498615 -46.75 78.5625 C-46.01680759 77.34225952 -45.28439486 76.12155026 -44.55273438 74.90039062 C-43.07138515 72.42931739 -41.5867877 69.96024492 -40.09960938 67.49267578 C-37.20219776 62.68000096 -34.35071796 57.84043228 -31.5 53 C-30.45343725 51.22768016 -29.40655624 49.45554822 -28.359375 47.68359375 C-27.82376953 46.77722168 -27.28816406 45.87084961 -26.73632812 44.93701172 C-8.67194123 14.3809692 -8.67194123 14.3809692 0 0 Z " fill="#C7CCEC" transform="translate(127,297)"/>
<path d="M0 0 C4.25035145 1.6520973 7.101381 4.82047143 10.24975586 7.9909668 C10.86653702 8.60424332 11.48331818 9.21751984 12.11878967 9.84938049 C14.15586701 11.87765809 16.18554349 13.91316231 18.21484375 15.94921875 C19.63175209 17.36477942 21.04895717 18.78004312 22.46644592 20.19502258 C25.43784653 23.16347386 28.40559854 26.1355136 31.37084961 29.11010742 C35.16135202 32.91197292 38.96071973 36.70483122 42.76290035 40.49501324 C45.69284654 43.41770903 48.61798349 46.34518083 51.54171944 49.27408791 C52.94001243 50.67371023 54.33977927 52.07186176 55.7410717 53.46848106 C57.70589512 55.42819052 59.66413489 57.39425899 61.62084961 59.36206055 C62.19503632 59.93219879 62.76922302 60.50233704 63.36080933 61.0897522 C70.33275684 68.13456746 74.89078894 74.72220867 75.375 84.9375 C75.03053915 95.84542706 67.28203726 102.67693718 60 110 C57.72322775 112.10464514 55.42234653 114.06212278 53 116 C49.4282425 112.42989523 45.86055365 108.85576343 42.29516602 105.27929688 C36.73381461 99.70161565 31.16992686 94.12647174 25.60458469 88.55277252 C22.24539679 85.18835882 18.88715416 81.82301247 15.53100586 78.45556641 C12.27252562 75.18619238 9.01158267 71.91929321 5.74894524 68.65406799 C4.51098077 67.41426383 3.27389295 66.17358365 2.03772163 64.93199158 C0.3055669 63.19253791 -1.42973308 61.4562796 -3.16577148 59.72070312 C-3.6693367 59.21354263 -4.17290192 58.70638214 -4.69172668 58.18385315 C-7.1291369 55.75341426 -9.61710889 53.44630025 -12.27333069 51.26086426 C-17.33255555 47.06592187 -18.70551196 42.66965793 -19.41796875 36.2109375 C-19.85317732 27.91329045 -19.28631254 20.71149431 -14 14 C-9.55970542 9.1007359 -4.8176696 4.52430677 0 0 Z " fill="#4B6BB4" transform="translate(139,244)"/>
<path d="M0 0 C3.37295558 0.5834885 5.00005799 1.63101106 7.39160156 4.05102539 C8.0319635 4.69161392 8.67232544 5.33220245 9.33209229 5.99220276 C10.01140808 6.68700241 10.69072388 7.38180206 11.390625 8.09765625 C12.09523865 8.80651474 12.79985229 9.51537323 13.52581787 10.24571228 C15.77434785 12.5110328 18.01222238 14.78656208 20.25 17.0625 C21.77274708 18.60029335 23.29617654 20.13741131 24.8203125 21.67382812 C28.5548281 25.44141802 32.2806485 29.21744265 36 33 C34.67681473 36.96955581 33.10488668 37.38820303 29.5078125 39.44921875 C28.93882233 39.77887634 28.36983215 40.10853394 27.78359985 40.44818115 C25.90199219 41.53614354 24.01352264 42.6115934 22.125 43.6875 C20.81093033 44.44501698 19.49746059 45.20357555 18.18457031 45.96313477 C16.15434307 47.13747917 14.12373139 48.31110066 12.09118652 49.48143005 C5.27486714 53.40680038 -1.48892359 57.41798858 -8.25 61.4375 C-9.3630249 62.09500244 -10.4760498 62.75250488 -11.62280273 63.42993164 C-16.55074013 66.34197822 -21.46222917 69.27189976 -26.32421875 72.29296875 C-27.50999512 73.02012085 -27.50999512 73.02012085 -28.71972656 73.76196289 C-30.14793415 74.63973512 -31.56859877 75.52996259 -32.97949219 76.43530273 C-37.39490295 79.12916686 -37.39490295 79.12916686 -40.37890625 78.4921875 C-42.42714144 76.60682402 -42.75551561 75.77339767 -43 73 C-41.75927734 70.23291016 -41.75927734 70.23291016 -39.8359375 67.0390625 C-39.32086136 66.17177773 -39.32086136 66.17177773 -38.79537964 65.28697205 C-37.66669306 63.39253416 -36.52098434 61.5090151 -35.375 59.625 C-34.58700815 58.30923507 -33.80023404 56.99274012 -33.01464844 55.67553711 C-31.43019508 53.0223585 -29.83952005 50.37308435 -28.24316406 47.72705078 C-25.20888897 42.69373708 -22.23089187 37.62754338 -19.25 32.5625 C-18.22058985 30.82129654 -17.19064325 29.08041012 -16.16015625 27.33984375 C-12.66609504 21.43677167 -9.17676824 15.53090604 -5.6875 9.625 C-4.5872553 7.76301155 -3.48699642 5.90103147 -2.38671875 4.0390625 C-1.92483154 3.25740723 -1.46294434 2.47575195 -0.98706055 1.67041016 C-0.66133057 1.1191748 -0.33560059 0.56793945 0 0 Z " fill="#E1E6F5" transform="translate(115,317)"/>
<path d="M0 0 C3.94550855 1.31516952 4.87943289 3.65672152 6.8359375 7.08984375 C7.19716705 7.70839737 7.55839661 8.32695099 7.93057251 8.96424866 C8.69620943 10.27914146 9.45752107 11.59656081 10.21484375 12.91625977 C11.35543505 14.90341368 12.5083664 16.88292891 13.6640625 18.86132812 C15.8127874 22.55395684 17.91703359 26.26994781 20 30 C20.53906982 30.95841797 21.07813965 31.91683594 21.63354492 32.90429688 C25.94009681 40.95117309 26.64589847 48.47774395 24.37109375 57.4921875 C21.7604219 63.50961051 16.46847769 68.25412197 10.671875 71.171875 C4.19785035 73.17844404 -4.17277577 73.2761327 -10.4375 70.5 C-16.2742267 66.97285978 -20.95894737 61.51238189 -23 55 C-24.54630963 43.51899308 -22.0024959 35.82023746 -16 26 C-15.05858154 24.44128174 -15.05858154 24.44128174 -14.09814453 22.85107422 C-9.46652643 15.19143382 -4.75622822 7.58293821 0 0 Z " fill="#C0DAFC" transform="translate(63,424)"/>
</svg>
